<svg version="1.1" xmlns="http://www.w3.org/2000/svg" xmlns:xlink="http://www.w3.org/1999/xlink" width="123.25043" height="137.48147" viewBox="0,0,123.25043,137.48147"><defs><linearGradient x1="216.77532" y1="147.95576" x2="223.81646" y2="147.95576" gradientUnits="userSpaceOnUse" id="color-1"><stop offset="0" stop-color="#efab00"/><stop offset="1" stop-color="#f05a01"/></linearGradient><linearGradient x1="217.66805" y1="235.86989" x2="224.7092" y2="235.86989" gradientUnits="userSpaceOnUse" id="color-2"><stop offset="0" stop-color="#efab00"/><stop offset="1" stop-color="#f06500"/></linearGradient><linearGradient x1="201.46814" y1="200.50832" x2="214.96559" y2="200.50832" gradientUnits="userSpaceOnUse" id="color-3"><stop offset="0" stop-color="#efab00"/><stop offset="1" stop-color="#f03700"/></linearGradient><linearGradient x1="235.09097" y1="234.64186" x2="242.13103" y2="234.64186" gradientUnits="userSpaceOnUse" id="color-4"><stop offset="0" stop-color="#efab00"/><stop offset="1" stop-color="#f08900"/></linearGradient><linearGradient x1="191.71721" y1="230.80614" x2="208.73062" y2="230.80614" gradientUnits="userSpaceOnUse" id="color-5"><stop offset="0" stop-color="#efab00"/><stop offset="1" stop-color="#f07100"/></linearGradient><linearGradient x1="209.84808" y1="170.16391" x2="229.13745" y2="170.16391" gradientUnits="userSpaceOnUse" id="color-6"><stop offset="0" stop-color="#efab00"/><stop offset="1" stop-color="#f04300"/></linearGradient><linearGradient x1="226.21855" y1="190.30425" x2="244.5923" y2="190.30425" gradientUnits="userSpaceOnUse" id="color-7"><stop offset="0" stop-color="#efab00"/><stop offset="1" stop-color="#f06600"/></linearGradient><linearGradient x1="222.17747" y1="211.92258" x2="234.84016" y2="211.92258" gradientUnits="userSpaceOnUse" id="color-8"><stop offset="0" stop-color="#efab00"/><stop offset="1" stop-color="#f05a00"/></linearGradient><linearGradient x1="245.6677" y1="222.18537" x2="258.40024" y2="222.18537" gradientUnits="userSpaceOnUse" id="color-9"><stop offset="0" stop-color="#efab00"/><stop offset="1" stop-color="#f07100"/></linearGradient></defs><g transform="translate(-178.52336,-111.29282)"><g data-paper-data="{&quot;isPaintingLayer&quot;:true}" stroke-linecap="butt" stroke-linejoin="miter" stroke-miterlimit="10" stroke-dasharray="" stroke-dashoffset="0" style="mix-blend-mode: normal"><path d="M181.55223,248.52429c2.12803,0 46.36396,-124.5455 46.44264,-126.35335c0.05568,1.95554 52.89392,98.9952 55.75913,123.79258c-1.01378,0.68877 5.93742,0.60282 -0.50961,0.60282z" fill="#000000" fill-rule="evenodd" stroke="#000000" stroke-width="0.5"/><path d="M228.61767,153.11273c-4.68942,0 -4.69789,-7.28772 0,-7.28772c4.69184,0 4.69728,7.28772 0,7.28772" fill="#000000" fill-rule="evenodd" stroke="#000000" stroke-width="0.5"/><path d="M229.5104,241.02716c-4.68942,0 -4.69789,-7.28832 0,-7.28832c4.69184,0 4.69728,7.28832 0,7.28832" fill="#000000" fill-rule="evenodd" stroke="#000000" stroke-width="0.5"/><path d="M216.53704,209.00562c-8.98724,0 -9.00419,-13.96838 0,-13.96838c8.99269,0 9.00903,13.96838 0,13.96838" fill="#000000" fill-rule="evenodd" stroke="#000000" stroke-width="0.5"/><path d="M246.9329,239.79912c-4.68881,0 -4.69728,-7.28832 0,-7.28832c4.68942,0 4.69789,7.28832 0,7.28832" fill="#000000" fill-rule="evenodd" stroke="#000000" stroke-width="0.5"/><path d="M208.54603,241.12581c-11.33195,0 -11.35252,-17.61315 0,-17.61315c11.33195,0 11.35252,17.61315 0,17.61315" fill="#000000" fill-rule="evenodd" stroke="#000000" stroke-width="0.5"/><path d="M227.81506,181.66563c-12.84808,0 -12.87168,-19.97722 0,-19.97722c12.84747,0 12.87108,19.97722 0,19.97722" fill="#000000" fill-rule="evenodd" stroke="#000000" stroke-width="0.5"/><path d="M243.72753,200.59639c-12.23799,0 -12.26039,-17.55807 0,-17.55807c12.23799,0 12.26039,17.55807 0,17.55807" fill="#000000" fill-rule="evenodd" stroke="#000000" stroke-width="0.5"/><path d="M236.8308,220.72371c-8.43405,0 -8.44918,-14.57604 0,-14.57604c8.43405,0 8.44978,14.57604 0,14.57604" fill="#000000" fill-rule="evenodd" stroke="#000000" stroke-width="0.5"/><path d="M260.35589,230.28896c-8.48065,0 -8.49578,-13.18096 0,-13.18096c8.48065,0 8.49639,13.18096 0,13.18096" fill="#000000" fill-rule="evenodd" stroke="#000000" stroke-width="0.5"/><path d="M227.62689,125.69587l16.73918,-10.81568l57.1058,122.62325c0,0 -7.13126,6.87755 -10.15057,8.82848c-2.43241,1.57169 -6.588,-0.28247 -6.588,-0.28247z" fill="#000000" fill-rule="nonzero" stroke="#000000" stroke-width="0.5"/><path d="M207.71926,200.15759c0,-0.693 0.46543,-1.27646 1.10033,-1.45621c0.25662,-0.47088 0.75595,-0.79045 1.32972,-0.79045c0.83584,0 1.51311,0.67727 1.51311,1.51311c0,0.6924 -0.46483,1.27646 -1.10033,1.45621c-0.25602,0.47088 -0.75534,0.79045 -1.32972,0.79045c-0.83584,0 -1.51311,-0.67787 -1.51311,-1.51311z" fill="#000000" fill-rule="nonzero" stroke="none" stroke-width="0.5"/><path d="M275.43193,244.45041c-1.01378,0.68877 5.93742,0.60282 -0.50961,0.60282l-96.39418,0.82307c2.02181,-0.07735 35.75582,-108.48334 40.64352,-123.53238c0.33603,-0.15779 0.65856,-0.3396 0.96536,-0.54314c5.21095,11.19123 52.58609,99.20583 55.29491,122.64964z" fill="#ffbf00" fill-rule="nonzero" stroke="#000000" stroke-width="0.25"/><path d="M220.29559,151.59962c-4.68942,0 -4.69789,-7.28772 0,-7.28772c4.69184,0 4.69728,7.28772 0,7.28772" fill="url(#color-1)" fill-rule="evenodd" stroke="#000000" stroke-width="0.5"/><path d="M221.18832,239.51405c-4.68942,0 -4.69789,-7.28832 0,-7.28832c4.69184,0 4.69728,7.28832 0,7.28832" fill="url(#color-2)" fill-rule="evenodd" stroke="#000000" stroke-width="0.5"/><path d="M208.21496,207.49251c-8.98724,0 -9.00419,-13.96838 0,-13.96838c8.99269,0 9.00903,13.96838 0,13.96838" fill="url(#color-3)" fill-rule="evenodd" stroke="#000000" stroke-width="0.5"/><path d="M238.61082,238.28602c-4.68881,0 -4.69728,-7.28832 0,-7.28832c4.68942,0 4.69789,7.28832 0,7.28832" fill="url(#color-4)" fill-rule="evenodd" stroke="#000000" stroke-width="0.5"/><path d="M200.22395,239.61271c-11.33195,0 -11.35252,-17.61315 0,-17.61315c11.33195,0 11.35252,17.61315 0,17.61315" fill="url(#color-5)" fill-rule="evenodd" stroke="#000000" stroke-width="0.5"/><path d="M219.49304,180.15252c-12.84808,0 -12.87168,-19.97722 0,-19.97722c12.84747,0 12.87108,19.97722 0,19.97722" fill="url(#color-6)" fill-rule="evenodd" stroke="#000000" stroke-width="0.5"/><path d="M235.40546,199.08328c-12.23799,0 -12.26039,-17.55807 0,-17.55807c12.23799,0 12.26039,17.55807 0,17.55807" fill="url(#color-7)" fill-rule="evenodd" stroke="#000000" stroke-width="0.5"/><path d="M228.50872,219.21061c-8.43405,0 -8.44918,-14.57604 0,-14.57604c8.43405,0 8.44978,14.57604 0,14.57604" fill="url(#color-8)" fill-rule="evenodd" stroke="#000000" stroke-width="0.5"/><path d="M252.03388,228.77585c-8.48065,0 -8.49578,-13.18096 0,-13.18096c8.48065,0 8.49639,13.18096 0,13.18096" fill="url(#color-9)" fill-rule="evenodd" stroke="#000000" stroke-width="0.5"/><path d="M219.68308,122.29138l16.73918,-10.81568l57.1058,122.62325c0,0 -7.13126,6.87755 -10.15057,8.82848c-2.43241,1.57169 -8.47938,3.12202 -8.47938,3.12202c0,0 -44.27267,-99.2321 -51.52468,-115.4866c-1.94083,-4.35012 -3.69034,-8.27148 -3.69034,-8.27148z" fill="#c48d00" fill-rule="nonzero" stroke="#000000" stroke-width="0.25"/><path d="M199.39719,198.64448c0,-0.693 0.46543,-1.27646 1.10033,-1.45621c0.25662,-0.47088 0.75595,-0.79045 1.32972,-0.79045c0.83584,0 1.51311,0.67727 1.51311,1.51311c0,0.6924 -0.46483,1.27646 -1.10033,1.45621c-0.25602,0.47088 -0.75534,0.79045 -1.32972,0.79045c-0.83584,0 -1.51311,-0.67787 -1.51311,-1.51311z" fill="#000000" fill-rule="nonzero" stroke="none" stroke-width="0.5"/></g></g></svg>