<svg version="1.1" xmlns="http://www.w3.org/2000/svg" xmlns:xlink="http://www.w3.org/1999/xlink" width="108.47163" height="142.81598" viewBox="0,0,108.47163,142.81598"><defs><linearGradient x1="267.94257" y1="174.39678" x2="286.68288" y2="174.39678" gradientUnits="userSpaceOnUse" id="color-1"><stop offset="0" stop-color="#f5f5f5"/><stop offset="1" stop-color="#0069ff"/></linearGradient><linearGradient x1="268.33899" y1="156.05052" x2="286.26398" y2="156.05052" gradientUnits="userSpaceOnUse" id="color-2"><stop offset="0" stop-color="#f5f5f5"/><stop offset="1" stop-color="#0069ff"/></linearGradient><linearGradient x1="242.61068" y1="174.67915" x2="261.35099" y2="174.67915" gradientUnits="userSpaceOnUse" id="color-3"><stop offset="0" stop-color="#f5f5f5"/><stop offset="1" stop-color="#00ff47"/></linearGradient><linearGradient x1="243.00709" y1="156.33289" x2="260.93208" y2="156.33289" gradientUnits="userSpaceOnUse" id="color-4"><stop offset="0" stop-color="#f5f5f5"/><stop offset="1" stop-color="#00ff47"/></linearGradient><linearGradient x1="217.1009" y1="175.31727" x2="235.84121" y2="175.31727" gradientUnits="userSpaceOnUse" id="color-5"><stop offset="0" stop-color="#f5f5f5"/><stop offset="1" stop-color="#ffad00"/></linearGradient><linearGradient x1="217.49732" y1="156.97101" x2="235.42231" y2="156.97101" gradientUnits="userSpaceOnUse" id="color-6"><stop offset="0" stop-color="#f5f5f5"/><stop offset="1" stop-color="#ffad00"/></linearGradient><linearGradient x1="191.94689" y1="175.24388" x2="210.6872" y2="175.24388" gradientUnits="userSpaceOnUse" id="color-7"><stop offset="0" stop-color="#f5f5f5"/><stop offset="1" stop-color="#ff0000"/></linearGradient><linearGradient x1="192.34329" y1="156.89762" x2="210.26829" y2="156.89762" gradientUnits="userSpaceOnUse" id="color-8"><stop offset="0" stop-color="#f5f5f5"/><stop offset="1" stop-color="#ff0000"/></linearGradient><linearGradient x1="262.76588" y1="208.86217" x2="268.21219" y2="200.52309" gradientUnits="userSpaceOnUse" id="color-9"><stop offset="0" stop-color="#f5f5f5"/><stop offset="1" stop-color="#0069ff"/></linearGradient><linearGradient x1="253.58632" y1="203.25306" x2="259.06516" y2="194.86419" gradientUnits="userSpaceOnUse" id="color-10"><stop offset="0" stop-color="#f5f5f5"/><stop offset="1" stop-color="#0069ff"/></linearGradient></defs><g transform="translate(-185.76418,-108.59201)"><g data-paper-data="{&quot;isPaintingLayer&quot;:true}" fill-rule="nonzero" stroke-linejoin="miter" stroke-miterlimit="10" stroke-dasharray="" stroke-dashoffset="0" style="mix-blend-mode: normal"><path d="M188.76418,181.14184v-69.54983h102.47163v69.54983z" fill="#ffffff" stroke="#000000" stroke-width="6" stroke-linecap="butt"/><path d="M277.28524,195.51493c-1.80352,-0.01519 -5.78699,0.43248 -7.5708,-2.74003c-2.22508,-3.95729 -1.59945,-10.1776 -1.54312,-16.86352c0.03799,-4.51094 -0.64158,-15.70455 0.17702,-19.17613c1.36739,-5.79886 7.23569,-2.80272 9.77104,-2.78137c2.36172,0.01989 6.76784,-2.1605 8.06686,3.00104c0.93037,3.69673 0.27615,13.58016 0.23381,18.60717c-0.05079,6.02906 0.89827,12.94916 -0.7521,16.95218c-1.64704,3.99492 -6.35819,3.01773 -8.38274,3.00067z" fill="url(#color-1)" stroke="#a2a2a2" stroke-width="2.5" stroke-linecap="butt"/><path d="M277.23139,164.37257c-4.9497,-0.0417 -8.93083,-3.80141 -8.89212,-8.39756c0.03872,-4.59615 4.08263,-8.28826 9.03233,-8.24657c4.9497,0.0417 8.93083,3.80141 8.89211,8.39756c-0.03872,4.59615 -4.08261,8.28826 -9.03231,8.24657z" fill="url(#color-2)" stroke="#a2a2a2" stroke-width="2.5" stroke-linecap="butt"/><path d="M251.95335,195.79729c-1.80352,-0.01519 -5.78699,0.43248 -7.5708,-2.74003c-2.22508,-3.95729 -1.59945,-10.1776 -1.54312,-16.86352c0.03799,-4.51094 -0.64158,-15.70455 0.17703,-19.17613c1.36739,-5.79886 7.23569,-2.80272 9.77104,-2.78137c2.36172,0.01989 6.76784,-2.1605 8.06686,3.00104c0.93037,3.69673 0.27616,13.58016 0.23381,18.60717c-0.05079,6.02906 0.89827,12.94916 -0.7521,16.95218c-1.64704,3.99492 -6.3582,3.01773 -8.38274,3.00067z" fill="url(#color-3)" stroke="#a2a2a2" stroke-width="2.5" stroke-linecap="butt"/><path d="M251.89948,164.65494c-4.9497,-0.0417 -8.93083,-3.80141 -8.89211,-8.39756c0.03872,-4.59615 4.08263,-8.28826 9.03233,-8.24657c4.9497,0.0417 8.93083,3.80141 8.89211,8.39756c-0.03872,4.59615 -4.08261,8.28826 -9.03231,8.24657z" fill="url(#color-4)" stroke="#a2a2a2" stroke-width="2.5" stroke-linecap="butt"/><path d="M226.44357,196.43541c-1.80352,-0.01519 -5.78699,0.43248 -7.5708,-2.74003c-2.22508,-3.95729 -1.59945,-10.1776 -1.54312,-16.86352c0.03799,-4.51094 -0.64158,-15.70455 0.17703,-19.17613c1.36739,-5.79886 7.23569,-2.80272 9.77104,-2.78137c2.36172,0.01989 6.76784,-2.1605 8.06686,3.00104c0.93037,3.69673 0.27616,13.58016 0.23381,18.60717c-0.05079,6.02906 0.89827,12.94916 -0.7521,16.95218c-1.64704,3.99492 -6.3582,3.01773 -8.38274,3.00067z" fill="url(#color-5)" stroke="#a2a2a2" stroke-width="2.5" stroke-linecap="butt"/><path d="M226.38972,165.29306c-4.9497,-0.0417 -8.93083,-3.80141 -8.89212,-8.39756c0.03872,-4.59615 4.08263,-8.28826 9.03233,-8.24657c4.9497,0.0417 8.93083,3.80141 8.89211,8.39756c-0.03872,4.59615 -4.08261,8.28826 -9.03231,8.24657z" fill="url(#color-6)" stroke="#a2a2a2" stroke-width="2.5" stroke-linecap="butt"/><path d="M201.28956,196.36202c-1.80352,-0.01519 -5.78699,0.43248 -7.5708,-2.74003c-2.22508,-3.95729 -1.59945,-10.1776 -1.54312,-16.86352c0.03799,-4.51094 -0.64158,-15.70455 0.17703,-19.17613c1.36739,-5.79886 7.23569,-2.80272 9.77104,-2.78137c2.36172,0.01989 6.76784,-2.1605 8.06686,3.00104c0.93037,3.69673 0.27616,13.58016 0.23381,18.60717c-0.05079,6.02906 0.89827,12.94916 -0.7521,16.95218c-1.64704,3.99492 -6.3582,3.01773 -8.38274,3.00067z" fill="url(#color-7)" stroke="#a2a2a2" stroke-width="2.5" stroke-linecap="butt"/><path d="M201.23569,165.21967c-4.9497,-0.0417 -8.93083,-3.80141 -8.89212,-8.39756c0.03872,-4.59615 4.08263,-8.28826 9.03233,-8.24657c4.9497,0.0417 8.93083,3.80141 8.89211,8.39756c-0.03872,4.59615 -4.08261,8.28826 -9.03231,8.24657z" fill="url(#color-8)" stroke="#a2a2a2" stroke-width="2.5" stroke-linecap="butt"/><path d="M188.76418,248.40797v-67.05954h102.45703v67.05956z" fill="#ffffff" stroke="#000000" stroke-width="6" stroke-linecap="butt"/><path d="M290.49319,141.98954l-99.75947,0.2449" fill="none" stroke="#000000" stroke-width="6" stroke-linecap="round"/><text transform="translate(200.85662,131.16103) scale(0.47571,0.47856)" font-size="40" xml:space="preserve" fill="#ff0000" fill-rule="nonzero" stroke="none" stroke-width="1" stroke-linecap="butt" stroke-linejoin="miter" stroke-miterlimit="10" stroke-dasharray="" stroke-dashoffset="0" font-family="Handwriting" font-weight="normal" text-anchor="start" style="mix-blend-mode: normal"><tspan x="0" dy="0">Multicolor</tspan></text><text transform="translate(197.46994,212.76802) rotate(-26.15021) scale(0.27038,0.27038)" font-size="40" xml:space="preserve" fill="#108a43" fill-rule="nonzero" stroke="none" stroke-width="1" stroke-linecap="butt" stroke-linejoin="miter" stroke-miterlimit="10" stroke-dasharray="" stroke-dashoffset="0" font-family="Handwriting" font-weight="normal" text-anchor="start" style="mix-blend-mode: normal"><tspan x="0" dy="0">Great for</tspan><tspan x="0" dy="46.150000000000006px">drawing!</tspan></text><path d="M274.7424,210.75352c-0.53081,0.79818 -1.49216,2.69896 -3.40187,2.58406c-2.38212,-0.14332 -4.92821,-2.20335 -7.84395,-4.14339c-1.96723,-1.30894 -7.07368,-4.21261 -8.35824,-5.57119c-2.1457,-2.26936 0.8737,-4.0225 1.61989,-5.14457c0.69508,-1.04522 1.01937,-3.63037 3.6605,-2.73004c1.89159,0.64482 6.03582,3.76675 8.22811,5.22542c2.62929,1.74944 5.93991,3.30918 7.2158,5.1901c1.27331,1.87712 -0.5244,3.69362 -1.12024,4.58961z" fill="url(#color-9)" stroke="#a2a2a2" stroke-width="1" stroke-linecap="butt"/><path d="M260.19902,201.63509c-1.5324,2.3037 -4.50878,3.0177 -6.64793,1.59476c-2.13915,-1.42294 -2.63101,-4.444 -1.09862,-6.7477c1.5324,-2.3037 4.50878,-3.0177 6.64793,-1.59476c2.13915,1.42294 2.63103,4.44398 1.09862,6.7477z" fill="url(#color-10)" stroke="#a2a2a2" stroke-width="1" stroke-linecap="butt"/></g></g></svg>