<svg version="1.1" xmlns="http://www.w3.org/2000/svg" xmlns:xlink="http://www.w3.org/1999/xlink" width="156.15569" height="84.44314" viewBox="0,0,156.15569,84.44314"><g transform="translate(-129.70977,-142.32447)"><g data-paper-data="{&quot;isPaintingLayer&quot;:true}" fill="#ffffff" fill-rule="nonzero" stroke-linecap="butt" stroke-linejoin="miter" stroke-miterlimit="10" stroke-dasharray="" stroke-dashoffset="0" style="mix-blend-mode: normal"><path d="M284.33721,170.27203c0,5.27128 1.4064,16.90209 -7.82149,22.19349c-11.51059,6.60034 -29.70518,4.92501 -49.24652,4.92501c-13.18437,0 -45.88159,2.26168 -56.04758,-0.04525c-16.98112,-3.85347 -8.36924,-21.07767 -8.36924,-28.48792c0,-6.90273 -6.48081,-19.72616 8.5721,-23.64969c10.78098,-2.81005 39.68191,-1.14143 54.37463,-1.14143c17.62152,0 37.82246,-2.94406 49.56211,1.78068c11.71589,4.71518 8.97599,18.50786 8.97599,24.42511z" stroke="#a2a2a2" stroke-width="2.5"/><path d="M193.32341,171.19615c0,14.46677 -10.88994,26.19439 -24.32336,26.19439c-13.43342,0 -24.32336,-11.72762 -24.32336,-26.19439c0,-14.46677 10.88994,-26.1944 24.32336,-26.1944c13.43343,0 24.32336,11.72763 24.32336,26.1944z" stroke="#a2a2a2" stroke-width="2.5"/><path d="M153.08905,217.99934c0,1.83478 -8.01452,-2.87117 -8.01452,-2.87117l-0.55511,-0.01844c-1.34909,-0.19597 -2.71634,-0.28411 -4.07959,-0.28815c-2.24734,-0.52527 -5.28559,-1.42503 -7.00984,-3.18713c-4.64505,-4.74704 -3.3297,-14.4827 0.43054,-19.26215c1.96412,-2.4965 4.43921,-3.46379 7.53634,-3.67279c0.55522,-0.03747 1.13311,0.22829 1.6678,0.07411c1.45217,-0.41874 3.62328,-2.62673 4.94277,-3.38457c0,0 0.17836,0.1507 1.08867,1.74374c0.91031,1.59304 0.73194,1.44234 0.73194,1.44234c-1.74352,0.99058 -3.82219,3.11094 -5.70001,3.71061c-2.0328,0.64917 -4.06178,-0.29224 -6.04229,0.96911c-1.00593,0.64066 -1.81537,2.05346 -2.28882,3.08036c-1.80512,3.91529 -2.0862,7.60825 -0.31539,11.40752c0.19801,0.42482 0.20573,0.97169 0.54321,1.29695c1.14341,1.10199 3.3217,1.82934 4.81547,2.13425c1.40301,-0.00445 2.8088,0.10759 4.19813,0.30312l0.03616,-0.01844c0,0 8.01452,4.70595 8.01452,6.54073z" stroke="#a2a2a2" stroke-width="1.5"/><text transform="translate(150.37324,218.26761) scale(0.5,0.5)" font-size="40" xml:space="preserve" fill="#ffffff" fill-rule="nonzero" stroke="#a2a2a2" stroke-width="2" stroke-linecap="butt" stroke-linejoin="miter" stroke-miterlimit="10" stroke-dasharray="" stroke-dashoffset="0" font-family="Handwriting" font-weight="normal" text-anchor="start" style="mix-blend-mode: normal"><tspan x="0" dy="0">RubiksRocker</tspan></text></g></g></svg>