<svg version="1.1" xmlns="http://www.w3.org/2000/svg" xmlns:xlink="http://www.w3.org/1999/xlink" width="53.76476" height="63.57303" viewBox="0,0,53.76476,63.57303"><g transform="translate(-213.11762,-148.21348)"><g data-paper-data="{&quot;isPaintingLayer&quot;:true}" fill-rule="nonzero" stroke="none" stroke-width="0.5" stroke-linecap="butt" stroke-linejoin="miter" stroke-miterlimit="10" stroke-dasharray="" stroke-dashoffset="0" style="mix-blend-mode: normal"><path d="M240.61193,167.65308c-0.62585,0 -1.01321,-0.23849 -1.25296,-0.53371c-0.80946,0.02124 -1.34625,-0.69449 -1.34625,-0.69449c-1.14384,-1.52513 -2.00815,-3.1897 -3.144,-4.71566c-0.66127,-0.88838 -1.50216,-1.47848 -2.27318,-2.24913c-0.84058,-0.84018 -1.6688,-1.69968 -2.74518,-2.27845c-0.92501,-0.49738 -1.85832,-0.76866 -2.81985,-1.15724c-1.73145,-0.2656 -3.36859,-0.36769 -5.1272,-0.36769c-0.23802,0 -0.47613,0.00631 -0.71407,0c-0.14408,-0.00382 -0.36255,-0.18101 -0.42911,-0.05316c-0.92772,1.7819 -2.37758,3.33895 -3.42024,5.06542c-0.30488,0.50483 -0.41512,1.24328 -0.67892,1.79636c0.00833,0.80015 -0.35654,1.46171 -0.26399,2.24104c0.38789,3.26643 1.5227,6.25217 2.49947,9.36938c0.35139,1.12142 0.7614,2.14994 1.13575,3.2642c0.21761,0.64771 0.32,1.34267 0.63499,1.94902c1.26924,2.44322 2.7762,4.84557 4.43342,7.05243c1.56319,2.34277 2.89783,4.85132 4.5593,7.12569c1.97205,2.69951 4.26258,5.15643 6.26296,7.82662c1.29356,1.7267 2.6145,3.42267 4.05624,5.0377c0.59297,0.66425 1.00592,1.40089 1.61175,2.03984c0.1663,-0.17739 0.45267,-0.39729 0.60785,-0.4986c0.22629,-0.14773 0.51426,-0.17542 0.75048,-0.30671c0.44537,-0.24753 0.9224,-0.43468 1.36933,-0.67939c0.42086,-0.23043 0.61853,-0.74276 0.99522,-1.03995c0.21792,-0.17193 0.49491,-0.2581 0.71407,-0.42844c0.70887,-0.55096 1.76965,-1.13288 2.36176,-1.80483c0.47764,-0.54204 0.57416,-1.43197 0.95145,-2.02611c0.9167,-1.44358 2.22585,-2.60774 3.11288,-4.09088c0.96267,-1.89013 2.17023,-3.64221 3.12809,-5.54402c0.75498,-1.49901 1.19385,-3.17411 1.79276,-4.71957c0.41615,-1.07386 1.10665,-2.08722 1.57095,-3.1419c0.34654,-0.78718 0.52713,-1.71588 0.83908,-2.52581c0.49631,-1.28863 1.02989,-2.44698 1.36486,-3.79246c0.5491,-2.47221 1.16843,-4.92255 1.54431,-7.42952c0.14264,-0.95135 0.14558,-1.92016 0.28794,-2.87155c0.34834,-2.32805 0.97795,-4.87145 0.44952,-7.23846c-0.18185,-0.81458 -0.27842,-1.66 -0.61785,-2.42028c-0.33792,-0.75694 -0.79188,-1.27491 -1.03414,-2.07806c-0.99636,-0.81184 -1.73652,-2.12216 -2.80406,-2.78525c-0.68199,-0.42361 -1.31448,-0.95218 -2.06245,-1.24388c-0.97039,-0.37844 -2.29389,-0.19043 -3.30494,-0.19043c-0.51894,0 -1.27186,-0.12354 -1.77713,0.06231c-1.6788,0.6175 -3.02116,1.91649 -4.67948,2.57062c-0.69719,0.58826 -1.69833,1.26488 -2.23517,2.00573c-0.60743,0.83827 -0.86891,1.65956 -1.15906,2.61299c-0.13372,0.43941 -0.44034,0.82084 -0.5328,1.27073c-0.09584,0.4663 0.08667,0.96005 0,1.42814c-0.27575,1.48924 -0.98512,2.84564 -0.97007,4.40227v0.14281c0,0 0,1.64236 -1.64236,1.64236zM239.4909,162.76366c0.17253,-0.63186 0.35844,-1.26371 0.50801,-1.91919c0.10589,-0.46412 -0.09236,-0.96114 0,-1.42814c0.10986,-0.55549 0.44963,-1.04239 0.60971,-1.58554c0.38589,-1.30934 0.84572,-2.55858 1.69722,-3.67082c0.81015,-1.05824 2.14965,-2.03694 3.19176,-2.84994c1.85996,-0.75368 3.379,-2.24509 5.31749,-2.85631c0.91664,-0.28903 1.85243,-0.22332 2.79291,-0.22332c1.42527,0 3.04452,-0.13915 4.40701,0.38083c2.73479,1.04371 4.63079,3.32035 6.5586,5.39658c0.34359,0.95883 0.85569,1.54798 1.25089,2.49198c0.42381,1.01234 0.59562,1.9679 0.81029,3.00664c0.58183,2.81537 0.01031,5.69416 -0.40736,8.47106c-0.14155,0.94111 -0.14209,1.89984 -0.28332,2.841c-0.39024,2.60058 -1.02744,5.14434 -1.59759,7.70875c-0.37274,1.48561 -0.94557,2.7838 -1.49141,4.20511c-0.32313,0.84141 -0.51822,1.79626 -0.87469,2.61549c-0.45762,1.05169 -1.16362,2.07339 -1.57095,3.1419c-0.62541,1.64058 -1.12889,3.39874 -1.9204,4.99177c-0.95292,1.91789 -2.22071,3.68087 -3.15572,5.59546c-0.52063,0.86577 -1.09263,1.71195 -1.71768,2.50741c-0.45825,0.58319 -1.05407,1.05982 -1.45325,1.68492c-0.51441,0.80555 -0.67199,1.78585 -1.33357,2.54393c-0.58338,0.66848 -1.49753,1.05236 -2.17777,1.59829c-0.84446,0.67774 -1.69383,1.69515 -2.60563,2.26918c-0.28709,0.18074 -0.65509,0.19074 -0.95809,0.34332c-1.73421,0.87325 -2.45848,2.1954 -4.84189,1.62353c-0.46289,-0.11106 -0.67803,-0.66834 -1.01704,-1.00252c-0.65357,-0.65951 -1.07683,-1.4407 -1.69681,-2.12296c-1.51557,-1.66781 -2.87892,-3.44945 -4.22696,-5.2449c-2.01721,-2.68671 -4.31757,-5.16459 -6.30466,-7.88291c-1.67047,-2.28519 -3.01225,-4.80075 -4.58078,-7.15569c-1.75829,-2.34724 -3.37402,-4.91133 -4.70666,-7.51459c-0.37462,-0.73182 -0.53524,-1.55475 -0.79315,-2.33539c-0.36882,-1.11635 -0.79887,-2.18075 -1.14927,-3.30524c-1.02265,-3.28185 -2.41455,-6.57483 -2.64184,-10.05331c-0.07787,-1.19181 0.29655,-2.03597 0.30727,-3.18588c0.30431,-0.82578 0.60315,-2.01427 1.03484,-2.77368c0.19158,-0.33701 0.52954,-0.57195 0.73816,-0.89868c0.34396,-0.53868 0.56352,-1.15267 0.92683,-1.67849c0.42369,-0.6132 1.02364,-1.13042 1.43651,-1.72549c0.40552,-0.58447 0.61306,-1.35552 1.19021,-1.7714c1.01921,-0.73442 1.99518,-0.62442 3.14124,-0.62442c2.06249,0 3.9836,0.13201 6.01228,0.48919c1.175,0.4655 2.34252,0.79528 3.46396,1.41342c1.36353,0.75158 2.4594,1.78309 3.53863,2.86285c0.88008,0.88051 1.81899,1.59486 2.5825,2.60654c0.73245,0.97055 1.34527,2.00334 1.99021,3.01966z" fill="#000000"/><path d="M242.25657,165.99662l-0.00003,-0.14281c-0.01505,-1.55663 0.69451,-2.91301 0.97026,-4.40224c0.08667,-0.46809 -0.09601,-0.96187 -0.00017,-1.42817c0.09247,-0.4499 0.3993,-0.83129 0.53302,-1.2707c0.29015,-0.95343 0.55202,-1.77465 1.15946,-2.61291c0.53684,-0.74085 1.53891,-1.41725 2.23609,-2.0055c1.65832,-0.65413 3.00236,-1.95253 4.68116,-2.57003c0.50527,-0.18585 1.25886,-0.06201 1.7778,-0.06201c1.01106,0 2.33573,-0.18738 3.30612,0.19106c0.74797,0.2917 1.38133,0.82085 2.06332,1.24445c1.06755,0.66309 1.80904,1.97447 2.8054,2.78631c0.24226,0.80315 0.69691,1.3218 1.03483,2.07873c0.33942,0.76029 0.43667,1.60646 0.61852,2.42104c0.52843,2.367 -0.09956,4.9128 -0.4479,7.24084c-0.14235,0.9514 -0.1447,1.92145 -0.28734,2.87281c-0.37588,2.50698 -0.99416,4.96142 -1.54326,7.43364c-0.33497,1.34548 -0.86853,2.50646 -1.36484,3.79509c-0.31194,0.80993 -0.49283,1.74051 -0.83936,2.5277c-0.4643,1.05468 -1.15558,2.07052 -1.57174,3.14438c-0.59892,1.54546 -1.03964,3.22376 -1.79462,4.72277c-0.95785,1.90182 -2.16846,3.65681 -3.13113,5.54694c-0.88702,1.48313 -2.19877,2.64876 -3.11547,4.09234c-0.3773,0.59415 -0.4747,1.48443 -0.95234,2.02646c-0.59212,0.67195 -1.65438,1.2543 -2.36325,1.80527c-0.21917,0.17034 -0.49656,0.2566 -0.71449,0.42853c-0.37669,0.2972 -0.57498,0.80963 -0.99583,1.04006c-0.44693,0.24471 -0.9247,0.43196 -1.37007,0.67949c-0.23622,0.13129 -0.52459,0.15901 -0.75087,0.30675c-0.15519,0.10131 -0.44187,0.32124 -0.60817,0.49862c-0.60583,-0.63894 -1.01959,-1.37558 -1.61256,-2.03982c-1.44173,-1.61503 -2.76535,-3.31126 -4.05891,-5.03795c-2.00038,-2.67019 -4.2969,-5.12978 -6.26895,-7.8293c-1.66147,-2.27437 -3.00056,-4.78862 -4.56375,-7.13139c-1.65722,-2.20686 -3.16535,-4.61533 -4.43458,-7.05854c-0.315,-0.60634 -0.41727,-1.30268 -0.63488,-1.95039c-0.37436,-1.11426 -0.78396,-2.14477 -1.13535,-3.26618c-0.97676,-3.11721 -2.10981,-6.10687 -2.4977,-9.3733c-0.09254,-0.77934 0.27289,-1.44171 0.26456,-2.24186c0.2638,-0.55309 0.37459,-1.29222 0.67948,-1.79705c1.04266,-1.72647 2.49453,-3.28547 3.42226,-5.06737c0.06656,-0.12784 0.28514,0.04926 0.42923,0.05308c0.23794,0.00631 0.47626,-0.00016 0.71428,-0.00016c1.7586,0 3.39747,0.10099 5.12892,0.36659c0.96153,0.38857 1.89582,0.65936 2.82084,1.15675c1.07638,0.57877 1.90556,1.43789 2.74614,2.27806c0.77102,0.77064 1.61289,1.36043 2.27416,2.24881c1.13586,1.52596 2.00194,3.19015 3.14579,4.71528c0,0 0.53815,0.71559 1.34762,0.69435c0.23975,0.29522 0.62853,0.53371 1.25439,0.53371c1.64236,0 1.64393,-1.6422 1.64393,-1.6422z" data-paper-data="{&quot;noHover&quot;:false,&quot;origItem&quot;:[&quot;Path&quot;,{&quot;applyMatrix&quot;:true,&quot;segments&quot;:[[[220.75,123.75],[5.75,0],[-2.19115,0]],[[216.36331,121.88144],[0.83937,1.03359],[-2.83397,0.07435]],[[211.65,119.45],[0,0],[-4.00467,-5.33957]],[[200.64266,102.94019],[3.97671,5.34248],[-2.31515,-3.11027]],[[192.68414,95.06586],[2.69938,2.69805],[-2.94294,-2.9415]],[[183.07309,87.08888],[3.76849,2.02631],[-3.23854,-1.74136]],[[173.20063,83.03732],[3.36639,1.36042],[-6.06192,-0.92988]],[[155.25,81.75],[6.15697,0],[-0.83333,0]],[[152.75,81.75],[0.83304,0.02209],[-0.50443,-0.01338]],[[151.24765,81.56387],[0.23303,-0.44758],[-3.24802,6.23855]],[[139.2732,99.2982],[3.6504,-6.04447],[-1.06741,1.76746]],[[136.89625,105.58737],[0.92359,-1.93639],[0.02917,2.80137]],[[135.97202,113.43341],[-0.32401,-2.72851],[1.35804,11.43598]],[[144.72279,146.23617],[-3.41969,-10.91354],[1.23023,3.92614]],[[148.69911,157.66433],[-1.31065,-3.90109],[0.76187,2.26766]],[[150.92226,164.48798],[-1.10281,-2.12286],[4.44367,8.55384]],[[166.44395,189.17896],[-5.80204,-7.72634],[5.47283,8.20218]],[[182.40635,214.12644],[-5.81691,-7.9627],[6.90426,9.45116]],[[204.33334,241.5279],[-7.00347,-9.3485],[4.52883,6.04527]],[[218.53449,259.1652],[-5.0476,-5.65434],[2.07602,2.32556]],[[224.17733,266.30681],[-2.12105,-2.23698],[0.58224,-0.62107]],[[226.30545,264.56116],[-0.54332,0.3547],[0.79226,-0.51721]],[[228.93293,263.48735],[-0.827,0.45963],[1.55927,-0.86662]],[[233.72705,261.10876],[-1.56472,0.85674],[1.47344,-0.80676]],[[237.21138,257.46782],[-1.31881,1.04049],[0.76296,-0.60195]],[[239.71138,255.96782],[-0.76731,0.59638],[2.48181,-1.92895]],[[247.98007,249.649],[-2.07305,2.35253],[1.67224,-1.89769]],[[251.31116,242.55545],[-1.32093,2.08014],[3.20943,-5.05406]],[[262.20952,228.23305],[-3.10553,5.19255],[3.37037,-6.61746]],[[273.16112,208.82309],[-3.3535,6.65838],[2.64322,-5.24811]],[[279.43769,192.29957],[-2.09683,5.41076],[1.45697,-3.75963]],[[284.93769,181.29957],[-1.62554,3.69252],[1.21325,-2.75598]],[[287.87535,172.45656],[-1.09213,2.83563],[1.7376,-4.51156]],[[292.65382,159.17892],[-1.17276,4.7106],[1.92242,-8.65538]],[[298.06055,133.16772],[-1.31599,8.77707],[0.49939,-3.33074]],[[299.06864,123.11422],[-0.49839,3.33089],[1.21956,-8.15063]],[[300.64245,97.77194],[1.85005,8.28703],[-0.63667,-2.8519]],[[298.47933,89.29838],[1.18833,2.66181],[-1.18309,-2.65008]],[[294.85876,82.02295],[0.84815,2.8119],[-3.48832,-2.84231]],[[285.04156,72.27163],[3.73754,2.32152],[-2.38768,-1.48307]],[[277.82081,67.91671],[2.61869,1.02126],[-3.39739,-1.32494]],[[266.25,67.25],[3.53978,0],[-1.81684,0]],[[260.02815,67.46815],[1.76899,-0.65068],[-5.87759,2.16192]],[[243.64502,76.46803],[5.80587,-2.29015],[-2.44089,2.05953]],[[235.81956,83.49021],[1.87951,-2.59377],[-2.12664,2.93483]],[[231.76162,92.63844],[1.01584,-3.33801],[-0.46817,1.53839]],[[229.89625,97.08737],[0.32374,-1.57513],[-0.33554,1.63254]],[[229.89625,102.08737],[0.30344,-1.63881],[-0.9654,5.2139]],[[226.5,117.5],[-0.05271,-5.44987],[0,0]],[226.5,118]],&quot;closed&quot;:true}]}" fill="#ff0000"/></g></g></svg>