<svg xmlns="http://www.w3.org/2000/svg" xmlns:xlink="http://www.w3.org/1999/xlink" width="107.434" height="55.23" version="1.1"><g><g font-family="none" font-size="none" font-weight="none" style="mix-blend-mode:normal" fill="none" fill-rule="nonzero" stroke="none" stroke-dashoffset="0" stroke-linecap="butt" stroke-linejoin="miter" stroke-miterlimit="10" stroke-width="none" data-paper-data="{&quot;isPaintingLayer&quot;:true}" text-anchor="none" transform="translate(-185.72 -151.785)"><g id="ID0.7165977717377245"><path id="ID0.2890377463772893" fill="#285556" stroke-width=".771" d="M 272.427 206.95 c 0 0.0069 0 0.0162 0 0.027 c 0 0.0107 0 0.02 0 0.0269 c 0 0.007 0 0.0116 0 0.0116 c 0 0 0 -0.0046 0 -0.0116 c 0 -0.0069 0 -0.0162 0 -0.0269 c 0 -0.0108 0 -0.0201 0 -0.027 c 0 -0.0069 0 -0.0116 0 -0.0116 c 0 0 0 0.0047 0 0.0116 Z"/><g id="ID0.5517641957849264"><path id="ID0.34936244366690516" fill="#fff266" stroke-width=".794" d="M 202.189 153.168 c 0.8432 0.8085 1.365 1.9246 1.365 3.156 c 0 1.2314 -0.5218 2.3475 -1.365 3.1559 c -0.8439 0.8085 -2.0086 1.3085 -3.2935 1.3085 c -1.285 0 -2.4497 -0.5 -3.2936 -1.3085 c -0.8432 -0.8084 -1.365 -1.9245 -1.365 -3.1559 c 0 -1.2314 0.5218 -2.3475 1.365 -3.156 c 0.8439 -0.8085 2.0086 -1.3085 3.2936 -1.3085 c 1.2849 0 2.4496 0.5 3.2935 1.3085 Z"/><path id="ID0.34936244366690516" fill="#fff266" stroke-width=".794" d="M 202.189 189.922 c 0.8432 0.8084 1.365 1.9245 1.365 3.1559 c 0 1.2314 -0.5218 2.3475 -1.365 3.156 c -0.8439 0.8085 -2.0086 1.3085 -3.2935 1.3085 c -1.285 0 -2.4497 -0.5 -3.2936 -1.3085 c -0.8432 -0.8085 -1.365 -1.9246 -1.365 -3.156 c 0 -1.2314 0.5218 -2.3475 1.365 -3.1559 c 0.8439 -0.8085 2.0086 -1.3085 3.2936 -1.3085 c 1.2849 0 2.4496 0.5 3.2935 1.3085 Z"/><path id="ID0.6116088633425534" fill="#fff266" stroke-width=".776" d="M 200.86 192.156 h -6.5996 v -36.4919 h 6.5996 Z"/><path id="ID0.7551982072182" fill="#1b9971" stroke-width=".776" d="M 186.108 180.898 h -0.3882 v 0 Z"/><path id="ID0.33998720813542604" fill="#1b9971" stroke-width=".776" d="M 196.978 154.112 h -0.3882 v 0 Z"/></g><g id="ID0.5517641957849264"><path id="ID0.34936244366690516" fill="#fff266" stroke-width=".788" d="M 280.055 152.028 c 1.2752 0 2.431 0.4962 3.2686 1.2985 c 0.8368 0.8024 1.3546 1.91 1.3546 3.132 c 0 1.222 -0.5178 2.3297 -1.3546 3.132 c -0.8376 0.8023 -1.9934 1.2985 -3.2686 1.2985 c -1.2752 0 -2.431 -0.4962 -3.2686 -1.2985 c -0.8367 -0.8023 -1.3545 -1.91 -1.3545 -3.132 c 0 -1.222 0.5178 -2.3296 1.3545 -3.132 c 0.8376 -0.8023 1.9934 -1.2985 3.2686 -1.2985 Z"/><path id="ID0.34936244366690516" fill="#fff266" stroke-width=".788" d="M 280.055 188.474 c 1.2752 0 2.431 0.4962 3.2686 1.2986 c 0.8368 0.8023 1.3546 1.9099 1.3546 3.1319 c 0 1.2221 -0.5178 2.3297 -1.3546 3.132 c -0.8376 0.8023 -1.9934 1.2985 -3.2686 1.2985 c -1.2752 0 -2.431 -0.4962 -3.2686 -1.2985 c -0.8367 -0.8023 -1.3545 -1.9099 -1.3545 -3.132 c 0 -1.222 0.5178 -2.3296 1.3545 -3.1319 c 0.8376 -0.8024 1.9934 -1.2986 3.2686 -1.2986 Z"/><path id="ID0.6116088633425534" fill="#fff266" stroke-width=".771" d="M 278.128 155.814 h 6.5495 v 36.2147 h -6.5495 Z"/><path id="ID0.7551982072182" fill="#1b9971" stroke-width=".771" d="M 293.154 180.856 v 0 h -0.386 Z"/><path id="ID0.33998720813542604" fill="#1b9971" stroke-width=".771" d="M 281.981 154.273 h 0.3853 v 0 Z"/></g><path id="ID0.4095125859603286" fill="#fff266" stroke-width=".583" d="M 200.395 152.039 h 78.6324 v 45.4611 h -78.6324 Z"/></g><text font-family="Sans Serif" font-size="40" font-weight="normal" style="mix-blend-mode:normal" fill="#000" fill-rule="nonzero" stroke="none" stroke-dashoffset="0" stroke-linecap="butt" stroke-linejoin="miter" stroke-miterlimit="10" stroke-width="1" text-anchor="start" transform="translate(213 179.66) scale(0.5)" xml:space="preserve"><tspan x="0" dy="0">Reset</tspan></text></g></g></svg>