<svg xmlns="http://www.w3.org/2000/svg" width="1086" height="768" xmlns:xlink="http://www.w3.org/1999/xlink" version="1.1"><g transform="translate(303 204)"><g font-family="none" font-size="none" font-weight="none" style="mix-blend-mode: normal" fill="#000000" fill-rule="nonzero" stroke="none" stroke-dasharray="" stroke-dashoffset="0" stroke-linecap="butt" stroke-linejoin="miter" stroke-miterlimit="10" stroke-width="none" text-anchor="none" data-paper-data="{&quot;isPaintingLayer&quot;:true}"><path stroke="#000000" stroke-width="2" d="M -302 563 v -558 h 1084 v 558 Z" /><path stroke="none" stroke-width="0.5" d="M -80.067 3.31438 c -0.10565 0.04576 -0.17105 0.06669 -0.17105 0.06669 l 0.02323 -0.47621 l -0.45858 -1.2704 c -10.554 3.14655 -20.9349 6.79888 -31.0556 11.2301 c -5.45045 2.38643 -10.9316 4.69862 -16.5965 6.54274 c -5.94922 1.93665 -12.18 3.0489 -18.1036 5.05693 c -3.0313 1.02758 -5.84748 2.18186 -8.96452 2.96112 c 0 0 -2.42536 0.60634 -3.0317 -1.81902 c -0.60634 -2.42536 1.81902 -3.0317 1.81902 -3.0317 c 3.77108 -0.94277 7.24989 -2.45686 10.9816 -3.51334 c 10.9193 -3.09132 21.4748 -6.21665 31.8903 -10.7769 c 9.5533 -4.18282 19.3356 -7.68631 29.2746 -10.7286 c -0.01445 -0.01673 -0.02787 -0.03528 -0.04018 -0.05579 h -1.5 c 0.24362 -0.81208 0.39341 -1.66561 0.58653 -2.5 c -0.19312 -0.83439 -0.3429 -1.68792 -0.58653 -2.5 h 1.5 c 0.22967 -0.38279 0.84635 -0.08206 1.33175 -0.01319 c 1.90644 -0.0339 3.85184 -0.11669 5.76034 -0.04771 c 1.48034 -0.03752 2.96668 -0.05838 4.40791 0.0609 c 1.34621 0.11142 2.66448 0.37435 3.96855 0.70373 c 1.47256 -0.38359 2.94767 -0.75972 4.42511 -1.12909 c 2.26534 -0.56634 4.34748 -0.26475 6.60634 -0.57464 c 0.78438 -0.10761 1.42836 -0.74225 2.20943 -0.87171 c 4.85304 -0.8044 10.3859 -0.12829 15.2906 -0.12829 c 4.22286 0 8.71178 -0.4905 12.7906 0.62829 c 2.41883 0.80628 3.50968 2.70147 5.4772 4.10394 c 2.13592 1.52251 5.14317 2.03905 7.35027 3.5317 c 0.97554 0.65975 1.57946 1.79895 2.57446 2.42257 c 0.12927 0.00392 0.25854 0.00783 0.38781 0.01175 c 2.49885 0.07572 4.99772 0.15086 7.49656 0.22717 c 0.80772 0.02466 1.61518 0.05922 2.42313 0.07458 c 0.01084 0.00021 0.02179 0.0002 0.03286 0 c 0.48905 0 0.9781 0 1.46714 0 c 0.45904 0.76507 0.71025 1.62194 0.91347 2.5 c -0.20322 0.87806 -0.45443 1.73493 -0.91347 2.5 c -0.41297 0 -0.8401 0.00942 -1.27811 0.02455 c -0.07738 -0.0139 -0.15201 -0.02323 -0.22189 -0.02455 c -0.85842 -0.01619 -1.71639 -0.05106 -2.57458 -0.07687 c -2.49887 -0.07516 -4.99771 -0.15145 -7.49656 -0.22717 c -0.09989 -0.00303 -0.19977 -0.00605 -0.29966 -0.00908 c -0.31568 -0.0909 -0.62277 -0.19539 -0.91978 -0.31517 c -2.40832 -0.97124 -2.14724 -1.54062 -3.82746 -2.63564 c -1.45521 -0.94838 -3.08348 -1.62253 -4.68893 -2.33743 c 3.16649 0.09595 6.33297 0.19191 9.49946 0.28786 c 0.02484 0.01557 0.04993 0.03082 0.07527 0.04573 c 0.9395 0.55283 3.09185 0.26777 4.23223 0.26777 c 2.01095 0 4.0219 0 6.03286 0 c 0.49904 -0.0091 1.21548 -0.41945 1.46714 0 h 1.5 c -0.24362 0.81208 -0.39341 1.66561 -0.58653 2.5 c 0.19312 0.83439 0.3429 1.68792 0.58653 2.5 h -1.5 c -0.22129 0.36881 -0.8019 0.11009 -1.27811 0.02455 c -3.38614 0.11696 -7.42236 0.57523 -10.5927 -0.33766 c -4.89782 -0.14842 -9.79564 -0.29684 -14.6935 -0.44526 c -2.51664 -0.07626 -5.53197 0.27725 -8.01147 -0.24277 c -3.78874 -0.79461 -7.52789 -3.29127 -11.4243 -2.99885 c -0.53057 0 -1.06133 -0.02272 -1.59218 -0.0644 c -0.93317 0.05094 -1.89249 0.0644 -2.90782 0.0644 c -7.09486 0 -14.9996 -1.02903 -22 0 c -1.92346 0.28274 -3.49446 0.92893 -5.5 1 c -0.5 0 -1 0 -1.5 0 Z M -40.261 -1.15758 c 1.71269 0.58319 3.41733 1.2285 5.33692 1.65873 c 2.45138 0.54943 5.51841 0.16722 8.01147 0.24277 c 1.70195 0.05157 3.4039 0.10315 5.10585 0.15472 c -1.37842 -0.6138 -2.74001 -1.25764 -3.96081 -2.13087 c -1.93354 -1.38306 -1.33034 -2.16524 -3.5228 -2.89606 c -2.38214 -1.24813 -7.00805 -0.37171 -9.70943 -0.37171 c -4.75656 0 -10.5532 -0.91165 -15.2094 -0.12829 c -0.51687 0.08696 -1.01574 0.25293 -1.51119 0.43334 c 4.70681 0.11808 9.58441 -0.30505 14.2206 -0.30505 h 1.5 c -0.14522 1.09956 -0.13975 2.23689 -0.26119 3.34241 Z" /><path stroke="#000000" stroke-width="2" d="M -298 54.0704 v -257.07 h 624 v 257.07 Z" /><path stroke="#000000" stroke-width="2" d="M -84.3746 359.122 v -562.122 h 567 v 562.122 Z" data-paper-data="{&quot;origPos&quot;:null}" /></g></g></svg>