<svg xmlns="http://www.w3.org/2000/svg" width="107.493" height="55.2754" xmlns:xlink="http://www.w3.org/1999/xlink" version="1.1"><g transform="translate(-217.486 -94.1817)"><g font-family="none" font-size="none" font-weight="none" style="mix-blend-mode: normal" fill="none" fill-rule="nonzero" stroke="none" stroke-dasharray="" stroke-dashoffset="0" stroke-linecap="butt" stroke-linejoin="miter" stroke-miterlimit="10" stroke-width="none" text-anchor="none" data-paper-data="{&quot;isPaintingLayer&quot;:true}"><path id="ID0.2890377463772893" fill="#285556" stroke-width="0.77053" d="M 304.256 149.38 c 0 0 0 0.0047 0 0.0116 c 0 0.0069 0 0.0162 0 0.027 c 0 0.0108 0 0.02 0 0.0269 c 0 0.007 0 0.0116 0 0.0116 c 0 0 0 -0.0046 0 -0.0116 c 0 -0.0069 0 -0.0161 0 -0.0269 c 0 -0.0108 0 -0.0201 0 -0.027 c 0 -0.0069 0 -0.0116 0 -0.0116 Z" /><g id="ID0.5517641957849264"><path id="ID0.34936244366690516" fill="#000000" stroke-width="0.79427" d="M 233.923 95.4901 c 0.8432 0.8085 1.365 1.9246 1.365 3.156 c 0 1.2314 -0.5218 2.3475 -1.365 3.1559 c -0.844 0.8085 -2.0086 1.3085 -3.2936 1.3085 c -1.285 0 -2.4496 -0.5 -3.2936 -1.3085 c -0.8432 -0.8084 -1.3649 -1.9245 -1.3649 -3.1559 c 0 -1.2314 0.5217 -2.3475 1.3649 -3.156 c 0.844 -0.8084 2.0086 -1.3084 3.2936 -1.3084 c 1.285 0 2.4496 0.5 3.2936 1.3084 Z" /><path id="ID0.34936244366690516" fill="#000000" stroke-width="0.79427" d="M 233.923 132.24 c 0.8432 0.8085 1.365 1.9246 1.365 3.156 c 0 1.2314 -0.5218 2.3475 -1.365 3.1559 c -0.844 0.8085 -2.0086 1.3085 -3.2936 1.3085 c -1.285 0 -2.4496 -0.5 -3.2936 -1.3085 c -0.8432 -0.8084 -1.3649 -1.9245 -1.3649 -3.1559 c 0 -1.2314 0.5217 -2.3475 1.3649 -3.156 c 0.844 -0.8084 2.0086 -1.3084 3.2936 -1.3084 c 1.285 0 2.4496 0.5 3.2936 1.3084 Z" /><path id="ID0.6116088633425534" fill="#000000" stroke-width="0.77642" d="M 232.626 134.488 h -6.5996 v -36.4919 h 6.5996 Z" /><path id="ID0.7551982072182" fill="#1b9971" stroke-width="0.77642" d="M 217.874 123.23 h -0.3882 v 0 Z" /><path id="ID0.33998720813542604" fill="#000000" stroke-width="0.77642" d="M 228.356 96.4437 v 0 h 0.3882 Z" /></g><g id="ID0.5517641957849264"><path id="ID0.34936244366690516" fill="#000000" stroke-width="0.78823" d="M 311.862 94.3494 c 1.2753 0 2.4311 0.4962 3.2686 1.2985 c 0.8368 0.8024 1.3546 1.91 1.3546 3.132 c 0 1.222 -0.5178 2.3297 -1.3546 3.132 c -0.8375 0.8023 -1.9933 1.2985 -3.2686 1.2985 c -1.2752 0 -2.431 -0.4962 -3.2685 -1.2985 c -0.8368 -0.8023 -1.3546 -1.91 -1.3546 -3.132 c 0 -1.222 0.5178 -2.3296 1.3546 -3.132 c 0.8375 -0.8023 1.9933 -1.2985 3.2685 -1.2985 Z" /><path id="ID0.34936244366690516" fill="#000000" stroke-width="0.78823" d="M 311.862 130.799 c 1.2753 0 2.4311 0.4962 3.2686 1.2985 c 0.8368 0.8024 1.3546 1.91 1.3546 3.132 c 0 1.222 -0.5178 2.3297 -1.3546 3.132 c -0.8375 0.8023 -1.9933 1.2985 -3.2686 1.2985 c -1.2752 0 -2.431 -0.4962 -3.2685 -1.2985 c -0.8368 -0.8023 -1.3546 -1.91 -1.3546 -3.132 c 0 -1.222 0.5178 -2.3296 1.3546 -3.132 c 0.8375 -0.8023 1.9933 -1.2985 3.2685 -1.2985 Z" /><path id="ID0.6116088633425534" fill="#000000" stroke-width="0.77053" d="M 309.953 98.1327 h 6.5495 v 36.2148 h -6.5495 Z" /><path id="ID0.7551982072182" fill="#1b9971" stroke-width="0.77053" d="M 324.593 123.175 h 0.386 v 0 Z" /><path id="ID0.33998720813542604" fill="#ffff3d" stroke-width="0.77053" d="M 314.191 96.5917 v 0 h -0.3852 Z" /></g><path id="ID0.4095125859603286" fill="#000000" stroke-width="0.58301" d="M 232.168 94.3569 h 78.6323 v 45.4611 h -78.6323 Z" /><path id="ID0.9479211689904332" fill="#f9ff43" stroke-width="1.05203" d="M 256.462 122.203 h -6.1144 v -13.972 h 5.44 c 0.9426 0 1.7538 0.1146 2.4334 0.345 c 0.6901 0.2189 1.2056 0.5261 1.5454 0.9206 c 0.6354 0.7122 0.9531 1.5233 0.9531 2.4333 c 0 1.0952 -0.345 1.9063 -1.0352 2.4323 c -0.2524 0.1862 -0.4281 0.3072 -0.526 0.3619 c -0.0883 0.0442 -0.2525 0.1199 -0.4934 0.2304 c 0.8658 0.1862 1.5507 0.5755 2.0546 1.1667 c 0.5155 0.5923 0.7722 1.3256 0.7722 2.203 c 0 0.9752 -0.3282 1.8357 -0.9857 2.5806 c -0.789 0.8658 -2.1367 1.2982 -4.044 1.2982 Z M 252.698 114.034 h 3.0078 c 1.699 0 2.548 -0.5807 2.548 -1.7432 c 0 -0.6681 -0.2083 -1.1446 -0.6249 -1.4297 c -0.4051 -0.2957 -1.0405 -0.444 -1.9063 -0.444 h -3.0246 Z M 252.698 120.017 h 3.6989 c 0.8648 0 1.5286 -0.1315 1.9884 -0.3945 c 0.4608 -0.2736 0.6901 -0.7943 0.6901 -1.5613 c 0 -1.2382 -0.991 -1.8578 -2.9751 -1.8578 h -3.4023 Z M 272.506 122.203 h -2.0388 v -1.4129 c -0.8879 1.052 -2.0715 1.5781 -3.5506 1.5781 c -1.1067 0 -2.022 -0.3125 -2.7448 -0.9374 c -0.7238 -0.6354 -1.0856 -1.4739 -1.0856 -2.5154 c 0 -1.0405 0.3839 -1.819 1.1509 -2.3334 c 0.7785 -0.526 1.8252 -0.789 3.1403 -0.789 h 2.9088 v -0.4114 c 0 -1.4139 -0.789 -2.1209 -2.367 -2.1209 c -0.9858 0 -2.0105 0.3619 -3.0741 1.0857 l -1.0025 -1.3981 c 1.2929 -1.03 2.7615 -1.5444 4.4059 -1.5444 c 1.2487 0 2.2681 0.3177 3.0572 0.9531 c 0.7995 0.6355 1.2003 1.6328 1.2003 2.992 Z M 270.253 118.243 v -0.8879 h -2.5154 c -1.6106 0 -2.4165 0.5039 -2.4165 1.5117 c 0 0.5155 0.1978 0.9101 0.5923 1.1836 c 0.405 0.2746 0.9647 0.4113 1.6769 0.4113 c 0.7123 0 1.3309 -0.1967 1.8569 -0.5912 c 0.5376 -0.4061 0.8058 -0.9489 0.8058 -1.6275 Z M 280.114 122.369 c -1.4791 0 -2.7511 -0.505 -3.8136 -1.5129 c -1.0626 -1.0078 -1.5949 -2.3228 -1.5949 -3.9451 c 0 -1.6327 0.5534 -2.9583 1.6601 -3.9777 c 1.1183 -1.0194 2.4776 -1.5286 4.0766 -1.5286 c 1.6002 0 2.9541 0.5534 4.0609 1.6601 l -1.3151 1.6275 c -0.9205 -0.8006 -1.8526 -1.2004 -2.7942 -1.2004 c -0.9321 0 -1.7432 0.3125 -2.4333 0.9374 c -0.6796 0.6133 -1.0194 1.4129 -1.0194 2.3997 c 0 0.9752 0.3398 1.8021 1.0194 2.4817 c 0.6796 0.6796 1.5128 1.0194 2.4986 1.0194 c 0.9973 0 1.9399 -0.4545 2.8278 -1.3645 l 1.3151 1.4466 c -1.294 1.3045 -2.789 1.9568 -4.488 1.9568 Z M 288.953 122.203 h -2.2514 v -14.8263 h 2.2514 v 8.7119 l 4.307 -4.5206 h 2.8762 l -4.0271 4.225 l 4.3396 6.41 h -2.729 l -3.1561 -4.6521 l -1.6106 1.6275 Z" /></g></g></svg>