<svg version="1.1" xmlns="http://www.w3.org/2000/svg" xmlns:xlink="http://www.w3.org/1999/xlink" width="220.99305" height="83.7"><g transform="translate(-150.02689,-136.97824)"><g data-paper-data="{&quot;isPaintingLayer&quot;:true}" fill="none" fill-rule="nonzero" stroke="none" stroke-width="none" stroke-linecap="none" stroke-linejoin="miter" stroke-miterlimit="10" stroke-dasharray="" stroke-dashoffset="0" font-family="none" font-weight="none" font-size="none" text-anchor="none" style="mix-blend-mode: normal"><path d="M193.83869,136.97824c12.0879,0 23.0408,4.6898 30.9707,12.266c7.9313,7.5748 12.841,18.0373 12.841,29.584c0,11.5467 -4.9097,22.0092 -12.841,29.584c-7.9299,7.5762 -18.8828,12.266 -30.9707,12.266c-12.088,0 -23.0409,-4.6898 -30.9708,-12.266c-7.9313,-7.5748 -12.841,-18.0373 -12.841,-29.584c0,-11.5467 4.9097,-22.0092 12.841,-29.584c7.9299,-7.5762 18.8828,-12.266 30.9708,-12.266z" data-paper-data="{&quot;origPos&quot;:null}" id="ID0.7864814498461783" fill="#000000" stroke-width="1.33882" stroke-linecap="butt"/><g data-paper-data="{&quot;origPos&quot;:null}" id="ID0.5106196347624063" fill="#ffffff"><path d="M176.00512,188.68031l-0.4779,0.4744l27.0023,-31.2568l0.4572,41.693l-9.0947,-16.8631z" id="ID0.8455575481057167" stroke-width="0.98506" stroke-linecap="round"/><path d="M177.93182,187.10641c0.5114,0.1903 0.9224,0.5015 1.1745,0.851c0.2521,0.3495 0.344,0.7376 0.2166,1.0798c-0.1273,0.3421 -0.4505,0.5758 -0.8698,0.6754c-0.4192,0.0997 -0.9337,0.0665 -1.4451,-0.1238c-0.5114,-0.1904 -0.9224,-0.5016 -1.1745,-0.851c-0.2521,-0.3495 -0.3439,-0.7376 -0.2166,-1.0798c0.1273,-0.3422 0.4506,-0.5758 0.8698,-0.6755c0.4192,-0.0996 0.9337,-0.0664 1.4451,0.1239z" id="ID0.33990809274837375" stroke-width="0.98506" stroke-linecap="butt"/><path d="M202.76542,157.4214c0.5114,0.1903 0.9224,0.5016 1.1745,0.851c0.2521,0.3495 0.344,0.7376 0.2166,1.0798c-0.1273,0.3422 -0.4505,0.5758 -0.8698,0.6755c-0.4192,0.0996 -0.9337,0.0664 -1.4451,-0.1239c-0.5114,-0.1903 -0.9224,-0.5016 -1.1745,-0.851c-0.2521,-0.3495 -0.3439,-0.7376 -0.2166,-1.0798c0.1273,-0.3422 0.4506,-0.5758 0.8698,-0.6755c0.4192,-0.0996 0.9337,-0.0664 1.4451,0.1239z" id="ID0.33990809274837375" stroke-width="0.98506" stroke-linecap="butt"/><path d="M202.76542,196.63951c0.5114,0.1903 0.9224,0.5015 1.1745,0.851c0.2521,0.3495 0.344,0.7376 0.2166,1.0798c-0.1273,0.3422 -0.4505,0.5758 -0.8698,0.6754c-0.4192,0.0997 -0.9337,0.0665 -1.4451,-0.1238c-0.5114,-0.1903 -0.9224,-0.5016 -1.1745,-0.851c-0.2521,-0.3495 -0.3439,-0.7376 -0.2166,-1.0798c0.1273,-0.3422 0.4506,-0.5758 0.8698,-0.6755c0.4192,-0.0996 0.9337,-0.0664 1.4451,0.1239z" id="ID0.33990809274837375" stroke-width="0.98506" stroke-linecap="butt"/><path d="M177.66872,187.65861l14.9632,-6.5189l1.4409,1.7972l-15.4191,6.61z" id="ID0.4083744096569717" stroke-width="0.98506" stroke-linecap="round"/><path d="M194.32582,182.79141l8.6345,12.4309l-1.2016,3.5529l-1.3467,-1.2403z" id="ID0.3794990433380008" stroke-width="0.98506" stroke-linecap="round"/><path d="M177.84642,187.33381l25.1872,-28.7096l-8.8939,24.3114l-14.0442,4.1282z" id="ID0.2798636956140399" stroke-width="1.25406" stroke-linecap="round"/><path d="M202.78032,159.30481l0.6283,-1.4821l0.7807,0.7887l-0.0944,39.4317l-9.4748,-16.8108z" id="ID0.09887810610234737" stroke-width="1.25406" stroke-linecap="round"/><path d="M200.72622,157.54781l1.2359,2.4526l-22.6273,28.2231l-3.5149,-0.8652z" id="ID0.6009495295584202" stroke-width="1.25406" stroke-linecap="round"/><path d="M201.88982,195.45481l2.022,0.7525l-0.4523,1.2155l-2.0221,-0.7525z" id="ID0.8687255987897515" stroke-width="1.25406" stroke-linecap="butt"/></g><text transform="translate(240.21396,166.88453) scale(0.41003,0.41003)" font-size="40" xml:space="preserve" data-paper-data="{&quot;origPos&quot;:null}" fill="#000000" fill-rule="nonzero" stroke="none" stroke-width="1" stroke-linecap="butt" stroke-linejoin="miter" stroke-miterlimit="10" stroke-dasharray="" stroke-dashoffset="0" font-family="Sans Serif" font-weight="normal" text-anchor="start" style="mix-blend-mode: normal"><tspan x="0" dy="0">Swiss</tspan><tspan x="0" dy="46.150000000000006px">+1 per sec</tspan><tspan x="0" dy="46.150000000000006px">Cost: 250 cheese</tspan></text></g></g></svg>