<svg version="1.1" xmlns="http://www.w3.org/2000/svg" xmlns:xlink="http://www.w3.org/1999/xlink" width="507.998" height="366.998"><g data-paper-data="{&quot;isPaintingLayer&quot;:true}" fill="none" fill-rule="nonzero" stroke="none" stroke-width="none" stroke-linecap="butt" stroke-linejoin="miter" stroke-miterlimit="10" stroke-dasharray="" stroke-dashoffset="0" font-family="none" font-weight="none" font-size="none" text-anchor="none" style="mix-blend-mode: normal"><path d="M0,0h507.998v366.998h-507.998z" id="ID0.9104060241952538" fill="#faff73" stroke-width="1.03907"/><path d="M212.076,19.2716c-1.316,0 -2.407,0.2749 -3.276,0.8266c-0.849,0.5313 -1.272,1.3476 -1.272,2.449c0,1.083 0.423,1.9197 1.272,2.5142c0.869,0.572 2.683,1.197 5.44,1.877c2.776,0.6575 4.865,1.6001 6.266,2.8297c1.398,1.2092 2.099,2.9905 2.099,5.3439c0,2.3554 -0.89,4.2731 -2.671,5.7571c-1.761,1.4637 -4.094,2.1966 -6.999,2.1966c-4.221,0 -7.962,-1.4637 -11.23,-4.3911l2.865,-3.4344c2.734,2.3737 5.565,3.5626 8.493,3.5626c1.462,0 2.628,-0.3176 3.497,-0.9548c0.87,-0.6351 1.305,-1.4739 1.305,-2.5121c0,-1.0403 -0.413,-1.8464 -1.239,-2.4185c-0.807,-0.5944 -2.207,-1.1237 -4.2,-1.5899c-1.973,-0.4886 -3.477,-0.9324 -4.518,-1.3355c-1.018,-0.4031 -1.93,-0.9222 -2.734,-1.5594c-1.592,-1.2092 -2.386,-3.0638 -2.386,-5.5658c0,-2.504 0.9,-4.4319 2.704,-5.7897c1.824,-1.3579 4.082,-2.0358 6.775,-2.0358c1.718,0 3.424,0.2871 5.122,0.8591c1.716,0.5721 3.19,1.368 4.42,2.3859l-2.45,3.4669c-0.783,-0.7206 -1.864,-1.3151 -3.242,-1.7812c-1.358,-0.4662 -2.706,-0.7004 -4.041,-0.7004zM232.537,25.666v10.4333c0,0.9752 0.255,1.7589 0.764,2.3534c0.529,0.572 1.249,0.8591 2.161,0.8591c0.933,0 1.835,-0.456 2.704,-1.3681l1.781,3.0537c-1.527,1.3782 -3.212,2.0683 -5.057,2.0683c-1.844,0 -3.424,-0.6372 -4.739,-1.9095c-1.295,-1.2927 -1.94,-3.0211 -1.94,-5.1851v-10.3051h-2.577v-3.4995h2.577v-6.4575h4.326v6.4575h5.438v3.4995zM247.903,37.3065c1.23,1.252 2.777,1.877 4.644,1.877c1.887,0 3.446,-0.625 4.676,-1.877c1.229,-1.2499 1.844,-2.8623 1.844,-4.8349c0,-1.993 -0.615,-3.6155 -1.844,-4.8655c-1.23,-1.252 -2.789,-1.877 -4.676,-1.877c-1.867,0 -3.414,0.625 -4.644,1.877c-1.23,1.25 -1.844,2.8725 -1.844,4.8655c0,1.9726 0.614,3.585 1.844,4.8349zM260.276,39.9795c-2.056,2.0561 -4.633,3.0862 -7.729,3.0862c-3.097,0 -5.672,-1.0301 -7.73,-3.0862c-2.056,-2.0582 -3.084,-4.5601 -3.084,-7.5079c0,-2.9682 1.028,-5.4803 3.084,-7.5385c2.058,-2.0561 4.633,-3.0842 7.73,-3.0842c3.096,0 5.673,1.0281 7.729,3.0842c2.079,2.0582 3.117,4.5703 3.117,7.5385c0,2.9478 -1.038,5.4497 -3.117,7.5079zM278.645,26.2381c-2.141,0 -3.754,0.7003 -4.835,2.0988c-1.081,1.3782 -1.622,3.245 -1.622,5.5984v8.8108h-4.357v-20.5796h4.357v4.1347c0.7,-1.2928 1.645,-2.3432 2.832,-3.1494c1.209,-0.8265 2.481,-1.2622 3.817,-1.3029l0.032,4.3892c-0.085,0 -0.161,0 -0.224,0zM302.059,34.3486h-16.128c0.106,1.5064 0.784,2.7157 2.036,3.6277c1.272,0.91 2.724,1.366 4.356,1.366c2.588,0 4.551,-0.8163 5.886,-2.449l2.482,2.736c-2.228,2.2903 -5.122,3.4364 -8.685,3.4364c-2.885,0 -5.344,-0.9548 -7.38,-2.8643c-2.015,-1.9299 -3.021,-4.5153 -3.021,-7.7604c0,-3.245 1.028,-5.8223 3.084,-7.7298c2.079,-1.9095 4.518,-2.8623 7.317,-2.8623c2.799,0 5.175,0.8469 7.125,2.5447c1.95,1.6958 2.928,4.0187 2.928,6.9664zM285.931,30.9448h11.802c0,-1.7162 -0.542,-3.0415 -1.623,-3.9759c-1.083,-0.9324 -2.418,-1.3986 -4.008,-1.3986c-1.57,0 -2.991,0.4866 -4.263,1.4637c-1.273,0.9528 -1.908,2.2577 -1.908,3.9108z" id="ID0.15555721754208207" fill="#000000" stroke-width="2.03577"/></g></svg>