<svg xmlns="http://www.w3.org/2000/svg" xmlns:xlink="http://www.w3.org/1999/xlink" width="217.987" height="83.7" version="1.1"><defs><radialGradient id="color-1" cx="189.817" cy="178.744" r="20.846" gradientUnits="userSpaceOnUse"><stop offset="0" stop-color="#fff"/><stop offset="1" stop-color="#4397ff"/></radialGradient><radialGradient id="color-2" cx="178.03" cy="188.348" r="1.91" gradientUnits="userSpaceOnUse"><stop offset="0" stop-color="#fff"/><stop offset="1" stop-color="#4397ff"/></radialGradient><radialGradient id="color-3" cx="202.864" cy="158.663" r="1.91" gradientUnits="userSpaceOnUse"><stop offset="0" stop-color="#fff"/><stop offset="1" stop-color="#4397ff"/></radialGradient><radialGradient id="color-4" cx="202.864" cy="197.881" r="1.91" gradientUnits="userSpaceOnUse"><stop offset="0" stop-color="#fff"/><stop offset="1" stop-color="#4397ff"/></radialGradient><radialGradient id="color-5" cx="186.431" cy="185.343" r="8.202" gradientUnits="userSpaceOnUse"><stop offset="0" stop-color="#fff"/><stop offset="1" stop-color="#4397ff"/></radialGradient><radialGradient id="color-6" cx="199.203" cy="190.783" r="7.992" gradientUnits="userSpaceOnUse"><stop offset="0" stop-color="#fff"/><stop offset="1" stop-color="#4397ff"/></radialGradient><radialGradient id="color-7" cx="191" cy="172.979" r="14.355" gradientUnits="userSpaceOnUse"><stop offset="0" stop-color="#fff"/><stop offset="1" stop-color="#4397ff"/></radialGradient><radialGradient id="color-8" cx="199.965" cy="177.933" r="20.11" gradientUnits="userSpaceOnUse"><stop offset="0" stop-color="#fff"/><stop offset="1" stop-color="#4397ff"/></radialGradient><radialGradient id="color-9" cx="189.451" cy="172.886" r="15.338" gradientUnits="userSpaceOnUse"><stop offset="0" stop-color="#fff"/><stop offset="1" stop-color="#4397ff"/></radialGradient><radialGradient id="color-10" cx="203.235" cy="196.439" r="1.237" gradientUnits="userSpaceOnUse"><stop offset="0" stop-color="#fff"/><stop offset="1" stop-color="#4397ff"/></radialGradient></defs><g><g fill="none" fill-rule="nonzero" stroke="none" stroke-dashoffset="0" stroke-linecap="none" stroke-linejoin="miter" stroke-miterlimit="10" stroke-width="none" data-paper-data="{&quot;isPaintingLayer&quot;:true}" font-family="none" font-size="none" font-weight="none" text-anchor="none" style="mix-blend-mode:normal" transform="translate(-150.02689,-137.53841)"><path id="ID0.7864814498461783" fill="#000" stroke-linecap="butt" stroke-width="1.339" d="M193.83869,137.53841c12.0879,0 23.0408,4.6898 30.9707,12.266c7.9313,7.5748 12.841,18.0373 12.841,29.584c0,11.5467 -4.9097,22.0092 -12.841,29.584c-7.9299,7.5762 -18.8828,12.266 -30.9707,12.266c-12.088,0 -23.0409,-4.6898 -30.9708,-12.266c-7.9313,-7.5748 -12.841,-18.0373 -12.841,-29.584c0,-11.5467 4.9097,-22.0092 12.841,-29.584c7.9299,-7.5762 18.8828,-12.266 30.9708,-12.266z"/><g id="ID0.5106196347624063" data-paper-data="{&quot;origPos&quot;:null}"><path id="ID0.8455575481057167" fill="url(#color-1)" stroke-linecap="round" stroke-width=".985" d="M176.56529,188.68031l-0.4779,0.4744l27.0023,-31.2568l0.4572,41.693l-9.0947,-16.8631z"/><path id="ID0.33990809274837375" fill="url(#color-2)" stroke-linecap="butt" stroke-width=".985" d="M178.49199,187.10641c0.5114,0.1903 0.9224,0.5015 1.1745,0.851c0.2521,0.3495 0.344,0.7376 0.2166,1.0798c-0.1273,0.3421 -0.4505,0.5758 -0.8698,0.6754c-0.4192,0.0997 -0.9337,0.0665 -1.4451,-0.1238c-0.5114,-0.1904 -0.9224,-0.5016 -1.1745,-0.851c-0.2521,-0.3495 -0.3439,-0.7376 -0.2166,-1.0798c0.1273,-0.3422 0.4506,-0.5758 0.8698,-0.6755c0.4192,-0.0996 0.9337,-0.0664 1.4451,0.1239z"/><path id="ID0.33990809274837375" fill="url(#color-3)" stroke-linecap="butt" stroke-width=".985" d="M203.32559,157.4214c0.5114,0.1903 0.9224,0.5016 1.1745,0.851c0.2521,0.3495 0.344,0.7376 0.2166,1.0798c-0.1273,0.3422 -0.4505,0.5758 -0.8698,0.6755c-0.4192,0.0996 -0.9337,0.0664 -1.4451,-0.1239c-0.5114,-0.1903 -0.9224,-0.5016 -1.1745,-0.851c-0.2521,-0.3495 -0.3439,-0.7376 -0.2166,-1.0798c0.1273,-0.3422 0.4506,-0.5758 0.8698,-0.6755c0.4192,-0.0996 0.9337,-0.0664 1.4451,0.1239z"/><path id="ID0.33990809274837375" fill="url(#color-4)" stroke-linecap="butt" stroke-width=".985" d="M203.32559,196.63951c0.5114,0.1903 0.9224,0.5015 1.1745,0.851c0.2521,0.3495 0.344,0.7376 0.2166,1.0798c-0.1273,0.3422 -0.4505,0.5758 -0.8698,0.6754c-0.4192,0.0997 -0.9337,0.0665 -1.4451,-0.1238c-0.5114,-0.1903 -0.9224,-0.5016 -1.1745,-0.851c-0.2521,-0.3495 -0.3439,-0.7376 -0.2166,-1.0798c0.1273,-0.3422 0.4506,-0.5758 0.8698,-0.6755c0.4192,-0.0996 0.9337,-0.0664 1.4451,0.1239z"/><path id="ID0.4083744096569717" fill="url(#color-5)" stroke-linecap="round" stroke-width=".985" d="M178.22889,187.65861l14.9632,-6.5189l1.4409,1.7972l-15.4191,6.61z"/><path id="ID0.3794990433380008" fill="url(#color-6)" stroke-linecap="round" stroke-width=".985" d="M194.88599,182.79141l8.6345,12.4309l-1.2016,3.5529l-1.3467,-1.2403z"/><path id="ID0.2798636956140399" fill="url(#color-7)" stroke-linecap="round" stroke-width="1.254" d="M178.40659,187.33381l25.1872,-28.7096l-8.8939,24.3114l-14.0442,4.1282z"/><path id="ID0.09887810610234737" fill="url(#color-8)" stroke-linecap="round" stroke-width="1.254" d="M203.34049,159.30481l0.6283,-1.4821l0.7807,0.7887l-0.0944,39.4317l-9.4748,-16.8108z"/><path id="ID0.6009495295584202" fill="url(#color-9)" stroke-linecap="round" stroke-width="1.254" d="M201.28639,157.54781l1.2359,2.4526l-22.6273,28.2231l-3.5149,-0.8652z"/><path id="ID0.8687255987897515" fill="url(#color-10)" stroke-linecap="butt" stroke-width="1.254" d="M202.44999,195.45481l2.022,0.7525l-0.4523,1.2155l-2.0221,-0.7525z"/></g><text fill="#000" fill-rule="nonzero" stroke="none" stroke-dashoffset="0" stroke-linecap="butt" stroke-linejoin="miter" stroke-miterlimit="10" stroke-width="1" data-paper-data="{&quot;origPos&quot;:null}" font-family="Sans Serif" font-size="40" font-weight="normal" text-anchor="start" transform="translate(240,172.03994) scale(0.34553,0.34553)" xml:space="preserve" style="mix-blend-mode:normal"><tspan x="0" dy="0">Blue Cheese</tspan><tspan x="0" dy="46.15">+100 per sec</tspan><tspan x="0" dy="46.15">Cost: 25000 Cheese</tspan></text></g></g></svg>