<svg xmlns="http://www.w3.org/2000/svg" xmlns:xlink="http://www.w3.org/1999/xlink" width="220.986" height="136.955" version="1.1" viewBox="-0.443 -0.45 220.986 136.955"><g id="ID0.6067084986716509"><path id="ID0.8592819138430059" fill="#0ff" stroke-width="1.272" d="M 140.179 49.5737 C 136.202 49.5737 132.388 47.9942 129.576 45.1824 C 126.765 42.3706 125.185 38.5567 125.185 34.58 C 125.185 24.4761 125.185 15.5257 125.185 15.5257 C 125.185 7.3192 131.837 0.6655 140.044 0.6655 C 140.163 0.6655 140.283 0.6655 140.402 0.6655 C 148.609 0.6655 155.261 7.3192 155.261 15.5257 C 155.261 15.5257 155.261 24.4761 155.261 34.58 C 155.261 38.5567 153.682 42.3706 150.87 45.1824 C 148.058 47.9942 144.244 49.5737 140.268 49.5737 C 140.238 49.5737 140.208 49.5737 140.179 49.5737 Z"/><g id="ID0.7225907975807786"><path id="ID0.9387383819557726" fill="#0ff" stroke-width="1.427" d="M 135.058 56.8071 C 132.307 56.8071 129.735 58.1743 128.197 60.4563 C 126.66 62.7384 126.357 65.6355 127.392 68.1858 C 131.88 79.1108 142.625 86.8089 155.167 86.8089 C 167.71 86.8089 178.456 79.1108 182.937 68.183 C 183.969 65.6355 183.667 62.7412 182.132 60.4606 C 180.595 58.18 178.026 56.8142 175.277 56.8142 C 164.15 56.8071 146.185 56.8071 135.058 56.8071 Z"/></g><g id="ID0.7406775606796145"><path id="ID0.11194413807243109" fill="#0ff" stroke-width="1.427" d="M 51.6584 30.5929 C 48.9069 30.5929 46.3351 29.2257 44.7967 26.9437 C 43.2596 24.6616 42.957 21.7645 43.9917 19.2142 C 48.4802 8.2892 59.2252 0.5911 71.7671 0.5911 C 84.3104 0.5911 95.0555 8.2892 99.5368 19.217 C 100.569 21.7645 100.268 24.6588 98.7319 26.9394 C 97.1948 29.22 94.626 30.5858 91.8772 30.5858 C 80.7497 30.5929 62.7846 30.5929 51.6584 30.5929 Z"/></g><path id="ID0.6368773779831827" fill="#0ff" stroke-width="1.272" d="M 155.186 56.7997 L 185.188 56.7997 L 185.188 86.8011 L 155.186 86.8011 L 155.186 56.7997 Z"/><path id="ID0.2527179359458387" fill="#0ff" stroke-width="1.272" d="M 55.8681 86.8341 L 39.9498 86.8341 C 37.489 86.8341 35.13 87.8108 33.3902 89.5505 C 31.6505 91.2903 30.6738 93.6493 30.6738 96.1101 C 30.6738 96.1114 30.6738 96.1114 30.6738 96.1127 C 30.6738 98.5735 31.6505 100.933 33.3902 102.672 C 35.13 104.412 37.489 105.389 39.9498 105.389 C 68.0525 105.389 152.048 105.389 180.15 105.389 C 182.611 105.389 184.97 104.412 186.71 102.672 C 188.45 100.933 189.426 98.5735 189.426 96.1127 C 189.426 96.1114 189.426 96.1114 189.426 96.1101 C 189.426 93.6493 188.45 91.2903 186.71 89.5505 C 184.97 87.8108 182.611 86.8011 180.15 86.8011 L 168.112 86.8011 L 168.112 56.7997 C 168.112 56.7997 173.092 56.7577 174.568 56.7577 C 178.509 56.7577 182.288 55.1922 185.075 52.4059 C 187.861 49.6182 189.426 45.8386 189.426 41.8988 C 189.426 33.7483 189.426 23.6749 189.426 15.5257 C 189.426 7.3192 196.079 0.6655 204.285 0.6655 C 204.405 0.6655 204.524 0.6655 204.644 0.6655 C 212.85 0.6655 219.503 7.3192 219.503 15.5257 L 219.503 120.606 C 219.503 124.547 217.937 128.327 215.151 131.113 C 212.365 133.9 208.585 135.465 204.644 135.465 C 164.709 135.465 55.3912 135.465 15.4563 135.465 C 11.5152 135.465 7.7356 133.9 4.9493 131.113 C 2.1629 128.327 0.5974 124.547 0.5974 120.606 C 0.5974 106.575 0.5974 85.6476 0.5974 71.6166 C 0.5974 67.6755 2.1629 63.8959 4.9493 61.1096 C 7.7356 58.3232 11.5152 56.7577 15.4563 56.7577 C 27.4805 56.7577 44.2483 56.7577 55.7473 56.7577 L 55.8681 56.7564 L 55.8681 86.8341 Z"/><path id="ID0.414109967648983" fill="#0ff" stroke-width="1.272" d="M 71.8067 0.5905 L 71.8067 30.6669 L 15.4563 30.7419 C 7.2498 30.7419 0.5974 24.0895 0.5974 15.883 C 0.5974 15.7635 0.5974 15.6452 0.5974 15.5257 C 0.5974 11.5846 2.1629 7.805 4.9493 5.0187 C 7.7356 2.231 11.5152 0.6655 15.4563 0.6655 L 71.8067 0.5905 Z"/><g id="ID0.1901904814876616"><path id="ID0.8271248852834105" fill="#0ff" stroke-width="2.081" d="M 55.0168 86.7932 C 66.4399 86.7932 77.3948 82.2552 85.47 74.18 L 64.2801 52.9881 C 61.8228 55.4454 58.4916 56.8249 55.0168 56.8249 L 55.0168 86.7932 Z"/></g><g id="ID0.3997093257494271"><path id="ID0.8880034950561821" fill="#0ff" stroke-width="1.313" d="M 75.8805 47.6723 C 80.0123 47.6723 83.7567 49.3502 86.4693 52.0614 C 89.1805 54.7739 90.8584 58.5184 90.8584 62.6502 C 90.8584 66.782 89.1805 70.5265 86.4693 73.239 C 83.7567 75.9502 80.0123 77.6281 75.8805 77.6281 C 71.7487 77.6281 68.0042 75.9502 65.2917 73.239 C 62.5805 70.5265 60.9026 66.782 60.9026 62.6502 C 60.9026 58.5184 62.5805 54.7739 65.2917 52.0614 C 68.0042 49.3502 71.7487 47.6723 75.8805 47.6723 Z"/></g></g></svg>