<svg xmlns="http://www.w3.org/2000/svg" width="107.434" height="55.1566" xmlns:xlink="http://www.w3.org/1999/xlink" version="1.1"><g transform="translate(-217.49 -94.1681)"><g font-family="none" font-size="none" font-weight="none" style="mix-blend-mode: normal" fill="none" fill-rule="nonzero" stroke="none" stroke-dasharray="" stroke-dashoffset="0" stroke-linecap="butt" stroke-linejoin="miter" stroke-miterlimit="10" stroke-width="none" text-anchor="none" data-paper-data="{&quot;isPaintingLayer&quot;:true}"><g id="ID0.7165977717377245"><path id="ID0.2890377463772893" fill="#285556" stroke-width="0.77053" d="M 304.197 149.259 c 0 0.0069 0 0.0162 0 0.027 c 0 0.0107 0 0.02 0 0.0269 c 0 0.007 0 0.0116 0 0.0116 c 0 0 0 -0.0046 0 -0.0116 c 0 -0.0069 0 -0.0162 0 -0.0269 c 0 -0.0108 0 -0.0201 0 -0.027 c 0 -0.0069 0 -0.0116 0 -0.0116 c 0 0 0 0.0047 0 0.0116 Z" /><g id="ID0.5517641957849264"><path id="ID0.34936244366690516" fill="#fff266" stroke-width="0.79427" d="M 233.959 95.4766 c 0.8432 0.8085 1.365 1.9246 1.365 3.156 c 0 1.2314 -0.5218 2.3475 -1.365 3.1559 c -0.8439 0.8085 -2.0086 1.3085 -3.2935 1.3085 c -1.285 0 -2.4497 -0.5 -3.2936 -1.3085 c -0.8432 -0.8084 -1.365 -1.9245 -1.365 -3.1559 c 0 -1.2314 0.5218 -2.3475 1.365 -3.156 c 0.8439 -0.8085 2.0086 -1.3085 3.2936 -1.3085 c 1.2849 0 2.4496 0.5 3.2935 1.3085 Z" /><path id="ID0.34936244366690516" fill="#fff266" stroke-width="0.79427" d="M 233.959 132.231 c 0.8432 0.8084 1.365 1.9245 1.365 3.1559 c 0 1.2314 -0.5218 2.3475 -1.365 3.156 c -0.8439 0.8085 -2.0086 1.3085 -3.2935 1.3085 c -1.285 0 -2.4497 -0.5 -3.2936 -1.3085 c -0.8432 -0.8085 -1.365 -1.9246 -1.365 -3.156 c 0 -1.2314 0.5218 -2.3475 1.365 -3.1559 c 0.8439 -0.8085 2.0086 -1.3085 3.2936 -1.3085 c 1.2849 0 2.4496 0.5 3.2935 1.3085 Z" /><path id="ID0.6116088633425534" fill="#fff266" stroke-width="0.77642" d="M 232.63 134.465 h -6.5996 v -36.4919 h 6.5996 Z" /><path id="ID0.7551982072182" fill="#1b9971" stroke-width="0.77642" d="M 217.878 123.207 h -0.3882 v 0 h 0.3882 Z" /><path id="ID0.33998720813542604" fill="#1b9971" stroke-width="0.77642" d="M 228.748 96.4206 h -0.3882 v 0 h 0.3882 Z" /></g><g id="ID0.5517641957849264"><path id="ID0.34936244366690516" fill="#fff266" stroke-width="0.78823" d="M 311.825 94.3366 c 1.2752 0 2.431 0.4962 3.2686 1.2985 c 0.8368 0.8024 1.3546 1.91 1.3546 3.132 c 0 1.222 -0.5178 2.3297 -1.3546 3.132 c -0.8376 0.8023 -1.9934 1.2985 -3.2686 1.2985 c -1.2752 0 -2.431 -0.4962 -3.2686 -1.2985 c -0.8367 -0.8023 -1.3545 -1.91 -1.3545 -3.132 c 0 -1.222 0.5178 -2.3296 1.3545 -3.132 c 0.8376 -0.8023 1.9934 -1.2985 3.2686 -1.2985 Z" /><path id="ID0.34936244366690516" fill="#fff266" stroke-width="0.78823" d="M 311.825 130.783 c 1.2752 0 2.431 0.4962 3.2686 1.2986 c 0.8368 0.8023 1.3546 1.9099 1.3546 3.1319 c 0 1.2221 -0.5178 2.3297 -1.3546 3.132 c -0.8376 0.8023 -1.9934 1.2985 -3.2686 1.2985 c -1.2752 0 -2.431 -0.4962 -3.2686 -1.2985 c -0.8367 -0.8023 -1.3545 -1.9099 -1.3545 -3.132 c 0 -1.222 0.5178 -2.3296 1.3545 -3.1319 c 0.8376 -0.8024 1.9934 -1.2986 3.2686 -1.2986 Z" /><path id="ID0.6116088633425534" fill="#fff266" stroke-width="0.77053" d="M 309.898 98.1232 h 6.5495 v 36.2147 h -6.5495 Z" /><path id="ID0.7551982072182" fill="#1b9971" stroke-width="0.77053" d="M 324.538 123.165 h 0.386 v 0 h -0.386 Z" /><path id="ID0.33998720813542604" fill="#1b9971" stroke-width="0.77053" d="M 313.751 96.5821 h 0.3853 v 0 h -0.3853 Z" /></g><path id="ID0.4095125859603286" fill="#fff266" stroke-width="0.58301" d="M 232.165 94.3476 h 78.6324 v 45.4611 h -78.6324 Z" /></g><path id="ID0.3768683369271457" fill="#000000" stroke-width="1.12531" d="M 249.883 109.659 c -0.7269 0 -1.3301 0.1519 -1.8106 0.4568 c -0.4692 0.2937 -0.7033 0.745 -0.7033 1.3538 c 0 0.5986 0.2341 1.0612 0.7033 1.3897 c 0.4805 0.3163 1.4832 0.6617 3.0068 1.0376 c 1.535 0.3635 2.6895 0.8845 3.4637 1.5642 c 0.7731 0.6684 1.1602 1.653 1.1602 2.9539 c 0 1.302 -0.4917 2.362 -1.4764 3.1824 c -0.9734 0.8091 -2.263 1.2142 -3.8688 1.2142 c -2.3328 0 -4.4011 -0.8091 -6.2072 -2.4273 l 1.5833 -1.8984 c 1.5113 1.3121 3.0766 1.9693 4.6948 1.9693 c 0.808 0 1.4528 -0.1756 1.9333 -0.5278 c 0.4805 -0.3511 0.7213 -0.8147 0.7213 -1.3886 c 0 -0.5751 -0.2284 -1.0207 -0.6853 -1.3369 c -0.4456 -0.3286 -1.2198 -0.6212 -2.3215 -0.8789 c -1.0904 -0.27 -1.922 -0.5153 -2.4971 -0.7382 c -0.5626 -0.2228 -1.0668 -0.5097 -1.5113 -0.8619 c -0.88 -0.6685 -1.3188 -1.6936 -1.3188 -3.0766 c 0 -1.3842 0.4974 -2.4498 1.4944 -3.2004 c 1.0083 -0.7506 2.2562 -1.1253 3.745 -1.1253 c 0.9498 0 1.8928 0.1586 2.8313 0.4748 c 0.9486 0.3163 1.7634 0.7563 2.443 1.3189 l -1.3537 1.9164 c -0.4333 -0.3983 -1.0308 -0.7269 -1.7926 -0.9846 c -0.7506 -0.2577 -1.4956 -0.3871 -2.2338 -0.3871 Z M 261.193 113.194 v 5.7672 c 0 0.539 0.1407 0.9722 0.422 1.3008 c 0.2926 0.3162 0.691 0.4749 1.1951 0.4749 c 0.5154 0 1.0139 -0.2521 1.4944 -0.7562 l 0.9847 1.688 c -0.844 0.7618 -1.7758 1.1433 -2.7953 1.1433 c -1.0195 0 -1.8928 -0.3522 -2.6197 -1.0556 c -0.7157 -0.7145 -1.0725 -1.6699 -1.0725 -2.8661 v -5.6963 h -1.4246 v -1.9344 h 1.4246 v -3.5695 h 2.3913 v 3.5695 h 3.0057 v 1.9344 Z M 269.687 119.629 c 0.6796 0.692 1.5349 1.0375 2.5668 1.0375 c 1.0432 0 1.9051 -0.3455 2.5848 -1.0375 c 0.6797 -0.691 1.0196 -1.5822 1.0196 -2.6726 c 0 -1.1017 -0.3399 -1.9986 -1.0196 -2.6895 c -0.6797 -0.6921 -1.5416 -1.0376 -2.5848 -1.0376 c -1.0319 0 -1.8872 0.3455 -2.5668 1.0376 c -0.6797 0.6909 -1.0196 1.5878 -1.0196 2.6895 c 0 1.0904 0.3399 1.9816 1.0196 2.6726 Z M 276.527 121.106 c -1.1366 1.1366 -2.5612 1.706 -4.2728 1.706 c -1.7116 0 -3.1351 -0.5694 -4.2728 -1.706 c -1.1366 -1.1377 -1.7049 -2.5207 -1.7049 -4.1501 c 0 -1.6407 0.5683 -3.0294 1.7049 -4.1671 c 1.1377 -1.1365 2.5612 -1.7048 4.2728 -1.7048 c 1.7116 0 3.1362 0.5683 4.2728 1.7048 c 1.1489 1.1377 1.7228 2.5264 1.7228 4.1671 c 0 1.6294 -0.5739 3.0124 -1.7228 4.1501 Z M 286.68 113.51 c -1.1839 0 -2.0751 0.3871 -2.6726 1.1602 c -0.5976 0.7618 -0.8969 1.7937 -0.8969 3.0946 v 4.8703 h -2.4082 v -11.3757 h 2.4082 v 2.2855 c 0.3871 -0.7146 0.9092 -1.2953 1.5653 -1.7409 c 0.6684 -0.4569 1.3717 -0.6977 2.1099 -0.7202 l 0.0181 2.4262 c -0.0473 0 -0.0889 0 -0.1238 0 Z M 299.622 117.993 h -8.9147 c 0.0585 0.8327 0.4332 1.5012 1.1253 2.0053 c 0.7033 0.503 1.5056 0.7551 2.4081 0.7551 c 1.4303 0 2.5151 -0.4513 3.2533 -1.3538 l 1.3718 1.5125 c -1.2311 1.2659 -2.8313 1.8995 -4.8006 1.8995 c -1.5946 0 -2.954 -0.5278 -4.0793 -1.5833 c -1.114 -1.0668 -1.6699 -2.496 -1.6699 -4.2897 c 0 -1.7938 0.5683 -3.2184 1.7048 -4.2728 c 1.149 -1.0556 2.4971 -1.5822 4.0444 -1.5822 c 1.5473 0 2.8605 0.4681 3.9386 1.4066 c 1.078 0.9374 1.6182 2.2214 1.6182 3.8509 Z M 290.708 116.112 h 6.5234 c 0 -0.9486 -0.2994 -1.6812 -0.8969 -2.1977 c -0.5987 -0.5154 -1.3369 -0.7731 -2.2157 -0.7731 c -0.8676 0 -1.6531 0.2689 -2.3564 0.8091 c -0.7033 0.5266 -1.0544 1.2479 -1.0544 2.1617 Z" /></g></g></svg>