<svg version="1.1" xmlns="http://www.w3.org/2000/svg" xmlns:xlink="http://www.w3.org/1999/xlink" width="289.17401" height="289.17401" viewBox="0,0,289.17401,289.17401"><g transform="translate(-95.41299,-35.41299)"><g data-paper-data="{&quot;isPaintingLayer&quot;:true}" fill-rule="nonzero" stroke="none" stroke-linejoin="miter" stroke-miterlimit="10" stroke-dasharray="" stroke-dashoffset="0" style="mix-blend-mode: normal"><path d="M246.17176,168.38755v27.85938h9.53125v7.35938h-28.70312v-7.35937h10.01563v-20.46875h-10.01562v-7.39062zM236.74988,157.45004c0.25,-0.60417 0.59896,-1.125 1.04688,-1.5625c0.45833,-0.40625 1.00521,-0.72917 1.64063,-0.96875c0.64583,-0.23958 1.35938,-0.35937 2.14063,-0.35937c1.60417,0 2.875,0.45313 3.8125,1.35938c0.94792,0.89583 1.42188,2.04688 1.42188,3.45313c0,1.41667 -0.47396,2.57292 -1.42187,3.46875c-0.9375,0.89583 -2.20833,1.34375 -3.8125,1.34375c-0.78125,0 -1.49479,-0.11458 -2.14062,-0.34375c-0.63542,-0.23958 -1.18229,-0.57812 -1.64062,-1.01562c-0.44792,-0.41667 -0.79687,-0.92187 -1.04687,-1.51562c-0.25,-0.59375 -0.375,-1.23958 -0.375,-1.9375c0,-0.6875 0.125,-1.32812 0.375,-1.92187z" fill="#ff0000" stroke-width="1" stroke-linecap="square"/><path d="M95.413,180c0,-79.8532 64.7338,-144.587 144.58701,-144.587c79.8532,0 144.587,64.7338 144.587,144.58701c0,79.8532 -64.7338,144.587 -144.587,144.587c-79.8532,0 -144.587,-64.7338 -144.587,-144.587z" fill="none" stroke-width="0" stroke-linecap="butt"/></g></g></svg>