<svg version="1.1" xmlns="http://www.w3.org/2000/svg" xmlns:xlink="http://www.w3.org/1999/xlink" width="289.17401" height="289.17401" viewBox="0,0,289.17401,289.17401"><g transform="translate(-95.41299,-35.41299)"><g data-paper-data="{&quot;isPaintingLayer&quot;:true}" fill-rule="nonzero" stroke="none" stroke-linejoin="miter" stroke-miterlimit="10" stroke-dasharray="" stroke-dashoffset="0" style="mix-blend-mode: normal"><path d="M235.15612,171.37192c0.55208,-0.57292 1.13021,-1.07812 1.73438,-1.51562c0.9375,-0.67708 1.96875,-1.19792 3.09375,-1.5625c1.125,-0.36458 2.31771,-0.54687 3.57813,-0.54687c1.84375,0 3.53646,0.27604 5.07813,0.82813c1.54167,0.55208 2.86458,1.41146 3.96875,2.57813c1.10417,1.17708 1.96354,2.68229 2.57813,4.51563c0.625,1.83333 0.9375,4.04167 0.9375,6.625v21.3125h-9.04687v-21.39062c0,-1.25 -0.15625,-2.32812 -0.46875,-3.23437c-0.3125,-0.91667 -0.76562,-1.65625 -1.35937,-2.21875c-0.58333,-0.57292 -1.28646,-0.99479 -2.10937,-1.26562c-0.82292,-0.27083 -1.75521,-0.40625 -2.79687,-0.40625c-0.80208,0 -1.55208,0.07813 -2.25,0.23438c-0.69792,0.14583 -1.32812,0.375 -1.89062,0.6875c-0.52083,0.26042 -0.99479,0.57292 -1.42187,0.9375c-0.41667,0.36458 -0.79687,0.77604 -1.14062,1.23438v25.42188h-9.04687v-50h9.04688v19.64063c0.45833,-0.67708 0.96354,-1.30208 1.51563,-1.875z" fill="#ff0000" stroke-width="1" stroke-linecap="square"/><path d="M95.413,180c0,-79.8532 64.7338,-144.587 144.58701,-144.587c79.8532,0 144.587,64.7338 144.587,144.58701c0,79.8532 -64.7338,144.587 -144.587,144.587c-79.8532,0 -144.587,-64.7338 -144.587,-144.587z" fill="none" stroke-width="0" stroke-linecap="butt"/></g></g></svg>