<svg version="1.1" xmlns="http://www.w3.org/2000/svg" xmlns:xlink="http://www.w3.org/1999/xlink" width="289.17401" height="289.17401" viewBox="0,0,289.17401,289.17401"><g transform="translate(-95.41301,-35.41301)"><g data-paper-data="{&quot;isPaintingLayer&quot;:true}" fill-rule="nonzero" stroke="none" stroke-linejoin="miter" stroke-miterlimit="10" stroke-dasharray="" stroke-dashoffset="0" style="mix-blend-mode: normal"><path d="M224.20302,156.21567h15.90625c2.58333,0 4.93229,0.26042 7.04688,0.78125c2.11458,0.52083 3.92188,1.3125 5.42188,2.375c1.5,1.0625 2.65625,2.41146 3.46875,4.04688c0.8125,1.625 1.21875,3.54167 1.21875,5.75c-0.02083,1.4375 -0.27604,2.79167 -0.76562,4.0625c-0.48958,1.26042 -1.20833,2.36979 -2.15625,3.32813c-0.52083,0.52083 -1.11458,1 -1.78125,1.4375c-0.65625,0.42708 -1.39062,0.79167 -2.20312,1.09375v0.04688c1.5625,0.42708 2.80208,0.97917 3.71875,1.65625c0.92708,0.66667 1.70833,1.44792 2.34375,2.34375c0.64583,0.94792 1.125,1.98438 1.4375,3.10938c0.32292,1.11458 0.48438,2.27083 0.48438,3.46875c0,2.27083 -0.39062,4.27604 -1.17187,6.01563c-0.78125,1.73958 -1.90104,3.19271 -3.35937,4.35938c-1.44792,1.17708 -3.21354,2.05729 -5.29687,2.64063c-2.08333,0.58333 -4.42708,0.875 -7.03125,0.875h-17.28125zM233.37489,196.21567h8.14063c1.1875,0 2.25521,-0.15104 3.20313,-0.45312c0.94792,-0.30208 1.73438,-0.71354 2.35938,-1.23437c0.69792,-0.58333 1.22396,-1.28646 1.57813,-2.10937c0.35417,-0.83333 0.53125,-1.76042 0.53125,-2.78125c0,-1.0625 -0.13542,-2.01562 -0.40625,-2.85937c-0.27083,-0.84375 -0.69792,-1.55729 -1.28125,-2.14062c-0.58333,-0.61458 -1.34375,-1.08333 -2.28125,-1.40625c-0.92708,-0.32292 -2.03125,-0.49479 -3.3125,-0.51562h-8.53125zM240.17177,176.10633c1.39583,-0.02083 2.625,-0.1875 3.6875,-0.5c1.0625,-0.32292 1.91667,-0.79687 2.5625,-1.42187c0.54167,-0.5 0.95833,-1.10417 1.25,-1.8125c0.30208,-0.71875 0.45313,-1.53646 0.45313,-2.45312c0,-0.95833 -0.125,-1.79167 -0.375,-2.5c-0.25,-0.71875 -0.625,-1.31771 -1.125,-1.79687c-0.65625,-0.66667 -1.53125,-1.15104 -2.625,-1.45312c-1.09375,-0.3125 -2.38021,-0.47917 -3.85937,-0.5h-6.76562v12.4375z" fill="#ff0000" stroke-width="1" stroke-linecap="square"/><path d="M95.41302,180.00001c0,-79.8532 64.7338,-144.587 144.58701,-144.587c79.8532,0 144.587,64.7338 144.587,144.58701c0,79.8532 -64.7338,144.587 -144.587,144.587c-79.8532,0 -144.587,-64.7338 -144.587,-144.587z" fill="none" stroke-width="0" stroke-linecap="butt"/></g></g></svg>