<svg version="1.1" xmlns="http://www.w3.org/2000/svg" xmlns:xlink="http://www.w3.org/1999/xlink" width="289.17401" height="289.17401" viewBox="0,0,289.17401,289.17401"><g transform="translate(-95.41299,-35.41299)"><g data-paper-data="{&quot;isPaintingLayer&quot;:true}" fill-rule="nonzero" stroke="none" stroke-linejoin="miter" stroke-miterlimit="10" stroke-dasharray="" stroke-dashoffset="0" style="mix-blend-mode: normal"><path d="M234.28112,202.93442c-2.20833,-0.89583 -4.10417,-2.11458 -5.6875,-3.65625c-1.58333,-1.52083 -2.80729,-3.31771 -3.67187,-5.39062c-0.85417,-2.07292 -1.28125,-4.29167 -1.28125,-6.65625v-1.29687c0,-2.6875 0.42188,-5.14062 1.26563,-7.35937c0.85417,-2.22917 2.04167,-4.15104 3.5625,-5.76562c1.51042,-1.60417 3.30729,-2.84896 5.39063,-3.73437c2.08333,-0.88542 4.35417,-1.32812 6.8125,-1.32812c2.53125,0 4.79167,0.41667 6.78125,1.25c1.98958,0.83333 3.67708,2.01042 5.0625,3.53125c1.36458,1.52083 2.40625,3.34896 3.125,5.48438c0.71875,2.13542 1.07813,4.49479 1.07813,7.07813v3.84375h-23.89062v0.09375c0.30208,1.40625 0.69271,2.54167 1.17188,3.40625c0.47917,0.85417 1.11979,1.625 1.92188,2.3125c0.82292,0.71875 1.76563,1.27604 2.82813,1.67188c1.0625,0.38542 2.22396,0.57813 3.48438,0.57813c1.78125,0 3.50521,-0.33333 5.17188,-1c1.66667,-0.67708 3.02083,-1.6875 4.0625,-3.03125l4.53125,4.875c-1.15625,1.63542 -2.98437,3.11458 -5.48437,4.4375c-2.48958,1.32292 -5.4375,1.98438 -8.84375,1.98438c-2.70833,0 -5.17187,-0.44271 -7.39062,-1.32812zM237.79675,175.6063c-0.84375,0.35417 -1.57812,0.86979 -2.20312,1.54688c-0.65625,0.66667 -1.20312,1.46875 -1.64062,2.40625c-0.42708,0.92708 -0.75,1.96875 -0.96875,3.125h14.84375v-0.71875c0,-0.95833 -0.17708,-1.85937 -0.53125,-2.70312c-0.34375,-0.84375 -0.81771,-1.58333 -1.42187,-2.21875c-0.60417,-0.60417 -1.34896,-1.08333 -2.23437,-1.4375c-0.875,-0.36458 -1.88542,-0.54687 -3.03125,-0.54687c-1.02083,0 -1.95833,0.18229 -2.8125,0.54688z" fill="#ff0000" stroke-width="1" stroke-linecap="square"/><path d="M95.413,180c0,-79.8532 64.7338,-144.587 144.58701,-144.587c79.8532,0 144.587,64.7338 144.587,144.58701c0,79.8532 -64.7338,144.587 -144.587,144.587c-79.8532,0 -144.587,-64.7338 -144.587,-144.587z" fill="none" stroke-width="0" stroke-linecap="butt"/></g></g></svg>