<svg version="1.1" xmlns="http://www.w3.org/2000/svg" xmlns:xlink="http://www.w3.org/1999/xlink" width="289.17401" height="289.17401" viewBox="0,0,289.17401,289.17401"><g transform="translate(-95.41299,-35.41299)"><g data-paper-data="{&quot;isPaintingLayer&quot;:true}" fill-rule="nonzero" stroke="none" stroke-linejoin="miter" stroke-miterlimit="10" stroke-dasharray="" stroke-dashoffset="0" style="mix-blend-mode: normal"><path d="M246.93738,192.51255c-0.25,-0.41667 -0.69271,-0.80729 -1.32812,-1.17187c-0.64583,-0.35417 -1.5,-0.68229 -2.5625,-0.98437c-1.0625,-0.30208 -2.41146,-0.60417 -4.04687,-0.90625c-2.05208,-0.41667 -3.93229,-0.93229 -5.64062,-1.54687c-1.69792,-0.61458 -3.15625,-1.36979 -4.375,-2.26562c-1.21875,-0.86458 -2.17187,-1.86979 -2.85937,-3.01562c-0.67708,-1.15625 -1.01562,-2.48437 -1.01562,-3.98437c0,-1.44792 0.34375,-2.83333 1.03125,-4.15625c0.69792,-1.32292 1.69792,-2.48437 3,-3.48437c1.30208,-1 2.88542,-1.79167 4.75,-2.375c1.875,-0.58333 3.98438,-0.875 6.32813,-0.875c2.44792,0 4.64583,0.28646 6.59375,0.85938c1.95833,0.57292 3.61979,1.35938 4.98438,2.35938c1.34375,1.02083 2.375,2.22396 3.09375,3.60938c0.71875,1.38542 1.07813,2.89063 1.07813,4.51563h-9.04687c0,-0.58333 -0.09896,-1.13021 -0.29687,-1.64062c-0.19792,-0.51042 -0.48958,-0.96875 -0.875,-1.375c-0.54167,-0.54167 -1.27604,-0.97396 -2.20312,-1.29687c-0.91667,-0.33333 -2.02604,-0.5 -3.32812,-0.5c-1.11458,0 -2.08333,0.10938 -2.90625,0.32813c-0.82292,0.21875 -1.49479,0.52083 -2.01562,0.90625c-0.47917,0.35417 -0.84375,0.76563 -1.09375,1.23438c-0.25,0.45833 -0.375,0.94792 -0.375,1.46875c0,0.52083 0.10938,1.00521 0.32813,1.45313c0.21875,0.44792 0.60938,0.84375 1.17188,1.1875c0.54167,0.36458 1.28646,0.69792 2.23438,1c0.95833,0.29167 2.17708,0.54167 3.65625,0.75c2.125,0.35417 4.09896,0.80208 5.92188,1.34375c1.82292,0.54167 3.39583,1.23438 4.71875,2.07813c1.32292,0.86458 2.35938,1.91146 3.10938,3.14063c0.75,1.22917 1.125,2.6875 1.125,4.375c0,1.5625 -0.375,3 -1.125,4.3125c-0.75,1.3125 -1.80729,2.44792 -3.17187,3.40625c-1.38542,0.95833 -3.05729,1.70313 -5.01562,2.23438c-1.94792,0.53125 -4.125,0.79688 -6.53125,0.79688c-2.64583,0 -4.98437,-0.34896 -7.01562,-1.04687c-2.03125,-0.69792 -3.72917,-1.60937 -5.09375,-2.73437c-1.36458,-1.10417 -2.40104,-2.36458 -3.10937,-3.78125c-0.70833,-1.42708 -1.0625,-2.85417 -1.0625,-4.28125h8.625c0.0625,0.94792 0.32292,1.76563 0.78125,2.45313c0.45833,0.67708 1.04688,1.22396 1.76563,1.64063c0.70833,0.4375 1.52083,0.75521 2.4375,0.95313c0.92708,0.1875 1.88021,0.28125 2.85938,0.28125c1.17708,0 2.20313,-0.09896 3.07813,-0.29687c0.875,-0.20833 1.59375,-0.48958 2.15625,-0.84375c0.55208,-0.34375 0.96354,-0.74479 1.23438,-1.20312c0.27083,-0.45833 0.40625,-0.95833 0.40625,-1.5c0,-0.54167 -0.125,-1.01562 -0.375,-1.42187z" fill="#ff0000" stroke-width="1" stroke-linecap="square"/><path d="M95.413,180c0,-79.8532 64.7338,-144.587 144.58701,-144.587c79.8532,0 144.587,64.7338 144.587,144.58701c0,79.8532 -64.7338,144.587 -144.587,144.587c-79.8532,0 -144.587,-64.7338 -144.587,-144.587z" fill="none" stroke-width="0" stroke-linecap="butt"/></g></g></svg>