<svg version="1.1" xmlns="http://www.w3.org/2000/svg" xmlns:xlink="http://www.w3.org/1999/xlink" width="289.17401" height="289.17401" viewBox="0,0,289.17401,289.17401"><g transform="translate(-95.41299,-35.41299)"><g data-paper-data="{&quot;isPaintingLayer&quot;:true}" fill-rule="nonzero" stroke="none" stroke-linejoin="miter" stroke-miterlimit="10" stroke-dasharray="" stroke-dashoffset="0" style="mix-blend-mode: normal"><path d="M238.60926,175.93442c1.30208,0 2.42708,-0.17708 3.375,-0.53125c0.94792,-0.35417 1.71354,-0.85937 2.29688,-1.51562c0.54167,-0.5625 0.94792,-1.25 1.21875,-2.0625c0.27083,-0.8125 0.40625,-1.69792 0.40625,-2.65625c0,-0.92708 -0.13542,-1.77604 -0.40625,-2.54687c-0.27083,-0.77083 -0.67708,-1.4375 -1.21875,-2c-0.54167,-0.55208 -1.23437,-0.97917 -2.07812,-1.28125c-0.83333,-0.30208 -1.80208,-0.45312 -2.90625,-0.45312c-0.90625,0 -1.75521,0.13021 -2.54687,0.39063c-0.79167,0.26042 -1.48437,0.63021 -2.07812,1.10938c-0.60417,0.5 -1.08333,1.09896 -1.4375,1.79688c-0.34375,0.6875 -0.51562,1.46875 -0.51562,2.34375h-9.04687c0,-1.9375 0.39583,-3.69792 1.1875,-5.28125c0.79167,-1.58333 1.88542,-2.94792 3.28125,-4.09375c1.38542,-1.13542 3.01563,-2.01562 4.89063,-2.64062c1.875,-0.63542 3.90104,-0.95312 6.07813,-0.95312c2.34375,0 4.48958,0.29167 6.4375,0.875c1.95833,0.57292 3.63021,1.42188 5.01563,2.54688c1.38542,1.15625 2.46354,2.57292 3.23438,4.25c0.77083,1.67708 1.15625,3.625 1.15625,5.84375c0,1.02083 -0.15104,2.02604 -0.45312,3.01563c-0.30208,0.97917 -0.74479,1.91667 -1.32812,2.8125c-0.59375,0.88542 -1.32292,1.70313 -2.1875,2.45313c-0.86458,0.75 -1.86458,1.39583 -3,1.9375c1.32292,0.47917 2.46875,1.08854 3.4375,1.82813c0.96875,0.72917 1.76563,1.5625 2.39063,2.5c0.63542,0.95833 1.10417,2 1.40625,3.125c0.30208,1.125 0.45313,2.31771 0.45313,3.57813c0,2.21875 -0.42187,4.19792 -1.26562,5.9375c-0.84375,1.72917 -2.00521,3.17708 -3.48437,4.34375c-1.47917,1.19792 -3.23437,2.10938 -5.26562,2.73438c-2.02083,0.61458 -4.20312,0.92188 -6.54687,0.92188c-2.02083,0 -3.99479,-0.27604 -5.92187,-0.82812c-1.91667,-0.5625 -3.61979,-1.40625 -5.10937,-2.53125c-1.5,-1.10417 -2.70312,-2.5 -3.60937,-4.1875c-0.89583,-1.69792 -1.34375,-3.69792 -1.34375,-6h9.04688c0,0.91667 0.17188,1.76042 0.51563,2.53125c0.35417,0.77083 0.85417,1.42708 1.5,1.96875c0.63542,0.5625 1.38542,1 2.25,1.3125c0.86458,0.3125 1.81771,0.46875 2.85938,0.46875c1.17708,0 2.22917,-0.16146 3.15625,-0.48437c0.9375,-0.32292 1.71875,-0.80208 2.34375,-1.4375c0.61458,-0.5625 1.07813,-1.25521 1.39063,-2.07812c0.3125,-0.82292 0.46875,-1.74479 0.46875,-2.76562c0,-1.28125 -0.1875,-2.375 -0.5625,-3.28125c-0.36458,-0.91667 -0.89062,-1.66667 -1.57812,-2.25c-0.71875,-0.58333 -1.57292,-1.01562 -2.5625,-1.29687c-0.98958,-0.29167 -2.10417,-0.4375 -3.34375,-0.4375h-4.90625v-7.03125z" fill="#ff0000" stroke-width="1" stroke-linecap="square"/><path d="M95.413,180c0,-79.8532 64.7338,-144.587 144.58701,-144.587c79.8532,0 144.587,64.7338 144.587,144.58701c0,79.8532 -64.7338,144.587 -144.587,144.587c-79.8532,0 -144.587,-64.7338 -144.587,-144.587z" fill="none" stroke-width="0" stroke-linecap="butt"/></g></g></svg>