<svg version="1.1" xmlns="http://www.w3.org/2000/svg" xmlns:xlink="http://www.w3.org/1999/xlink" width="289.17401" height="289.17401" viewBox="0,0,289.17401,289.17401"><g transform="translate(-95.41301,-35.41301)"><g data-paper-data="{&quot;isPaintingLayer&quot;:true}" fill-rule="nonzero" stroke="none" stroke-linejoin="miter" stroke-miterlimit="10" stroke-dasharray="" stroke-dashoffset="0" style="mix-blend-mode: normal"><path d="M254.43739,200.26255c-1.02083,0.72917 -2.22396,1.39063 -3.60937,1.98438c-1.41667,0.60417 -2.99479,1.08854 -4.73437,1.45313c-1.72917,0.375 -3.59375,0.5625 -5.59375,0.5625c-1.72917,0 -3.35937,-0.20312 -4.89062,-0.60937c-1.53125,-0.39583 -2.9375,-0.97396 -4.21875,-1.73437c-1.26042,-0.78125 -2.40625,-1.73437 -3.4375,-2.85937c-1.03125,-1.13542 -1.90104,-2.42708 -2.60937,-3.875c-0.83333,-1.61458 -1.46354,-3.42708 -1.89062,-5.4375c-0.41667,-2.02083 -0.625,-4.21354 -0.625,-6.57812v-6.45312c0,-2.25 0.20313,-4.34375 0.60938,-6.28125c0.41667,-1.94792 1.00521,-3.71354 1.76563,-5.29687c0.71875,-1.41667 1.54688,-2.6875 2.48438,-3.8125c0.94792,-1.125 1.98958,-2.09896 3.125,-2.92187c1.32292,-0.9375 2.76563,-1.64583 4.32813,-2.125c1.5625,-0.47917 3.20833,-0.71875 4.9375,-0.71875c2.66667,0 4.99479,0.33854 6.98438,1.01563c1.98958,0.67708 3.66667,1.64063 5.03125,2.89063c1.36458,1.28125 2.43229,2.83333 3.20313,4.65625c0.77083,1.82292 1.27604,3.875 1.51563,6.15625h-8.92187c-0.14583,-1.14583 -0.38021,-2.16146 -0.70312,-3.04687c-0.3125,-0.89583 -0.73958,-1.65104 -1.28125,-2.26562c-0.60417,-0.66667 -1.36979,-1.16667 -2.29687,-1.5c-0.91667,-0.34375 -2.01562,-0.51562 -3.29687,-0.51562c-0.69792,0 -1.375,0.10938 -2.03125,0.32813c-0.64583,0.21875 -1.25,0.53646 -1.8125,0.95313c-0.73958,0.5625 -1.40625,1.30208 -2,2.21875c-0.59375,0.90625 -1.08854,1.97396 -1.48437,3.20313c-0.30208,0.95833 -0.53646,2.02604 -0.70312,3.20313c-0.15625,1.16667 -0.23437,2.43229 -0.23437,3.79688v6.51563c0,1.70833 0.10938,3.27083 0.32813,4.6875c0.22917,1.40625 0.55208,2.65104 0.96875,3.73438c0.26042,0.63542 0.55729,1.21875 0.89063,1.75c0.34375,0.53125 0.71875,1 1.125,1.40625c0.69792,0.69792 1.50521,1.22917 2.42188,1.59375c0.92708,0.35417 1.97396,0.54167 3.14063,0.5625c0.71875,0 1.42188,-0.05208 2.10938,-0.15625c0.69792,-0.11458 1.35417,-0.27083 1.96875,-0.46875c0.60417,-0.1875 1.14063,-0.40625 1.60938,-0.65625c0.46875,-0.25 0.82292,-0.51562 1.0625,-0.79687l0.03125,-8.59375h-7.84375v-6.84375h16.95313l0.03125,18.6875c-0.58333,0.71875 -1.38542,1.44792 -2.40625,2.1875z" fill="#ff0000" stroke-width="1" stroke-linecap="square"/><path d="M95.41302,180.00001c0,-79.8532 64.7338,-144.587 144.58701,-144.587c79.8532,0 144.587,64.7338 144.587,144.58701c0,79.8532 -64.7338,144.587 -144.587,144.587c-79.8532,0 -144.587,-64.7338 -144.587,-144.587z" fill="none" stroke-width="0" stroke-linecap="butt"/></g></g></svg>