<svg version="1.1" xmlns="http://www.w3.org/2000/svg" xmlns:xlink="http://www.w3.org/1999/xlink" width="289.17401" height="289.17401" viewBox="0,0,289.17401,289.17401"><g transform="translate(-95.41299,-35.41299)"><g data-paper-data="{&quot;isPaintingLayer&quot;:true}" fill-rule="nonzero" stroke="none" stroke-linejoin="miter" stroke-miterlimit="10" stroke-dasharray="" stroke-dashoffset="0" style="mix-blend-mode: normal"><path d="M227.89051,217.65317c-0.63542,-0.10417 -1.34375,-0.26042 -2.125,-0.46875l1.10938,-6.90625c0.36458,0 0.83333,0.01563 1.40625,0.04688c0.57292,0.03125 1.03646,0.04688 1.39063,0.04688c0.70833,0 1.33854,-0.22396 1.89063,-0.67187c0.5625,-0.4375 1.03646,-0.91667 1.42188,-1.4375c0.39583,-0.52083 0.68229,-0.91146 0.85938,-1.17187c0.1875,-0.26042 0.41146,-0.63021 0.67188,-1.10937l2.07813,-3.875l-14.90625,-33.71875h9.90625l8.0625,20.64063l0.98438,3.57813l1.32813,-3.51562l8.04688,-20.70312h9.98438l-17.875,40.48438c-0.38542,0.89583 -0.89062,1.86458 -1.51562,2.90625c-0.61458,1.04167 -1.38542,2.00521 -2.3125,2.89063c-0.9375,0.89583 -2.07292,1.64583 -3.40625,2.25c-1.33333,0.60417 -2.91146,0.90625 -4.73437,0.90625c-0.86458,0 -1.61979,-0.05729 -2.26562,-0.17187z" fill="#ff0000" stroke-width="1" stroke-linecap="square"/><path d="M95.413,180c0,-79.8532 64.7338,-144.587 144.58701,-144.587c79.8532,0 144.587,64.7338 144.587,144.58701c0,79.8532 -64.7338,144.587 -144.587,144.587c-79.8532,0 -144.587,-64.7338 -144.587,-144.587z" fill="none" stroke-width="0" stroke-linecap="butt"/></g></g></svg>