<svg version="1.1" xmlns="http://www.w3.org/2000/svg" xmlns:xlink="http://www.w3.org/1999/xlink" width="289.17401" height="289.17401" viewBox="0,0,289.17401,289.17401"><g transform="translate(-95.41299,-35.41299)"><g data-paper-data="{&quot;isPaintingLayer&quot;:true}" fill-rule="nonzero" stroke="none" stroke-linejoin="miter" stroke-miterlimit="10" stroke-dasharray="" stroke-dashoffset="0" style="mix-blend-mode: normal"><path d="M224.56237,178.4188c0.625,-2.21875 1.53646,-4.11979 2.73438,-5.70312c1.1875,-1.58333 2.63021,-2.80729 4.32813,-3.67187c1.70833,-0.86458 3.66146,-1.29687 5.85938,-1.29687c1.84375,0 3.46354,0.33333 4.85938,1c1.39583,0.65625 2.63542,1.58854 3.71875,2.79688v-17.9375h9.09375v50h-8.17187l-0.45312,-3.67187c-1.11458,1.36458 -2.42187,2.42708 -3.92187,3.1875c-1.48958,0.76042 -3.22396,1.14063 -5.20312,1.14063c-2.14583,0 -4.07292,-0.44792 -5.78125,-1.34375c-1.69792,-0.90625 -3.13021,-2.15104 -4.29687,-3.73437c-1.19792,-1.58333 -2.11458,-3.46354 -2.75,-5.64062c-0.625,-2.1875 -0.9375,-4.5625 -0.9375,-7.125v-0.6875c0,-2.66667 0.30729,-5.10417 0.92188,-7.3125zM233.06237,190.5438c0.25,1.27083 0.65625,2.36979 1.21875,3.29688c0.57292,0.95833 1.30208,1.70833 2.1875,2.25c0.88542,0.54167 1.96875,0.8125 3.25,0.8125c1.5625,0 2.85938,-0.33333 3.89063,-1c1.03125,-0.67708 1.84896,-1.60417 2.45313,-2.78125v-14.25c-0.60417,-1.19792 -1.41667,-2.125 -2.4375,-2.78125c-1.02083,-0.66667 -2.30208,-1 -3.84375,-1c-1.27083,0 -2.35937,0.28125 -3.26562,0.84375c-0.89583,0.55208 -1.625,1.30208 -2.1875,2.25c-0.57292,0.97917 -0.98958,2.11458 -1.25,3.40625c-0.26042,1.29167 -0.39062,2.67188 -0.39062,4.14063v0.6875c0,1.47917 0.125,2.85417 0.375,4.125z" fill="#ff0000" stroke-width="1" stroke-linecap="square"/><path d="M95.413,180c0,-79.8532 64.7338,-144.587 144.58701,-144.587c79.8532,0 144.587,64.7338 144.587,144.58701c0,79.8532 -64.7338,144.587 -144.587,144.587c-79.8532,0 -144.587,-64.7338 -144.587,-144.587z" fill="none" stroke-width="0" stroke-linecap="butt"/></g></g></svg>