<svg version="1.1" xmlns="http://www.w3.org/2000/svg" xmlns:xlink="http://www.w3.org/1999/xlink" width="289.17401" height="289.17401" viewBox="0,0,289.17401,289.17401"><g transform="translate(-95.41301,-35.41301)"><g data-paper-data="{&quot;isPaintingLayer&quot;:true}" fill-rule="nonzero" stroke="none" stroke-linejoin="miter" stroke-miterlimit="10" stroke-dasharray="" stroke-dashoffset="0" style="mix-blend-mode: normal"><path d="M247.95301,193.49692c-0.47917,2.65625 -1.13021,5.13542 -1.95312,7.4375c-0.82292,2.30208 -1.78125,4.40104 -2.875,6.29688c-1.09375,1.90625 -2.26042,3.59375 -3.5,5.0625c-1.23958,1.5 -2.51042,2.77083 -3.8125,3.8125c-1.30208,1.04167 -2.56771,1.83333 -3.79687,2.375l-1.73437,-4.89062c0.76042,-0.5625 1.52083,-1.26042 2.28125,-2.09375c0.76042,-0.83333 1.5,-1.80208 2.21875,-2.90625c0.84375,-1.30208 1.61458,-2.78125 2.3125,-4.4375c0.70833,-1.64583 1.33333,-3.48958 1.875,-5.53125c0.45833,-1.86458 0.82292,-3.92187 1.09375,-6.17187c0.27083,-2.26042 0.40625,-4.70312 0.40625,-7.32812v-0.84375c0,-2.5625 -0.13542,-4.94792 -0.40625,-7.15625c-0.27083,-2.21875 -0.63542,-4.26042 -1.09375,-6.125c-0.58333,-2.32292 -1.29167,-4.40625 -2.125,-6.25c-0.83333,-1.84375 -1.71875,-3.4375 -2.65625,-4.78125c-0.625,-0.89583 -1.27083,-1.69271 -1.9375,-2.39062c-0.65625,-0.70833 -1.3125,-1.3125 -1.96875,-1.8125l1.73438,-4.84375c1.22917,0.54167 2.49479,1.33333 3.79688,2.375c1.30208,1.04167 2.57292,2.29688 3.8125,3.76563c1.23958,1.5 2.40625,3.20313 3.5,5.10938c1.09375,1.89583 2.05208,3.98958 2.875,6.28125c0.82292,2.30208 1.47396,4.78125 1.95313,7.4375c0.47917,2.65625 0.71875,5.47396 0.71875,8.45313v0.71875c0,2.96875 -0.23958,5.78125 -0.71875,8.4375z" fill="#ff0000" stroke-width="1" stroke-linecap="square"/><path d="M95.41302,180.00002c0,-79.8532 64.7338,-144.587 144.58701,-144.587c79.8532,0 144.587,64.7338 144.587,144.58701c0,79.8532 -64.7338,144.587 -144.587,144.587c-79.8532,0 -144.587,-64.7338 -144.587,-144.587z" fill="none" stroke-width="0" stroke-linecap="butt"/></g></g></svg>