<svg version="1.1" xmlns="http://www.w3.org/2000/svg" xmlns:xlink="http://www.w3.org/1999/xlink" width="289.17401" height="289.17401" viewBox="0,0,289.17401,289.17401"><g transform="translate(-95.41301,-35.41301)"><g data-paper-data="{&quot;isPaintingLayer&quot;:true}" fill-rule="nonzero" stroke="none" stroke-linejoin="miter" stroke-miterlimit="10" stroke-dasharray="" stroke-dashoffset="0" style="mix-blend-mode: normal"><path d="M231.92175,175.70006c0.46875,-2.70833 1.10417,-5.20833 1.90625,-7.5c0.80208,-2.28125 1.73958,-4.36458 2.8125,-6.25c1.08333,-1.88542 2.21875,-3.55729 3.40625,-5.01562c1.19792,-1.45833 2.42708,-2.6875 3.6875,-3.6875c1.27083,-1.01042 2.50521,-1.78646 3.70313,-2.32812l1.75,4.9375c-0.6875,0.52083 -1.38021,1.15104 -2.07812,1.89063c-0.69792,0.73958 -1.38021,1.58854 -2.04687,2.54688c-0.86458,1.22917 -1.67187,2.69271 -2.42187,4.39063c-0.75,1.6875 -1.40625,3.53125 -1.96875,5.53125c-0.5,1.92708 -0.90625,4.0625 -1.21875,6.40625c-0.30208,2.34375 -0.45312,4.89583 -0.45312,7.65625v0.84375c0,2.70833 0.14583,5.21354 0.4375,7.51563c0.30208,2.30208 0.625,4.13542 0.96875,5.5c0.47917,1.90625 1.03646,3.67708 1.67188,5.3125c0.64583,1.625 1.33854,3.04167 2.07813,4.25c0.78125,1.33333 1.60417,2.48438 2.46875,3.45313c0.86458,0.97917 1.71875,1.79167 2.5625,2.4375l-1.75,4.89063c-1.19792,-0.54167 -2.43229,-1.32292 -3.70312,-2.34375c-1.26042,-1.02083 -2.48958,-2.26042 -3.6875,-3.71875c-1.1875,-1.42708 -2.32292,-3.08333 -3.40625,-4.96875c-1.07292,-1.88542 -2.01042,-3.97917 -2.8125,-6.28125c-0.80208,-2.28125 -1.4375,-4.76562 -1.90625,-7.45312c-0.45833,-2.69792 -0.6875,-5.58333 -0.6875,-8.65625v-0.71875c0,-3.0625 0.22917,-5.94271 0.6875,-8.64062z" fill="#ff0000" stroke-width="1" stroke-linecap="square"/><path d="M95.41302,180.00002c0,-79.8532 64.7338,-144.587 144.58701,-144.587c79.8532,0 144.587,64.7338 144.587,144.58701c0,79.8532 -64.7338,144.587 -144.587,144.587c-79.8532,0 -144.587,-64.7338 -144.587,-144.587z" fill="none" stroke-width="0" stroke-linecap="butt"/></g></g></svg>