<svg version="1.1" xmlns="http://www.w3.org/2000/svg" xmlns:xlink="http://www.w3.org/1999/xlink" width="289.17401" height="289.17401" viewBox="0,0,289.17401,289.17401"><g transform="translate(-95.41299,-35.41299)"><g data-paper-data="{&quot;isPaintingLayer&quot;:true}" fill-rule="nonzero" stroke="none" stroke-linejoin="miter" stroke-miterlimit="10" stroke-dasharray="" stroke-dashoffset="0" style="mix-blend-mode: normal"><path d="M227.74987,156.21567h26.29688v7.6875h-18.84375l-1.14062,10.40625c0.66667,-0.38542 1.61979,-0.78125 2.85938,-1.1875c1.23958,-0.41667 2.66146,-0.625 4.26563,-0.625c2.28125,0 4.3125,0.36458 6.09375,1.09375c1.79167,0.71875 3.30729,1.76042 4.54688,3.125c1.21875,1.375 2.15104,3.05208 2.79688,5.03125c0.65625,1.96875 0.98438,4.19792 0.98438,6.6875c0,2.125 -0.31771,4.14583 -0.95312,6.0625c-0.625,1.90625 -1.58854,3.58854 -2.89062,5.04688c-1.30208,1.44792 -2.94271,2.59896 -4.92187,3.45313c-1.96875,0.84375 -4.29687,1.26563 -6.98437,1.26563c-2.04167,0 -4.01562,-0.30208 -5.92187,-0.90625c-1.89583,-0.61458 -3.57812,-1.50521 -5.04687,-2.67187c-1.47917,-1.17708 -2.68229,-2.61458 -3.60937,-4.3125c-0.91667,-1.70833 -1.40625,-3.65625 -1.46875,-5.84375h8.90625c0.21875,2.0625 0.96354,3.65625 2.23438,4.78125c1.27083,1.125 2.89583,1.6875 4.875,1.6875c1.20833,0 2.23958,-0.22396 3.09375,-0.67187c0.86458,-0.45833 1.56771,-1.08854 2.10938,-1.89062c0.52083,-0.80208 0.90625,-1.75521 1.15625,-2.85937c0.25,-1.11458 0.375,-2.3125 0.375,-3.59375c0,-1.26042 -0.16146,-2.41667 -0.48437,-3.46875c-0.3125,-1.05208 -0.79167,-1.95833 -1.4375,-2.71875c-0.65625,-0.76042 -1.47396,-1.34375 -2.45312,-1.75c-0.96875,-0.41667 -2.11458,-0.625 -3.4375,-0.625c-0.89583,0 -1.67187,0.07813 -2.32812,0.23438c-0.64583,0.14583 -1.21354,0.33854 -1.70312,0.57813c-0.5,0.23958 -0.94792,0.52083 -1.34375,0.84375c-0.38542,0.3125 -0.75521,0.64063 -1.10937,0.98438l-7.21875,-1.79687z" fill="#ff0000" stroke-width="1" stroke-linecap="square"/><path d="M95.413,180c0,-79.8532 64.7338,-144.587 144.58701,-144.587c79.8532,0 144.587,64.7338 144.587,144.58701c0,79.8532 -64.7338,144.587 -144.587,144.587c-79.8532,0 -144.587,-64.7338 -144.587,-144.587z" fill="none" stroke-width="0" stroke-linecap="butt"/></g></g></svg>