<svg version="1.1" xmlns="http://www.w3.org/2000/svg" xmlns:xlink="http://www.w3.org/1999/xlink" width="289.17401" height="289.17401" viewBox="0,0,289.17401,289.17401"><g transform="translate(-95.41299,-35.41299)"><g data-paper-data="{&quot;isPaintingLayer&quot;:true}" fill-rule="nonzero" stroke="none" stroke-linejoin="miter" stroke-miterlimit="10" stroke-dasharray="" stroke-dashoffset="0" style="mix-blend-mode: normal"><path d="M246.03113,202.10631c-0.14583,-0.5625 -0.27604,-1.15625 -0.39062,-1.78125c-0.48958,0.54167 -1.0625,1.05208 -1.71875,1.53125c-0.64583,0.46875 -1.35937,0.88021 -2.14062,1.23438c-0.8125,0.36458 -1.69792,0.65104 -2.65625,0.85938c-0.94792,0.20833 -1.97396,0.3125 -3.07812,0.3125c-1.80208,0 -3.45833,-0.26042 -4.96875,-0.78125c-1.51042,-0.52083 -2.80729,-1.25 -3.89062,-2.1875c-1.08333,-0.92708 -1.92708,-2.03646 -2.53125,-3.32812c-0.60417,-1.29167 -0.90625,-2.69792 -0.90625,-4.21875c0,-1.95833 0.375,-3.6875 1.125,-5.1875c0.76042,-1.51042 1.90104,-2.75521 3.42188,-3.73437c1.36458,-0.88542 3.05208,-1.5625 5.0625,-2.03125c2.01042,-0.46875 4.31771,-0.70312 6.92188,-0.70312h5.04688v-2.07812c0,-0.82292 -0.13021,-1.5625 -0.39062,-2.21875c-0.26042,-0.66667 -0.65104,-1.23958 -1.17187,-1.71875c-0.54167,-0.5 -1.22396,-0.88542 -2.04687,-1.15625c-0.8125,-0.27083 -1.76042,-0.40625 -2.84375,-0.40625c-0.95833,0 -1.78646,0.11458 -2.48437,0.34375c-0.6875,0.22917 -1.24479,0.54688 -1.67187,0.95313c-0.39583,0.375 -0.6875,0.82292 -0.875,1.34375c-0.17708,0.52083 -0.26562,1.09375 -0.26562,1.71875h-9.04687c0,-1.5 0.32813,-2.92187 0.98438,-4.26562c0.66667,-1.34375 1.63542,-2.52604 2.90625,-3.54687c1.26042,-1.02083 2.80729,-1.82812 4.64063,-2.42187c1.83333,-0.59375 3.93229,-0.89062 6.29688,-0.89062c2.13542,0 4.11979,0.26042 5.95313,0.78125c1.83333,0.52083 3.42188,1.28646 4.76563,2.29688c1.34375,1.02083 2.39583,2.30729 3.15625,3.85938c0.76042,1.55208 1.14063,3.34896 1.14063,5.39063v15.10938c0,1.88542 0.11458,3.44792 0.34375,4.6875c0.23958,1.22917 0.58854,2.29167 1.04688,3.1875v0.54688h-9.17187c-0.21875,-0.4375 -0.40625,-0.9375 -0.5625,-1.5zM240.49988,196.93442c0.78125,-0.21875 1.48958,-0.5 2.125,-0.84375c0.625,-0.35417 1.16667,-0.75 1.625,-1.1875c0.45833,-0.44792 0.81771,-0.90104 1.07813,-1.35937v-6.04687h-4.625c-1.41667,0 -2.625,0.13542 -3.625,0.40625c-0.98958,0.27083 -1.80208,0.64583 -2.4375,1.125c-0.625,0.5 -1.08854,1.09375 -1.39062,1.78125c-0.30208,0.67708 -0.45312,1.41667 -0.45312,2.21875c0,0.625 0.10938,1.20313 0.32813,1.73438c0.22917,0.53125 0.5625,0.98438 1,1.35938c0.4375,0.34375 0.97396,0.61979 1.60938,0.82813c0.64583,0.20833 1.39063,0.3125 2.23438,0.3125c0.90625,0 1.75,-0.10937 2.53125,-0.32812z" fill="#ff0000" stroke-width="1" stroke-linecap="square"/><path d="M95.413,180c0,-79.8532 64.7338,-144.587 144.58701,-144.587c79.8532,0 144.587,64.7338 144.587,144.58701c0,79.8532 -64.7338,144.587 -144.587,144.587c-79.8532,0 -144.587,-64.7338 -144.587,-144.587z" fill="none" stroke-width="0" stroke-linecap="butt"/></g></g></svg>