<svg version="1.1" xmlns="http://www.w3.org/2000/svg" xmlns:xlink="http://www.w3.org/1999/xlink" width="289.17401" height="289.17401" viewBox="0,0,289.17401,289.17401"><g transform="translate(-95.41299,-35.41299)"><g data-paper-data="{&quot;isPaintingLayer&quot;:true}" fill-rule="nonzero" stroke="none" stroke-linejoin="miter" stroke-miterlimit="10" stroke-dasharray="" stroke-dashoffset="0" style="mix-blend-mode: normal"><path d="M247.04676,198.65317c-1.19792,1.76042 -2.63542,3.14063 -4.3125,4.14063c-1.67708,1 -3.51562,1.5 -5.51562,1.5c-1.82292,0 -3.49479,-0.28125 -5.01562,-0.84375c-1.52083,-0.57292 -2.82292,-1.47396 -3.90625,-2.70312c-1.08333,-1.21875 -1.92708,-2.77604 -2.53125,-4.67187c-0.59375,-1.89583 -0.89062,-4.18229 -0.89062,-6.85937v-20.82812h9.0625v20.89063c0,1.4375 0.09896,2.64583 0.29688,3.625c0.20833,0.96875 0.54167,1.75 1,2.34375c0.45833,0.60417 1.05208,1.03646 1.78125,1.29688c0.73958,0.26042 1.64063,0.39063 2.70313,0.39063c0.95833,0 1.82292,-0.09896 2.59375,-0.29687c0.77083,-0.19792 1.44792,-0.47917 2.03125,-0.84375c0.5,-0.32292 0.94271,-0.71354 1.32813,-1.17187c0.39583,-0.45833 0.73438,-0.96875 1.01563,-1.53125v-24.70312h9.07813v35.21875h-8.20312z" fill="#ff0000" stroke-width="1" stroke-linecap="square"/><path d="M95.413,180c0,-79.8532 64.7338,-144.587 144.58701,-144.587c79.8532,0 144.587,64.7338 144.587,144.58701c0,79.8532 -64.7338,144.587 -144.587,144.587c-79.8532,0 -144.587,-64.7338 -144.587,-144.587z" fill="none" stroke-width="0" stroke-linecap="butt"/></g></g></svg>