<svg version="1.1" xmlns="http://www.w3.org/2000/svg" xmlns:xlink="http://www.w3.org/1999/xlink" width="289.17401" height="289.17401" viewBox="0,0,289.17401,289.17401"><g transform="translate(-95.41299,-35.41299)"><g data-paper-data="{&quot;isPaintingLayer&quot;:true}" fill-rule="nonzero" stroke="none" stroke-linejoin="miter" stroke-miterlimit="10" stroke-dasharray="" stroke-dashoffset="0" style="mix-blend-mode: normal"><path d="M230.48426,172.65317c0.66667,-1.52083 1.58854,-2.71875 2.76563,-3.59375c1.1875,-0.875 2.63021,-1.3125 4.32813,-1.3125c0.82292,0 1.55729,0.09896 2.20313,0.29688c0.65625,0.1875 1.22396,0.48958 1.70313,0.90625c0.36458,0.30208 0.68229,0.66667 0.95313,1.09375c0.27083,0.41667 0.50521,0.89583 0.70313,1.4375c0.30208,-0.52083 0.64063,-0.98958 1.01563,-1.40625c0.38542,-0.42708 0.80729,-0.79167 1.26563,-1.09375c0.5625,-0.39583 1.19792,-0.69792 1.90625,-0.90625c0.71875,-0.21875 1.50521,-0.32812 2.35938,-0.32812c1.0625,0 2.05208,0.19792 2.96875,0.59375c0.92708,0.38542 1.73438,1 2.42188,1.84375c0.67708,0.86458 1.20313,1.97396 1.57813,3.32813c0.38542,1.35417 0.57813,3.01042 0.57813,4.96875v25.125h-8.23437v-25.15625c0,-0.67708 -0.07292,-1.22917 -0.21875,-1.65625c-0.13542,-0.4375 -0.32292,-0.78646 -0.5625,-1.04687c-0.23958,-0.23958 -0.51562,-0.40625 -0.82812,-0.5c-0.3125,-0.10417 -0.63542,-0.15625 -0.96875,-0.15625c-0.34375,0 -0.65104,0.04688 -0.92187,0.14063c-0.27083,0.08333 -0.52604,0.20313 -0.76562,0.35938c-0.19792,0.14583 -0.375,0.3125 -0.53125,0.5c-0.14583,0.1875 -0.27083,0.39583 -0.375,0.625c0,0.05208 0,0.15625 0,0.3125c0,0.14583 0,0.34896 0,0.60938v25.96875h-7.98437v-25.1875c0,-0.67708 -0.06771,-1.22917 -0.20312,-1.65625c-0.125,-0.4375 -0.29167,-0.77604 -0.5,-1.01562c-0.23958,-0.23958 -0.51562,-0.40625 -0.82812,-0.5c-0.30208,-0.10417 -0.625,-0.15625 -0.96875,-0.15625c-0.38542,0 -0.73437,0.06771 -1.04687,0.20313c-0.30208,0.125 -0.57292,0.30729 -0.8125,0.54688c-0.16667,0.17708 -0.31771,0.38542 -0.45312,0.625c-0.125,0.23958 -0.24479,0.5 -0.35937,0.78125v26.35938h-8.23437v-35.21875h7.78125z" fill="#ff0000" stroke-width="1" stroke-linecap="square"/><path d="M95.413,180c0,-79.8532 64.7338,-144.587 144.58701,-144.587c79.8532,0 144.587,64.7338 144.587,144.58701c0,79.8532 -64.7338,144.587 -144.587,144.587c-79.8532,0 -144.587,-64.7338 -144.587,-144.587z" fill="none" stroke-width="0" stroke-linecap="butt"/></g></g></svg>