<svg version="1.1" xmlns="http://www.w3.org/2000/svg" xmlns:xlink="http://www.w3.org/1999/xlink" width="289.17401" height="289.17401" viewBox="0,0,289.17401,289.17401"><g transform="translate(-95.41301,-35.41301)"><g data-paper-data="{&quot;isPaintingLayer&quot;:true}" fill-rule="nonzero" stroke="none" stroke-linejoin="miter" stroke-miterlimit="10" stroke-dasharray="" stroke-dashoffset="0" style="mix-blend-mode: normal"><path d="M233.99989,203.60631h-9.15625v-47.39062h16.21875c2.58333,0 4.91667,0.375 7,1.125c2.08333,0.75 3.85938,1.78646 5.32813,3.10938c1.45833,1.34375 2.58333,2.94792 3.375,4.8125c0.79167,1.86458 1.1875,3.9375 1.1875,6.21875c0,2.125 -0.39583,4.08854 -1.1875,5.89063c-0.79167,1.80208 -1.91667,3.35417 -3.375,4.65625c-1.46875,1.32292 -3.24479,2.35417 -5.32812,3.09375c-2.08333,0.73958 -4.41667,1.10938 -7,1.10938h-7.0625zM241.06239,178.80942c1.30208,0 2.42708,-0.19271 3.375,-0.57812c0.95833,-0.39583 1.76042,-0.93229 2.40625,-1.60937c0.63542,-0.66667 1.10938,-1.4375 1.42188,-2.3125c0.3125,-0.88542 0.46875,-1.80729 0.46875,-2.76562c0,-1.10417 -0.15625,-2.13021 -0.46875,-3.07812c-0.3125,-0.95833 -0.78646,-1.79687 -1.42187,-2.51562c-0.64583,-0.71875 -1.44792,-1.28125 -2.40625,-1.6875c-0.94792,-0.41667 -2.07292,-0.625 -3.375,-0.625h-7.0625v15.17188z" fill="#ff0000" stroke-width="1" stroke-linecap="square"/><path d="M95.41302,180.00001c0,-79.8532 64.7338,-144.587 144.58701,-144.587c79.8532,0 144.587,64.7338 144.587,144.58701c0,79.8532 -64.7338,144.587 -144.587,144.587c-79.8532,0 -144.587,-64.7338 -144.587,-144.587z" fill="none" stroke-width="0" stroke-linecap="butt"/></g></g></svg>