<svg version="1.1" xmlns="http://www.w3.org/2000/svg" xmlns:xlink="http://www.w3.org/1999/xlink" width="289.17401" height="289.17401" viewBox="0,0,289.17401,289.17401"><g transform="translate(-95.413,-35.413)"><g data-paper-data="{&quot;isPaintingLayer&quot;:true}" fill-rule="nonzero" stroke="none" stroke-linejoin="miter" stroke-miterlimit="10" stroke-dasharray="" stroke-dashoffset="0" style="mix-blend-mode: normal"><path d="M257.3905,182.88754c-0.38542,2.01042 -0.95833,3.80729 -1.71875,5.39063c-0.78125,1.60417 -1.77083,2.90104 -2.96875,3.89063c-1.1875,0.98958 -2.61979,1.48438 -4.29687,1.48438c-0.625,0 -1.21875,-0.08854 -1.78125,-0.26562c-0.5625,-0.17708 -1.07292,-0.4375 -1.53125,-0.78125c-0.36458,-0.26042 -0.70312,-0.57292 -1.01562,-0.9375c-0.30208,-0.375 -0.57292,-0.79167 -0.8125,-1.25c-0.28125,0.39583 -0.58333,0.76042 -0.90625,1.09375c-0.32292,0.33333 -0.66146,0.63021 -1.01562,0.89063c-0.52083,0.375 -1.07292,0.66667 -1.65625,0.875c-0.58333,0.19792 -1.20312,0.29688 -1.85937,0.29688c-1.29167,0 -2.42708,-0.29167 -3.40625,-0.875c-0.97917,-0.58333 -1.77083,-1.42708 -2.375,-2.53125c-0.61458,-1.08333 -1.03646,-2.39583 -1.26562,-3.9375c-0.21875,-1.54167 -0.24479,-3.25521 -0.07812,-5.14062c0.23958,-2.21875 0.66667,-4.21875 1.28125,-6c0.625,-1.78125 1.42708,-3.30729 2.40625,-4.57812c0.96875,-1.26042 2.11458,-2.22917 3.4375,-2.90625c1.33333,-0.6875 2.82292,-1.03125 4.46875,-1.03125c1.66667,0 3.04167,0.24479 4.125,0.73438c1.09375,0.47917 1.97396,1.05729 2.64063,1.73438l-1.39062,17.15625c-0.05208,0.625 -0.04167,1.11458 0.03125,1.46875c0.08333,0.34375 0.21354,0.59896 0.39063,0.76563c0.14583,0.17708 0.32813,0.28646 0.54688,0.32813c0.21875,0.04167 0.4375,0.0625 0.65625,0.0625c0.5625,0 1.07292,-0.29167 1.53125,-0.875c0.46875,-0.58333 0.88021,-1.39583 1.23438,-2.4375c0.34375,-1.04167 0.60938,-2.28125 0.79688,-3.71875c0.1875,-1.44792 0.28125,-3.03125 0.28125,-4.75c0.08333,-2.64583 -0.10937,-4.9375 -0.57812,-6.875c-0.46875,-1.94792 -1.20312,-3.55208 -2.20312,-4.8125c-0.98958,-1.25 -2.23437,-2.17708 -3.73437,-2.78125c-1.5,-0.61458 -3.22396,-0.92187 -5.17187,-0.92187c-2.21875,0 -4.21354,0.49479 -5.98437,1.48438c-1.76042,0.98958 -3.26042,2.35938 -4.5,4.10938c-1.26042,1.76042 -2.25,3.85417 -2.96875,6.28125c-0.70833,2.41667 -1.10937,5.06771 -1.20312,7.95313c-0.10417,2.90625 0.09896,5.44271 0.60938,7.60938c0.51042,2.16667 1.30729,3.96875 2.39063,5.40625c1.0625,1.44792 2.41146,2.53125 4.04688,3.25c1.64583,0.71875 3.53125,1.07813 5.65625,1.07813c0.66667,0 1.35938,-0.04167 2.07813,-0.125c0.71875,-0.09375 1.42188,-0.22917 2.10938,-0.40625c0.67708,-0.14583 1.32292,-0.32812 1.9375,-0.54687c0.625,-0.21875 1.1875,-0.45833 1.6875,-0.71875l1.03125,4.39063c-0.5625,0.41667 -1.20833,0.77604 -1.9375,1.07813c-0.71875,0.30208 -1.47917,0.55208 -2.28125,0.75c-0.8125,0.21875 -1.61979,0.375 -2.42187,0.46875c-0.80208,0.10417 -1.57292,0.15625 -2.3125,0.15625c-3.16667,0 -5.90104,-0.52083 -8.20312,-1.5625c-2.29167,-1.04167 -4.1875,-2.53125 -5.6875,-4.46875c-1.5,-1.92708 -2.59375,-4.27083 -3.28125,-7.03125c-0.67708,-2.77083 -0.96354,-5.88021 -0.85937,-9.32812c0.11458,-3.4375 0.6875,-6.66146 1.71875,-9.67187c1.03125,-3.02083 2.44792,-5.65625 4.25,-7.90625c1.77083,-2.23958 3.88021,-4.00521 6.32813,-5.29687c2.45833,-1.29167 5.16667,-1.9375 8.125,-1.9375c2.55208,0 4.85938,0.48438 6.92188,1.45313c2.0625,0.96875 3.8125,2.32813 5.25,4.07813c1.40625,1.78125 2.46354,3.91146 3.17188,6.39063c0.71875,2.46875 1.03646,5.21354 0.95313,8.23438c-0.0625,2.03125 -0.29167,4.05208 -0.6875,6.0625zM236.37487,184.30942c0.10417,0.92708 0.27604,1.69792 0.51563,2.3125c0.26042,0.66667 0.59375,1.16667 1,1.5c0.41667,0.32292 0.89583,0.48438 1.4375,0.48438c0.33333,0 0.66667,-0.04687 1,-0.14062c0.33333,-0.10417 0.66146,-0.27604 0.98438,-0.51562c0.19792,-0.15625 0.39583,-0.33854 0.59375,-0.54687c0.19792,-0.21875 0.39063,-0.47917 0.57813,-0.78125l0.03125,-0.42187l1.25,-14.5625c-0.11458,-0.02083 -0.25,-0.04167 -0.40625,-0.0625c-0.14583,-0.02083 -0.34896,-0.03125 -0.60937,-0.03125c-0.95833,0 -1.80208,0.20833 -2.53125,0.625c-0.71875,0.40625 -1.33854,1.02604 -1.85937,1.85938c-0.52083,0.80208 -0.95312,1.79688 -1.29687,2.98438c-0.33333,1.17708 -0.57292,2.53646 -0.71875,4.07813c-0.07292,1.20833 -0.0625,2.28125 0.03125,3.21875z" fill="#ff0000" stroke-width="1" stroke-linecap="square"/><path d="M95.41301,180.00001c0,-79.8532 64.7338,-144.587 144.58701,-144.587c79.8532,0 144.587,64.7338 144.587,144.58701c0,79.8532 -64.7338,144.587 -144.587,144.587c-79.8532,0 -144.587,-64.7338 -144.587,-144.587z" fill="none" stroke-width="0" stroke-linecap="butt"/></g></g></svg>