<svg version="1.1" xmlns="http://www.w3.org/2000/svg" xmlns:xlink="http://www.w3.org/1999/xlink" width="289.17401" height="289.17401" viewBox="0,0,289.17401,289.17401"><g transform="translate(-95.41299,-35.41299)"><g data-paper-data="{&quot;isPaintingLayer&quot;:true}" fill-rule="nonzero" stroke="none" stroke-linejoin="miter" stroke-miterlimit="10" stroke-dasharray="" stroke-dashoffset="0" style="mix-blend-mode: normal"><path d="M254.37488,193.6688c-0.69792,2.33333 -1.70833,4.28125 -3.03125,5.84375c-1.32292,1.58333 -2.94271,2.77604 -4.85937,3.57813c-1.90625,0.80208 -4.05208,1.20313 -6.4375,1.20313c-2.36458,0 -4.50521,-0.40104 -6.42187,-1.20312c-1.90625,-0.80208 -3.52083,-1.99479 -4.84375,-3.57812c-1.34375,-1.5625 -2.38021,-3.51042 -3.10937,-5.84375c-0.71875,-2.33333 -1.07812,-5.03125 -1.07812,-8.09375v-11.32812c0,-3.0625 0.35417,-5.75521 1.0625,-8.07812c0.71875,-2.33333 1.75,-4.29167 3.09375,-5.875c1.32292,-1.5625 2.93229,-2.74479 4.82813,-3.54687c1.90625,-0.8125 4.04167,-1.21875 6.40625,-1.21875c2.38542,0 4.53125,0.40625 6.4375,1.21875c1.91667,0.80208 3.54688,1.98438 4.89063,3.54688c1.32292,1.58333 2.33854,3.54167 3.04688,5.875c0.71875,2.32292 1.07813,5.01563 1.07813,8.07813v11.32813c0,3.0625 -0.35417,5.76042 -1.0625,8.09375zM246.32801,172.26255c-0.04167,-1.78125 -0.23437,-3.30208 -0.57812,-4.5625c-0.33333,-1.27083 -0.82292,-2.28646 -1.46875,-3.04687c-0.5,-0.61458 -1.11458,-1.06771 -1.84375,-1.35937c-0.72917,-0.29167 -1.54687,-0.4375 -2.45312,-0.4375c-1.02083,0 -1.91667,0.19271 -2.6875,0.57813c-0.77083,0.375 -1.41667,0.94271 -1.9375,1.70313c-0.5625,0.80208 -0.97917,1.84375 -1.25,3.125c-0.27083,1.28125 -0.40625,2.79688 -0.40625,4.54688v5.25c0,1.04167 0,1.73438 0,2.07813c0,0.34375 0,0.85417 0,1.53125zM246.32801,181.43442c0,-0.70833 0,-1.22917 0,-1.5625c0,-0.34375 0,-0.82812 0,-1.45312l-12.625,9.375c0.04167,1.42708 0.1875,2.69792 0.4375,3.8125c0.25,1.10417 0.60417,2.02083 1.0625,2.75c0.52083,0.89583 1.18229,1.5625 1.98438,2c0.80208,0.42708 1.75521,0.64063 2.85938,0.64063c1.02083,0 1.92188,-0.1875 2.70313,-0.5625c0.78125,-0.38542 1.43229,-0.96875 1.95313,-1.75c0.54167,-0.82292 0.94792,-1.88021 1.21875,-3.17187c0.27083,-1.29167 0.40625,-2.81771 0.40625,-4.57812z" fill="#ff0000" stroke-width="1" stroke-linecap="square"/><path d="M95.413,180c0,-79.8532 64.7338,-144.587 144.58701,-144.587c79.8532,0 144.587,64.7338 144.587,144.58701c0,79.8532 -64.7338,144.587 -144.587,144.587c-79.8532,0 -144.587,-64.7338 -144.587,-144.587z" fill="none" stroke-width="0" stroke-linecap="butt"/></g></g></svg>