<svg version="1.1" xmlns="http://www.w3.org/2000/svg" xmlns:xlink="http://www.w3.org/1999/xlink" width="289.17401" height="289.17401" viewBox="0,0,289.17401,289.17401"><g transform="translate(-95.41301,-35.41301)"><g data-paper-data="{&quot;isPaintingLayer&quot;:true}" fill-rule="nonzero" stroke="none" stroke-linejoin="miter" stroke-miterlimit="10" stroke-dasharray="" stroke-dashoffset="0" style="mix-blend-mode: normal"><path d="M256.7655,189.20005c-0.36458,1.83333 -0.89062,3.53125 -1.57812,5.09375c-0.73958,1.5625 -1.65104,2.99479 -2.73437,4.29688c-1.08333,1.30208 -2.32292,2.39063 -3.71875,3.26563c-1.26042,0.75 -2.64583,1.33854 -4.15625,1.76563c-1.5,0.42708 -3.11979,0.64063 -4.85937,0.64063c-1.84375,0 -3.54687,-0.23958 -5.10937,-0.71875c-1.5625,-0.47917 -2.98437,-1.15104 -4.26562,-2.01562c-1.25,-0.91667 -2.375,-2.02083 -3.375,-3.3125c-1,-1.29167 -1.83854,-2.75 -2.51562,-4.375c-0.60417,-1.5 -1.0625,-3.125 -1.375,-4.875c-0.3125,-1.76042 -0.46875,-3.61979 -0.46875,-5.57812v-6.89062c0,-2.08333 0.17708,-4.05729 0.53125,-5.92187c0.35417,-1.86458 0.88021,-3.58854 1.57813,-5.17187c0.67708,-1.5 1.49479,-2.85417 2.45313,-4.0625c0.96875,-1.21875 2.08333,-2.26562 3.34375,-3.14062c1.23958,-0.84375 2.625,-1.49479 4.15625,-1.95312c1.54167,-0.45833 3.21354,-0.6875 5.01563,-0.6875c1.82292,0 3.53125,0.23438 5.125,0.70313c1.59375,0.46875 3.03125,1.13542 4.3125,2c1.28125,0.83333 2.40625,1.83333 3.375,3c0.96875,1.16667 1.79688,2.45833 2.48438,3.875c0.76042,1.60417 1.33854,3.36458 1.73438,5.28125c0.40625,1.90625 0.60938,3.93229 0.60938,6.07813v6.89063c0,2.04167 -0.1875,3.97917 -0.5625,5.8125zM247.87489,172.96567c-0.11458,-1.09375 -0.30208,-2.10937 -0.5625,-3.04687c-0.33333,-1.16667 -0.77083,-2.20833 -1.3125,-3.125c-0.54167,-0.92708 -1.18229,-1.6875 -1.92187,-2.28125c-0.58333,-0.42708 -1.23958,-0.76042 -1.96875,-1c-0.71875,-0.23958 -1.52604,-0.35937 -2.42187,-0.35937c-0.84375,0 -1.60937,0.10938 -2.29687,0.32813c-0.67708,0.20833 -1.28646,0.52083 -1.82812,0.9375c-0.73958,0.60417 -1.36458,1.36458 -1.875,2.28125c-0.51042,0.90625 -0.90625,1.96875 -1.1875,3.1875c-0.21875,0.9375 -0.38021,1.95833 -0.48437,3.0625c-0.09375,1.10417 -0.14062,2.26563 -0.14062,3.48438v6.95313c0,1.15625 0.04167,2.26563 0.125,3.32813c0.09375,1.0625 0.25,2.04688 0.46875,2.95313c0.23958,1.15625 0.58854,2.20833 1.04688,3.15625c0.46875,0.9375 1.02083,1.69792 1.65625,2.28125c0.58333,0.52083 1.25,0.92188 2,1.20313c0.75,0.28125 1.59896,0.42188 2.54688,0.42188c0.91667,0 1.75521,-0.13021 2.51563,-0.39062c0.76042,-0.26042 1.43229,-0.63542 2.01563,-1.125c0.73958,-0.61458 1.36458,-1.38021 1.875,-2.29687c0.51042,-0.92708 0.91667,-1.97396 1.21875,-3.14062c0.23958,-0.91667 0.41667,-1.91667 0.53125,-3c0.125,-1.08333 0.1875,-2.21354 0.1875,-3.39062v-6.95312c0,-1.21875 -0.0625,-2.375 -0.1875,-3.46875z" fill="#ff0000" stroke-width="1" stroke-linecap="square"/><path d="M95.41302,180.00001c0,-79.8532 64.7338,-144.587 144.58701,-144.587c79.8532,0 144.587,64.7338 144.587,144.58701c0,79.8532 -64.7338,144.587 -144.587,144.587c-79.8532,0 -144.587,-64.7338 -144.587,-144.587z" fill="none" stroke-width="0" stroke-linecap="butt"/></g></g></svg>