<svg version="1.1" xmlns="http://www.w3.org/2000/svg" xmlns:xlink="http://www.w3.org/1999/xlink" width="289.17401" height="289.17401" viewBox="0,0,289.17401,289.17401"><g transform="translate(-95.41299,-35.41299)"><g data-paper-data="{&quot;isPaintingLayer&quot;:true}" fill-rule="nonzero" stroke="none" stroke-linejoin="miter" stroke-miterlimit="10" stroke-dasharray="" stroke-dashoffset="0" style="mix-blend-mode: normal"><path d="M224.71863,168.38755h8.35938l0.32813,3.45313c0.47917,-0.58333 1,-1.10937 1.5625,-1.57812c0.5625,-0.46875 1.17188,-0.875 1.82813,-1.21875c0.78125,-0.41667 1.64063,-0.73437 2.57813,-0.95312c0.94792,-0.22917 1.96354,-0.34375 3.04688,-0.34375c2.23958,0 4.21354,0.42708 5.92188,1.28125c1.71875,0.85417 3.16146,2.0625 4.32813,3.625c1.17708,1.58333 2.0625,3.47917 2.65625,5.6875c0.59375,2.19792 0.89063,4.63021 0.89063,7.29688v0.6875c0,2.5625 -0.29687,4.9375 -0.89062,7.125c-0.59375,2.1875 -1.46875,4.07813 -2.625,5.67188c-1.16667,1.60417 -2.60937,2.86458 -4.32812,3.78125c-1.70833,0.90625 -3.67187,1.35938 -5.89062,1.35938c-1.16667,0 -2.24479,-0.125 -3.23437,-0.375c-0.98958,-0.25 -1.90625,-0.61458 -2.75,-1.09375c-0.5,-0.30208 -0.97917,-0.63542 -1.4375,-1c-0.44792,-0.375 -0.88021,-0.79167 -1.29687,-1.25v16.60938h-9.04687zM246.76551,181.49692c-0.27083,-1.29167 -0.6875,-2.41667 -1.25,-3.375c-0.58333,-0.9375 -1.32812,-1.67708 -2.23437,-2.21875c-0.89583,-0.54167 -1.98437,-0.8125 -3.26562,-0.8125c-0.73958,0 -1.41146,0.07292 -2.01562,0.21875c-0.60417,0.13542 -1.15625,0.33333 -1.65625,0.59375c-0.5625,0.3125 -1.05729,0.69792 -1.48437,1.15625c-0.42708,0.44792 -0.79167,0.97396 -1.09375,1.57813v14.71875c0.28125,0.5625 0.61979,1.07292 1.01563,1.53125c0.40625,0.44792 0.86979,0.83854 1.39063,1.17188c0.5,0.30208 1.07292,0.53646 1.71875,0.70313c0.65625,0.15625 1.38542,0.23438 2.1875,0.23438c1.28125,0 2.36979,-0.28125 3.26563,-0.84375c0.90625,-0.5625 1.64063,-1.33333 2.20313,-2.3125c0.5625,-0.97917 0.97396,-2.11458 1.23438,-3.40625c0.26042,-1.29167 0.39063,-2.66146 0.39063,-4.10937v-0.6875c0,-1.46875 -0.13542,-2.84896 -0.40625,-4.14062z" fill="#ff0000" stroke-width="1" stroke-linecap="square"/><path d="M95.413,180c0,-79.8532 64.7338,-144.587 144.58701,-144.587c79.8532,0 144.587,64.7338 144.587,144.58701c0,79.8532 -64.7338,144.587 -144.587,144.587c-79.8532,0 -144.587,-64.7338 -144.587,-144.587z" fill="none" stroke-width="0" stroke-linecap="butt"/></g></g></svg>