<svg version="1.1" xmlns="http://www.w3.org/2000/svg" xmlns:xlink="http://www.w3.org/1999/xlink" width="289.17401" height="289.17401" viewBox="0,0,289.17401,289.17401"><g transform="translate(-95.41299,-35.41299)"><g data-paper-data="{&quot;isPaintingLayer&quot;:true}" fill-rule="nonzero" stroke="none" stroke-linejoin="miter" stroke-miterlimit="10" stroke-dasharray="" stroke-dashoffset="0" style="mix-blend-mode: normal"><path d="M224.578,178.38755c0.61458,-2.21875 1.52083,-4.11979 2.71875,-5.70312c1.16667,-1.5625 2.60938,-2.77604 4.32813,-3.64062c1.72917,-0.86458 3.71354,-1.29687 5.95313,-1.29687c1.16667,0 2.24479,0.13021 3.23438,0.39063c0.98958,0.26042 1.89583,0.625 2.71875,1.09375c0.58333,0.35417 1.13542,0.76042 1.65625,1.21875c0.52083,0.44792 1.01042,0.95313 1.46875,1.51563l0.54688,-3.57812h7.98438v48.76563h-9.07812v-16.54687c-0.45833,0.52083 -0.95833,0.98958 -1.5,1.40625c-0.54167,0.41667 -1.10937,0.77604 -1.70312,1.07813c-0.75,0.36458 -1.57812,0.65104 -2.48437,0.85938c-0.89583,0.20833 -1.86458,0.3125 -2.90625,0.3125c-2.21875,0 -4.1875,-0.44792 -5.90625,-1.34375c-1.70833,-0.90625 -3.14583,-2.16146 -4.3125,-3.76562c-1.17708,-1.58333 -2.07812,-3.46354 -2.70312,-5.64062c-0.61458,-2.1875 -0.92187,-4.5625 -0.92187,-7.125v-0.6875c0,-2.66667 0.30208,-5.10417 0.90625,-7.3125zM233.10925,190.49692c0.26042,1.27083 0.67708,2.38542 1.25,3.34375c0.5625,0.97917 1.29167,1.75 2.1875,2.3125c0.90625,0.5625 2,0.84375 3.28125,0.84375c0.78125,0 1.48958,-0.07812 2.125,-0.23437c0.63542,-0.16667 1.21354,-0.39062 1.73438,-0.67187c0.52083,-0.30208 0.97396,-0.67708 1.35938,-1.125c0.39583,-0.44792 0.75,-0.95312 1.0625,-1.51562v-14.96875c-0.3125,-0.54167 -0.66667,-1.02083 -1.0625,-1.4375c-0.38542,-0.42708 -0.83854,-0.79687 -1.35937,-1.10937c-0.48958,-0.28125 -1.05729,-0.49479 -1.70312,-0.64062c-0.63542,-0.15625 -1.33333,-0.23437 -2.09375,-0.23437c-1.28125,0 -2.375,0.27604 -3.28125,0.82813c-0.89583,0.55208 -1.625,1.30729 -2.1875,2.26563c-0.58333,0.95833 -1.01562,2.08333 -1.29687,3.375c-0.27083,1.29167 -0.40625,2.68229 -0.40625,4.17188v0.6875c0,1.45833 0.13021,2.82813 0.39063,4.10938z" fill="#ff0000" stroke-width="1" stroke-linecap="square"/><path d="M95.413,180c0,-79.8532 64.7338,-144.587 144.58701,-144.587c79.8532,0 144.587,64.7338 144.587,144.58701c0,79.8532 -64.7338,144.587 -144.587,144.587c-79.8532,0 -144.587,-64.7338 -144.587,-144.587z" fill="none" stroke-width="0" stroke-linecap="butt"/></g></g></svg>