<svg version="1.1" xmlns="http://www.w3.org/2000/svg" xmlns:xlink="http://www.w3.org/1999/xlink" width="289.17401" height="289.17401" viewBox="0,0,289.17401,289.17401"><g transform="translate(-95.41299,-35.41299)"><g data-paper-data="{&quot;isPaintingLayer&quot;:true}" fill-rule="nonzero" stroke="none" stroke-linejoin="miter" stroke-miterlimit="10" stroke-dasharray="" stroke-dashoffset="0" style="mix-blend-mode: normal"><path d="M248.0155,168.38755v36.03125c0,2.34375 -0.33854,4.35417 -1.01562,6.03125c-0.66667,1.6875 -1.64062,3.07292 -2.92187,4.15625c-1.27083,1.10417 -2.83333,1.91667 -4.6875,2.4375c-1.84375,0.52083 -3.94792,0.78125 -6.3125,0.78125c-0.5625,0 -1.13021,-0.01042 -1.70312,-0.03125c-0.57292,-0.02083 -1.14062,-0.0625 -1.70312,-0.125c-0.41667,-0.04167 -0.82812,-0.09896 -1.23437,-0.17187c-0.39583,-0.0625 -0.78646,-0.13542 -1.17187,-0.21875l0.45313,-7.35937c0.26042,0.0625 0.61979,0.11979 1.07813,0.17188c0.46875,0.0625 0.95313,0.10417 1.45313,0.125c0.47917,0.04167 0.9375,0.06771 1.375,0.07813c0.44792,0.01042 0.78125,0.01563 1,0.01563c0.875,0 1.69271,-0.09896 2.45313,-0.29687c0.77083,-0.1875 1.44271,-0.51042 2.01563,-0.96875c0.54167,-0.45833 0.97396,-1.0625 1.29688,-1.8125c0.32292,-0.75 0.48438,-1.6875 0.48438,-2.8125v-28.64062h-8.89062v-7.39062zM239.6405,155.96567c0.92708,-0.9375 2.19271,-1.40625 3.79688,-1.40625c1.60417,0 2.875,0.45313 3.8125,1.35938c0.94792,0.89583 1.42188,2.04688 1.42188,3.45313c0,1.41667 -0.47396,2.57292 -1.42187,3.46875c-0.9375,0.89583 -2.20833,1.34375 -3.8125,1.34375c-1.5625,0 -2.81771,-0.45312 -3.76562,-1.35937c-0.9375,-0.90625 -1.40625,-2.05729 -1.40625,-3.45312c0,-1.34375 0.45833,-2.47917 1.375,-3.40625z" fill="#ff0000" stroke-width="1" stroke-linecap="square"/><path d="M95.413,180c0,-79.8532 64.7338,-144.587 144.58701,-144.587c79.8532,0 144.587,64.7338 144.587,144.58701c0,79.8532 -64.7338,144.587 -144.587,144.587c-79.8532,0 -144.587,-64.7338 -144.587,-144.587z" fill="none" stroke-width="0" stroke-linecap="butt"/></g></g></svg>