<svg version="1.1" xmlns="http://www.w3.org/2000/svg" xmlns:xlink="http://www.w3.org/1999/xlink" width="289.17401" height="289.17401" viewBox="0,0,289.17401,289.17401"><g transform="translate(-95.41301,-35.41301)"><g data-paper-data="{&quot;isPaintingLayer&quot;:true}" fill-rule="nonzero" stroke="none" stroke-linejoin="miter" stroke-miterlimit="10" stroke-dasharray="" stroke-dashoffset="0" style="mix-blend-mode: normal"><path d="M248.42178,188.87192c-0.29167,-0.73958 -0.78125,-1.4375 -1.46875,-2.09375c-0.71875,-0.625 -1.65104,-1.20312 -2.79687,-1.73437c-1.13542,-0.53125 -2.54687,-1.02604 -4.23437,-1.48437c-2.625,-0.71875 -4.93229,-1.58854 -6.92187,-2.60937c-1.97917,-1.02083 -3.59896,-2.13542 -4.85937,-3.34375c-1.26042,-1.21875 -2.21354,-2.5625 -2.85937,-4.03125c-0.63542,-1.47917 -0.95312,-3.08854 -0.95312,-4.82812c0,-2 0.42188,-3.8125 1.26563,-5.4375c0.85417,-1.625 2.02604,-3.01042 3.51563,-4.15625c1.5,-1.15625 3.27083,-2.04167 5.3125,-2.65625c2.04167,-0.625 4.25521,-0.9375 6.64063,-0.9375c2.46875,0 4.72917,0.35938 6.78125,1.07813c2.05208,0.71875 3.81771,1.71875 5.29688,3c1.46875,1.30208 2.61458,2.84375 3.4375,4.625c0.82292,1.77083 1.23438,3.72396 1.23438,5.85938h-8.90625c-0.04167,-1.0625 -0.23437,-2.03646 -0.57812,-2.92187c-0.33333,-0.89583 -0.82812,-1.67187 -1.48437,-2.32812c-0.66667,-0.625 -1.49479,-1.11458 -2.48437,-1.46875c-0.98958,-0.36458 -2.14583,-0.54687 -3.46875,-0.54687c-1.20833,0 -2.28646,0.14583 -3.23437,0.4375c-0.94792,0.29167 -1.74479,0.69792 -2.39062,1.21875c-0.65625,0.54167 -1.15104,1.17708 -1.48437,1.90625c-0.33333,0.72917 -0.5,1.51563 -0.5,2.35938c0,0.89583 0.21875,1.70313 0.65625,2.42188c0.44792,0.70833 1.09896,1.34375 1.95313,1.90625c0.84375,0.58333 1.86458,1.11458 3.0625,1.59375c1.20833,0.47917 2.57292,0.92708 4.09375,1.34375c1.625,0.44792 3.17188,1 4.64063,1.65625c1.47917,0.64583 2.83854,1.39583 4.07813,2.25c1.86458,1.38542 3.34896,3 4.45313,4.84375c1.11458,1.84375 1.67188,3.96875 1.67188,6.375c0,2.08333 -0.42187,3.9375 -1.26562,5.5625c-0.83333,1.61458 -1.98437,2.97396 -3.45312,4.07813c-1.47917,1.125 -3.23958,1.97917 -5.28125,2.5625c-2.04167,0.57292 -4.26562,0.85938 -6.67187,0.85938c-2.36458,0 -4.70312,-0.35417 -7.01562,-1.0625c-2.3125,-0.70833 -4.32292,-1.74479 -6.03125,-3.10937c-1.625,-1.34375 -2.91146,-2.92708 -3.85937,-4.75c-0.94792,-1.82292 -1.42187,-3.96354 -1.42187,-6.42187h8.98438c0.04167,1.4375 0.29167,2.66667 0.75,3.6875c0.45833,1.02083 1.09896,1.85417 1.92188,2.5c0.80208,0.65625 1.77083,1.13542 2.90625,1.4375c1.14583,0.30208 2.40104,0.45313 3.76563,0.45313c1.21875,0 2.29688,-0.14062 3.23438,-0.42187c0.94792,-0.28125 1.74479,-0.67187 2.39063,-1.17187c0.65625,-0.5 1.15625,-1.09896 1.5,-1.79687c0.35417,-0.70833 0.53125,-1.48958 0.53125,-2.34375c0,-0.84375 -0.15104,-1.63021 -0.45312,-2.35937z" fill="#ff0000" stroke-width="1" stroke-linecap="square"/><path d="M95.41302,180.00001c0,-79.8532 64.7338,-144.587 144.58701,-144.587c79.8532,0 144.587,64.7338 144.587,144.58701c0,79.8532 -64.7338,144.587 -144.587,144.587c-79.8532,0 -144.587,-64.7338 -144.587,-144.587z" fill="none" stroke-width="0" stroke-linecap="butt"/></g></g></svg>