<svg version="1.1" xmlns="http://www.w3.org/2000/svg" xmlns:xlink="http://www.w3.org/1999/xlink" width="289.17401" height="289.17401" viewBox="0,0,289.17401,289.17401"><g transform="translate(-95.41301,-35.41301)"><g data-paper-data="{&quot;isPaintingLayer&quot;:true}" fill-rule="nonzero" stroke="none" stroke-linejoin="miter" stroke-miterlimit="10" stroke-dasharray="" stroke-dashoffset="0" style="mix-blend-mode: normal"><path d="M224.06239,156.21567h12.28125c2.1875,0 4.23438,0.26563 6.14063,0.79688c1.91667,0.53125 3.65625,1.28646 5.21875,2.26563c1.36458,0.80208 2.58333,1.78646 3.65625,2.95313c1.07292,1.15625 2.01042,2.41667 2.8125,3.78125c0.9375,1.67708 1.66146,3.52604 2.17188,5.54688c0.51042,2.01042 0.76563,4.15625 0.76563,6.4375v3.90625c0,2.1875 -0.23958,4.26042 -0.71875,6.21875c-0.47917,1.94792 -1.15104,3.73438 -2.01562,5.35938c-0.82292,1.45833 -1.79167,2.80208 -2.90625,4.03125c-1.10417,1.21875 -2.31771,2.23958 -3.64062,3.0625c-1.54167,0.97917 -3.23958,1.72917 -5.09375,2.25c-1.85417,0.52083 -3.83333,0.78125 -5.9375,0.78125h-12.73437zM233.28114,196.24692h3.51563c1.125,0 2.17708,-0.14062 3.15625,-0.42187c0.97917,-0.28125 1.86979,-0.69271 2.67188,-1.23437c0.82292,-0.5625 1.5625,-1.28125 2.21875,-2.15625c0.66667,-0.88542 1.23958,-1.91146 1.71875,-3.07812c0.38542,-1.02083 0.68229,-2.15625 0.89063,-3.40625c0.20833,-1.25 0.3125,-2.59896 0.3125,-4.04687v-3.96875c0,-1.375 -0.10417,-2.67187 -0.3125,-3.89062c-0.20833,-1.22917 -0.50521,-2.35417 -0.89062,-3.375c-0.47917,-1.21875 -1.10417,-2.30208 -1.875,-3.25c-0.77083,-0.95833 -1.66667,-1.73958 -2.6875,-2.34375c-0.78125,-0.45833 -1.64583,-0.8125 -2.59375,-1.0625c-0.9375,-0.25 -1.95833,-0.375 -3.0625,-0.375h-3.0625z" fill="#ff0000" stroke-width="1" stroke-linecap="square"/><path d="M95.41302,180.00001c0,-79.8532 64.7338,-144.587 144.58701,-144.587c79.8532,0 144.587,64.7338 144.587,144.58701c0,79.8532 -64.7338,144.587 -144.587,144.587c-79.8532,0 -144.587,-64.7338 -144.587,-144.587z" fill="none" stroke-width="0" stroke-linecap="butt"/></g></g></svg>