<svg version="1.1" xmlns="http://www.w3.org/2000/svg" xmlns:xlink="http://www.w3.org/1999/xlink" width="289.17401" height="289.17401" viewBox="0,0,289.17401,289.17401"><g transform="translate(-95.41299,-35.41299)"><g data-paper-data="{&quot;isPaintingLayer&quot;:true}" fill-rule="nonzero" stroke="none" stroke-linejoin="miter" stroke-miterlimit="10" stroke-dasharray="" stroke-dashoffset="0" style="mix-blend-mode: normal"><path d="M253.76551,172.4813c-0.375,1.13542 -0.91146,2.18229 -1.60937,3.14063c-0.54167,0.70833 -1.17708,1.375 -1.90625,2c-0.72917,0.61458 -1.53646,1.15104 -2.42187,1.60938c0.80208,0.38542 1.5625,0.82292 2.28125,1.3125c0.71875,0.48958 1.35938,1.03646 1.92188,1.64063c1.04167,1.09375 1.85417,2.35417 2.4375,3.78125c0.58333,1.42708 0.875,2.98958 0.875,4.6875c0,2.23958 -0.40625,4.20313 -1.21875,5.89063c-0.8125,1.6875 -1.92187,3.09896 -3.32812,4.23438c-1.4375,1.14583 -3.125,2.01563 -5.0625,2.60938c-1.92708,0.58333 -4.00521,0.875 -6.23437,0.875c-2.26042,0 -4.36458,-0.29167 -6.3125,-0.875c-1.9375,-0.59375 -3.61979,-1.46354 -5.04687,-2.60937c-1.4375,-1.13542 -2.5625,-2.54687 -3.375,-4.23437c-0.8125,-1.6875 -1.21875,-3.65104 -1.21875,-5.89062c0,-1.30208 0.17708,-2.53125 0.53125,-3.6875c0.36458,-1.16667 0.86979,-2.23958 1.51563,-3.21875c0.65625,-0.94792 1.44271,-1.80729 2.35938,-2.57812c0.92708,-0.77083 1.96354,-1.42708 3.10938,-1.96875c-0.97917,-0.5 -1.86458,-1.09375 -2.65625,-1.78125c-0.79167,-0.69792 -1.45833,-1.47396 -2,-2.32812c-0.58333,-0.88542 -1.03125,-1.85937 -1.34375,-2.92187c-0.3125,-1.0625 -0.46875,-2.18229 -0.46875,-3.35937c0,-2.14583 0.36458,-4.03646 1.09375,-5.67187c0.73958,-1.63542 1.77083,-3.02083 3.09375,-4.15625c1.30208,-1.125 2.85938,-1.97396 4.67188,-2.54687c1.8125,-0.58333 3.79167,-0.875 5.9375,-0.875c2.15625,0 4.14583,0.29167 5.96875,0.875c1.82292,0.57292 3.40625,1.42188 4.75,2.54688c1.32292,1.13542 2.35938,2.52083 3.10938,4.15625c0.75,1.63542 1.125,3.52604 1.125,5.67188c0,1.30208 -0.19271,2.52604 -0.57812,3.67188zM245.76551,187.1063c-0.32292,-0.86458 -0.77604,-1.61458 -1.35937,-2.25c-0.60417,-0.60417 -1.32292,-1.06771 -2.15625,-1.39062c-0.83333,-0.33333 -1.77083,-0.5 -2.8125,-0.5c-1.04167,0 -1.98437,0.16667 -2.82812,0.5c-0.83333,0.32292 -1.54167,0.78646 -2.125,1.39063c-0.58333,0.63542 -1.04167,1.38542 -1.375,2.25c-0.32292,0.86458 -0.48437,1.83854 -0.48437,2.92188c0,1.13542 0.17188,2.15104 0.51563,3.04688c0.35417,0.88542 0.84375,1.61979 1.46875,2.20313c0.59375,0.5625 1.30208,0.98958 2.125,1.28125c0.82292,0.29167 1.74479,0.4375 2.76563,0.4375c1,0 1.91146,-0.15625 2.73438,-0.46875c0.82292,-0.3125 1.53646,-0.77604 2.14063,-1.39062c0.58333,-0.60417 1.04167,-1.33333 1.375,-2.1875c0.34375,-0.85417 0.51563,-1.82812 0.51563,-2.92187c0,-1.08333 -0.16667,-2.05729 -0.5,-2.92187zM244.89051,166.63754c-0.28125,-0.78125 -0.66667,-1.45312 -1.15625,-2.01562c-0.52083,-0.55208 -1.14583,-0.97917 -1.875,-1.28125c-0.72917,-0.30208 -1.55208,-0.45312 -2.46875,-0.45312c-0.92708,0 -1.75,0.14583 -2.46875,0.4375c-0.71875,0.29167 -1.3125,0.70833 -1.78125,1.25c-0.5,0.55208 -0.875,1.22396 -1.125,2.01563c-0.25,0.79167 -0.375,1.66146 -0.375,2.60938c0,0.97917 0.13021,1.86458 0.39063,2.65625c0.26042,0.79167 0.65104,1.46875 1.17188,2.03125c0.5,0.5625 1.10938,1.00521 1.82813,1.32813c0.72917,0.3125 1.55208,0.46875 2.46875,0.46875c0.90625,0 1.71875,-0.15625 2.4375,-0.46875c0.71875,-0.32292 1.32813,-0.76562 1.82813,-1.32812c0.5,-0.5625 0.88542,-1.23958 1.15625,-2.03125c0.27083,-0.79167 0.40625,-1.66667 0.40625,-2.625c0,-0.94792 -0.14583,-1.8125 -0.4375,-2.59375z" fill="#ff0000" stroke-width="1" stroke-linecap="square"/><path d="M95.413,180c0,-79.8532 64.7338,-144.587 144.58701,-144.587c79.8532,0 144.587,64.7338 144.587,144.58701c0,79.8532 -64.7338,144.587 -144.587,144.587c-79.8532,0 -144.587,-64.7338 -144.587,-144.587z" fill="none" stroke-width="0" stroke-linecap="butt"/></g></g></svg>