<svg version="1.1" xmlns="http://www.w3.org/2000/svg" xmlns:xlink="http://www.w3.org/1999/xlink" width="289.17401" height="289.17401" viewBox="0,0,289.17401,289.17401"><g transform="translate(-95.41299,-35.41299)"><g data-paper-data="{&quot;isPaintingLayer&quot;:true}" fill-rule="nonzero" stroke="none" stroke-linejoin="miter" stroke-miterlimit="10" stroke-dasharray="" stroke-dashoffset="0" style="mix-blend-mode: normal"><path d="M241.18738,168.38754h13.15625v6.67188h-13.15625v15.14063c0,1.28125 0.14583,2.34896 0.4375,3.20313c0.29167,0.85417 0.70833,1.53125 1.25,2.03125c0.54167,0.52083 1.19792,0.89063 1.96875,1.10938c0.77083,0.21875 1.63542,0.32813 2.59375,0.32813c0.69792,0 1.40625,-0.03125 2.125,-0.09375c0.72917,-0.07292 1.43229,-0.16146 2.10938,-0.26562c0.64583,-0.08333 1.25521,-0.17708 1.82813,-0.28125c0.58333,-0.11458 1.07813,-0.22917 1.48438,-0.34375l0.875,6.21875c-0.625,0.375 -1.35937,0.69792 -2.20312,0.96875c-0.84375,0.27083 -1.74479,0.48958 -2.70312,0.65625c-0.95833,0.17708 -1.95312,0.3125 -2.98437,0.40625c-1.03125,0.10417 -2.04167,0.15625 -3.03125,0.15625c-1.9375,0 -3.69271,-0.25521 -5.26562,-0.76562c-1.57292,-0.51042 -2.91146,-1.30729 -4.01562,-2.39062c-1.125,-1.0625 -1.99479,-2.42187 -2.60937,-4.07812c-0.60417,-1.66667 -0.90625,-3.66146 -0.90625,-5.98437v-16.01562h-8.04687v-6.67187h8.04688v-8.625h9.04688z" fill="#ff0000" stroke-width="1" stroke-linecap="square"/><path d="M95.413,180c0,-79.8532 64.7338,-144.587 144.58701,-144.587c79.8532,0 144.587,64.7338 144.587,144.58701c0,79.8532 -64.7338,144.587 -144.587,144.587c-79.8532,0 -144.587,-64.7338 -144.587,-144.587z" fill="none" stroke-width="0" stroke-linecap="butt"/></g></g></svg>