<svg version="1.1" xmlns="http://www.w3.org/2000/svg" xmlns:xlink="http://www.w3.org/1999/xlink" width="289.17401" height="289.17401" viewBox="0,0,289.17401,289.17401"><g transform="translate(-95.41299,-35.41299)"><g data-paper-data="{&quot;isPaintingLayer&quot;:true}" fill-rule="nonzero" stroke="none" stroke-linejoin="miter" stroke-miterlimit="10" stroke-dasharray="" stroke-dashoffset="0" style="mix-blend-mode: normal"><path d="M237.10926,195.63756c1.78125,-0.52083 3.28125,-1.28125 4.5,-2.28125c1.17708,-0.95833 2.09375,-2.13542 2.75,-3.53125c0.66667,-1.40625 1.10417,-2.97396 1.3125,-4.70312v-0.20312c-0.44792,0.45833 -0.95833,0.88542 -1.53125,1.28125c-0.5625,0.38542 -1.17708,0.71875 -1.84375,1c-0.71875,0.32292 -1.52604,0.57813 -2.42187,0.76563c-0.88542,0.1875 -1.85937,0.28125 -2.92187,0.28125c-2.25,0 -4.23437,-0.41146 -5.95312,-1.23437c-1.71875,-0.82292 -3.15104,-1.95312 -4.29687,-3.39062c-1.16667,-1.42708 -2.05208,-3.10937 -2.65625,-5.04687c-0.59375,-1.94792 -0.89062,-4.04167 -0.89062,-6.28125c0,-2.30208 0.36458,-4.46354 1.09375,-6.48437c0.72917,-2.03125 1.77604,-3.80729 3.14063,-5.32812c1.36458,-1.52083 3.01563,-2.71875 4.95313,-3.59375c1.94792,-0.88542 4.13542,-1.32812 6.5625,-1.32812c2.47917,0 4.70313,0.47917 6.67188,1.4375c1.97917,0.95833 3.66146,2.29167 5.04688,4c1.36458,1.71875 2.41146,3.76042 3.14063,6.125c0.72917,2.36458 1.09375,4.95833 1.09375,7.78125v3.125c0,3.77083 -0.46875,7.23958 -1.40625,10.40625c-0.92708,3.16667 -2.36979,5.90104 -4.32812,8.20313c-1.94792,2.32292 -4.43229,4.13021 -7.45312,5.42188c-3.01042,1.29167 -6.60937,1.9375 -10.79687,1.9375h-0.6875v-7.57812h0.625c2.42708,0 4.52604,-0.26042 6.29688,-0.78125zM241.39051,180.88756c0.70833,-0.23958 1.35938,-0.57812 1.95313,-1.01562c0.5625,-0.40625 1.05208,-0.89583 1.46875,-1.46875c0.42708,-0.57292 0.77083,-1.19792 1.03125,-1.875v-3.21875c0,-1.73958 -0.18229,-3.26042 -0.54687,-4.5625c-0.35417,-1.30208 -0.84375,-2.38542 -1.46875,-3.25c-0.63542,-0.875 -1.375,-1.52604 -2.21875,-1.95312c-0.84375,-0.4375 -1.75521,-0.65625 -2.73437,-0.65625c-1.0625,0 -2.01042,0.25521 -2.84375,0.76563c-0.83333,0.51042 -1.53125,1.1875 -2.09375,2.03125c-0.57292,0.875 -1.01042,1.86979 -1.3125,2.98438c-0.30208,1.11458 -0.45312,2.28125 -0.45312,3.5c0,1.20833 0.14063,2.36979 0.42188,3.48438c0.28125,1.10417 0.71354,2.06771 1.29688,2.89063c0.57292,0.82292 1.29167,1.47917 2.15625,1.96875c0.86458,0.48958 1.88542,0.73438 3.0625,0.73438c0.82292,0 1.58333,-0.11979 2.28125,-0.35937z" fill="#ff0000" stroke-width="1" stroke-linecap="square"/><path d="M95.413,180c0,-79.8532 64.7338,-144.587 144.58701,-144.587c79.8532,0 144.587,64.7338 144.587,144.58701c0,79.8532 -64.7338,144.587 -144.587,144.587c-79.8532,0 -144.587,-64.7338 -144.587,-144.587z" fill="none" stroke-width="0" stroke-linecap="butt"/></g></g></svg>