<svg version="1.1" xmlns="http://www.w3.org/2000/svg" xmlns:xlink="http://www.w3.org/1999/xlink" width="289.17401" height="289.17401" viewBox="0,0,289.17401,289.17401"><g transform="translate(-95.41299,-35.41299)"><g data-paper-data="{&quot;isPaintingLayer&quot;:true}" fill-rule="nonzero" stroke="none" stroke-linejoin="miter" stroke-miterlimit="10" stroke-dasharray="" stroke-dashoffset="0" style="mix-blend-mode: normal"><path d="M255.96862,191.15317c-0.23958,1.51042 -0.58854,2.90625 -1.04687,4.1875c-0.5,1.40625 -1.15625,2.6875 -1.96875,3.84375c-0.8125,1.14583 -1.77083,2.09896 -2.875,2.85938c-1,0.71875 -2.125,1.26563 -3.375,1.64063c-1.25,0.38542 -2.61979,0.57813 -4.10937,0.57813c-1.375,0 -2.61979,-0.17187 -3.73437,-0.51562c-1.11458,-0.33333 -2.11979,-0.82292 -3.01562,-1.46875c-0.46875,-0.33333 -0.91146,-0.69792 -1.32812,-1.09375c-0.41667,-0.40625 -0.80729,-0.84896 -1.17187,-1.32812l-0.42187,3.75h-8.14062v-50h9.04688v17.96875c0.4375,-0.5 0.90625,-0.95833 1.40625,-1.375c0.5,-0.42708 1.03125,-0.79167 1.59375,-1.09375c0.80208,-0.45833 1.67188,-0.79687 2.60938,-1.01562c0.94792,-0.22917 1.97396,-0.34375 3.07813,-0.34375c1.52083,0 2.91667,0.19792 4.1875,0.59375c1.27083,0.38542 2.40625,0.94271 3.40625,1.67188c0.80208,0.5625 1.52604,1.24479 2.17188,2.04688c0.65625,0.79167 1.23438,1.65104 1.73438,2.57813c0.78125,1.5 1.35938,3.18229 1.73438,5.04688c0.38542,1.86458 0.57813,3.85938 0.57813,5.98438v0.6875c0,1.6875 -0.11979,3.28646 -0.35937,4.79688zM247.14051,182.9813c-0.08333,-0.875 -0.22396,-1.69271 -0.42187,-2.45312c-0.23958,-0.88542 -0.55208,-1.68229 -0.9375,-2.39062c-0.375,-0.70833 -0.94271,-1.35417 -1.70312,-1.9375c-0.48958,-0.36458 -1.05208,-0.64062 -1.6875,-0.82812c-0.625,-0.1875 -1.33854,-0.28125 -2.14062,-0.28125c-1.09375,0 -2.05208,0.15625 -2.875,0.46875c-0.82292,0.30208 -1.52604,0.74479 -2.10937,1.32813c-0.28125,0.28125 -0.54167,0.60417 -0.78125,0.96875c-0.23958,0.35417 -0.45833,0.73438 -0.65625,1.14063v14.03125c0.26042,0.54167 0.55729,1.03646 0.89063,1.48438c0.34375,0.44792 0.74479,0.83333 1.20313,1.15625c0.54167,0.40625 1.17188,0.71875 1.89063,0.9375c0.72917,0.21875 1.5625,0.32813 2.5,0.32813c0.80208,0 1.52604,-0.09896 2.17188,-0.29687c0.65625,-0.19792 1.22396,-0.46875 1.70313,-0.8125c0.66667,-0.47917 1.20833,-1.10417 1.625,-1.875c0.42708,-0.77083 0.75,-1.64062 0.96875,-2.60937c0.17708,-0.71875 0.30208,-1.5 0.375,-2.34375c0.08333,-0.85417 0.125,-1.73437 0.125,-2.64062v-0.6875c0,-0.92708 -0.04687,-1.82292 -0.14062,-2.6875z" fill="#ff0000" stroke-width="1" stroke-linecap="square"/><path d="M95.413,180c0,-79.8532 64.7338,-144.587 144.58701,-144.587c79.8532,0 144.587,64.7338 144.587,144.58701c0,79.8532 -64.7338,144.587 -144.587,144.587c-79.8532,0 -144.587,-64.7338 -144.587,-144.587z" fill="none" stroke-width="0" stroke-linecap="butt"/></g></g></svg>