<svg version="1.1" xmlns="http://www.w3.org/2000/svg" xmlns:xlink="http://www.w3.org/1999/xlink" width="656.66839" height="504.91712" viewBox="0,0,656.66839,504.91712"><defs><linearGradient x1="251.32505" y1="-35.32769" x2="251.32505" y2="244.61687" gradientUnits="userSpaceOnUse" id="color-1"><stop offset="0" stop-color="#63baf7"/><stop offset="1" stop-color="#63dcf7"/></linearGradient><linearGradient x1="250.69443" y1="208.10233" x2="250.69443" y2="383.18196" gradientUnits="userSpaceOnUse" id="color-2"><stop offset="0" stop-color="#d8c957"/><stop offset="1" stop-color="#f7e963"/></linearGradient><linearGradient x1="358.6931" y1="215.15002" x2="358.6931" y2="270.07927" gradientUnits="userSpaceOnUse" id="color-3"><stop offset="0" stop-color="#d8c957"/><stop offset="1" stop-color="#4f4a1f"/></linearGradient><linearGradient x1="152.71483" y1="273.83088" x2="152.71483" y2="317.56576" gradientUnits="userSpaceOnUse" id="color-4"><stop offset="0" stop-color="#d8c957"/><stop offset="1" stop-color="#4f4a1f"/></linearGradient><linearGradient x1="11.65297" y1="225.15002" x2="11.65297" y2="268.8849" gradientUnits="userSpaceOnUse" id="color-5"><stop offset="0" stop-color="#d8c957"/><stop offset="1" stop-color="#4f4a1f"/></linearGradient><linearGradient x1="348.72526" y1="340.00852" x2="348.72526" y2="383.7434" gradientUnits="userSpaceOnUse" id="color-6"><stop offset="0" stop-color="#d8c957"/><stop offset="1" stop-color="#4f4a1f"/></linearGradient><linearGradient x1="108.34838" y1="198.40304" x2="60.43928" y2="223.07351" gradientUnits="userSpaceOnUse" id="color-7"><stop offset="0" stop-color="#000000"/><stop offset="1" stop-color="#000000" stop-opacity="0"/></linearGradient><linearGradient x1="106.93929" y1="199.12864" x2="55.22214" y2="225.76006" gradientUnits="userSpaceOnUse" id="color-8"><stop offset="0" stop-color="#000000"/><stop offset="1" stop-color="#000000" stop-opacity="0"/></linearGradient><radialGradient cx="16.28865" cy="289.07668" r="23.49781" gradientUnits="userSpaceOnUse" id="color-9"><stop offset="0" stop-color="#000000"/><stop offset="1" stop-color="#000000" stop-opacity="0"/></radialGradient><radialGradient cx="45.86764" cy="300.19359" r="23.49783" gradientUnits="userSpaceOnUse" id="color-10"><stop offset="0" stop-color="#000000"/><stop offset="1" stop-color="#000000" stop-opacity="0"/></radialGradient><linearGradient x1="6.39102" y1="254.44688" x2="-12.60372" y2="204.01759" gradientUnits="userSpaceOnUse" id="color-11"><stop offset="0" stop-color="#000000"/><stop offset="1" stop-color="#000000" stop-opacity="0"/></linearGradient><linearGradient x1="5.83235" y1="252.96367" x2="-14.67222" y2="198.52601" gradientUnits="userSpaceOnUse" id="color-12"><stop offset="0" stop-color="#000000"/><stop offset="1" stop-color="#000000" stop-opacity="0"/></linearGradient><radialGradient cx="49.49207" cy="291.04776" r="23.49783" gradientUnits="userSpaceOnUse" id="color-13"><stop offset="0" stop-color="#000000"/><stop offset="1" stop-color="#000000" stop-opacity="0"/></radialGradient><radialGradient cx="70.69604" cy="267.61927" r="23.49783" gradientUnits="userSpaceOnUse" id="color-14"><stop offset="0" stop-color="#000000"/><stop offset="1" stop-color="#000000" stop-opacity="0"/></radialGradient></defs><g transform="translate(96.98361,95.66748)"><g data-paper-data="{&quot;isPaintingLayer&quot;:true}" fill-rule="nonzero" stroke-miterlimit="10" stroke-dasharray="" stroke-dashoffset="0" style="mix-blend-mode: normal"><path d="M-56.03467,244.61687v-279.94456h614.71945v279.94456z" fill="url(#color-1)" stroke="#000000" stroke-width="2" stroke-linecap="butt" stroke-linejoin="miter"/><path d="M-44.80557,383.18196v-175.07963h591v175.07963z" fill="url(#color-2)" stroke="none" stroke-width="0" stroke-linecap="butt" stroke-linejoin="miter"/><path d="M432.20136,242.61465c0,15.16829 -32.91077,27.46463 -73.50826,27.46463c-40.59749,0 -73.50826,-12.29633 -73.50826,-27.46463c0,-15.16829 32.91077,-27.46463 73.50826,-27.46463c40.59749,0 73.50826,12.29633 73.50826,27.46463z" fill="url(#color-3)" stroke="none" stroke-width="0" stroke-linecap="butt" stroke-linejoin="miter"/><path d="M211.24239,295.69832c0,12.07705 -26.20368,21.86744 -58.52756,21.86744c-32.32388,0 -58.52756,-9.79038 -58.52756,-21.86744c0,-12.07705 26.20368,-21.86744 58.52756,-21.86744c32.32388,0 58.52756,9.79038 58.52756,21.86744z" fill="url(#color-4)" stroke="none" stroke-width="0" stroke-linecap="butt" stroke-linejoin="miter"/><path d="M70.18053,247.01746c0,12.07706 -26.20369,21.86744 -58.52756,21.86744c-32.32387,0 -58.52755,-9.79038 -58.52755,-21.86744c0,-12.07705 26.20368,-21.86744 58.52755,-21.86744c32.32387,0 58.52756,9.79039 58.52756,21.86744z" fill="url(#color-5)" stroke="none" stroke-width="0" stroke-linecap="butt" stroke-linejoin="miter"/><path d="M407.25282,361.87596c0,12.07706 -26.20369,21.86744 -58.52756,21.86744c-32.32387,0 -58.52755,-9.79038 -58.52755,-21.86744c0,-12.07705 26.20368,-21.86744 58.52755,-21.86744c32.32387,0 58.52756,9.79039 58.52756,21.86744z" fill="url(#color-6)" stroke="none" stroke-width="0" stroke-linecap="butt" stroke-linejoin="miter"/><text transform="translate(-96.73361,-75.41748) scale(0.5,0.5)" font-size="40" xml:space="preserve" fill="#c8ba50" fill-rule="nonzero" stroke="none" stroke-width="1" stroke-linecap="butt" stroke-linejoin="miter" stroke-miterlimit="10" stroke-dasharray="" stroke-dashoffset="0" font-family="Marker" font-weight="normal" text-anchor="start" style="mix-blend-mode: normal"><tspan x="0" dy="0"> </tspan></text><g fill="#b5a849" stroke="none" stroke-width="1" stroke-linecap="butt" stroke-linejoin="miter"><path d="M152.04979,126.64306c-4.33367,0 -7.57228,-0.06989 -9.71581,-0.20969c-3.3085,-0.1398 -6.19762,-0.55142 -8.66735,-1.23486c-0.27959,0 -0.55919,-0.41939 -0.83878,-1.25816c-0.20193,-0.62132 -0.30288,-1.10283 -0.30288,-1.44456l-1.98043,-37.62841v-2.07364c0,-0.48153 0.03106,-1.33582 0.0932,-2.56292c0.07766,-1.24262 0.1165,-2.90465 0.1165,-4.98606l0.2097,-5.35885c0,-1.38242 0.03883,-2.41536 0.1165,-3.0988c0,-2.0814 0.06991,-4.08514 0.2097,-6.01123c0,-0.62132 0.01553,-1.04846 0.0466,-1.28146c0.03106,-0.24853 0.0466,-0.40385 0.0466,-0.46599c0.1398,-0.07766 0.3961,-0.27182 0.76889,-0.58247c0.38833,-0.31065 0.71451,-0.56695 0.97857,-0.76887c0.69898,-0.62132 1.70086,-0.93197 3.00562,-0.93197h7.64219c0.69898,0.07766 1.98045,0.1165 3.8444,0.1165c1.9882,0 3.60363,0.03106 4.84626,0.0932h10.13522c1.78629,0 2.99008,0.27959 3.6114,0.83877c0.82324,0.62132 1.23487,1.82512 1.23487,3.6114v1.02517c0,0.27959 -0.03106,0.55918 -0.0932,0.83877c-0.06214,0.26406 -0.09319,0.53589 -0.09319,0.81548l-0.20969,1.65426l-0.11649,1.23487c0,0.27959 0.0699,0.55918 0.2097,0.83877c0.07766,0.27959 0.1165,0.62132 0.1165,1.02517c0,1.86394 -0.03883,3.20754 -0.11649,4.03079l-0.0932,4.24048h2.67943c0.90091,0.21745 1.86394,0.32619 2.88912,0.32619c1.38242,0.12426 2.35324,0.1864 2.91243,0.1864c0.60578,0.1398 1.52999,0.2097 2.77263,0.2097l0.1165,-7.01309c0.06214,-0.62132 0.0932,-1.52221 0.0932,-2.70272l0.1165,-4.24048v-0.81547c0,-1.10283 0.03106,-2.0814 0.0932,-2.93572c0.07766,-0.86984 0.21745,-1.47562 0.41939,-1.81735c0.40385,-0.55918 0.88538,-0.83877 1.44456,-0.83877c0.41939,-0.1398 1.38242,-0.20969 2.88912,-0.20969l2.79592,-0.0932c2.00374,0 3.658,-0.06989 4.96277,-0.20969h5.89474c2.74932,0 4.7453,-0.03106 5.98794,-0.0932c2.42313,0 4.07739,-0.03883 4.96276,-0.11649h2.79592c1.66201,0 2.76486,0.2097 3.3085,0.62909c0.41939,0.27959 0.69121,0.67569 0.81548,1.18828c0.1398,0.51259 0.2097,1.25039 0.2097,2.21344c0,2.68718 -0.06989,6.30636 -0.20969,10.85749c-0.26406,4.41133 -0.39608,7.9606 -0.39608,10.6478c0,0.41939 0.06991,0.76889 0.2097,1.04848c0,0.26406 0.03106,0.48153 0.0932,0.65238c0.06214,0.17086 0.0932,0.29513 0.0932,0.37279l-2.56293,39.28267c0,0.34173 -0.24076,0.82324 -0.72227,1.44456c-0.62132,0.62132 -1.17274,0.93197 -1.65425,0.93197h-28.44847c-0.20193,0 -0.41162,-0.17085 -0.62908,-0.51258c-0.20193,-0.34173 -0.36502,-0.79218 -0.48928,-1.35136c-0.07766,-0.34173 -0.17085,-0.79994 -0.27959,-1.37465c-0.0932,-0.59025 -0.17863,-1.33582 -0.25629,-2.23674l-1.11837,-19.12874h-0.74558c-1.84841,0 -3.32404,-0.03106 -4.42687,-0.0932c-2.62506,-0.1398 -4.24825,-0.20969 -4.86955,-0.20969h-0.81547c-0.62132,0 -0.93197,0.58249 -0.93197,1.74746c0,8.54309 -0.03883,13.98737 -0.11649,16.33284c0,0.55918 -0.10097,1.87171 -0.30288,3.93759c-0.1398,1.58435 -0.72227,2.54739 -1.74744,2.88912l-1.56105,0.0932c-5.37438,0.27959 -9.13334,0.45821 -11.27688,0.53589z"/><path d="M257.39553,128.6002c-0.54365,0 -1.29699,-0.06989 -2.26003,-0.20969c-0.48153,-0.1398 -1.24262,-0.20969 -2.28333,-0.20969c-2.62506,0 -5.86366,-0.58248 -9.71581,-1.74744h-0.72227c-0.48153,0 -1.00186,-0.1398 -1.56104,-0.41939c-0.1398,-0.1398 -0.31066,-0.25628 -0.51259,-0.34948c-0.20193,-0.10874 -0.44268,-0.26406 -0.72227,-0.46599l-2.16683,-1.25816c-2.06588,-1.16497 -3.89098,-2.79592 -5.47533,-4.89286c-1.58435,-2.11248 -2.85806,-4.44241 -3.82109,-6.9898c-1.86394,-4.69093 -2.79592,-9.48282 -2.79592,-14.37568c0,-5.4365 1.10283,-10.67109 3.3085,-15.70375c2.34547,-5.31225 5.48311,-9.51389 9.41293,-12.60493c4.33367,-3.4483 9.15664,-5.17245 14.46889,-5.17245c1.64649,0 2.92018,0.06991 3.82109,0.2097c0,-0.1398 0.10097,-0.20969 0.3029,-0.20969h0.32619c4.8152,0 9.1178,0.17085 12.90783,0.51258c3.24637,0.48153 6.24422,1.48339 8.99354,3.00562c5.51418,3.65023 9.47506,7.64218 11.88266,11.97585c2.56293,4.83072 3.8444,10.51576 3.8444,17.05511c0,6.55487 -1.55329,12.69037 -4.65987,18.40647l-1.02517,1.65426c-0.27959,0.41939 -0.45822,0.62909 -0.53588,0.62909l-0.30288,0.51259l-0.72227,0.41939c-2.96678,4.41133 -7.44802,7.40919 -13.44371,8.99354c-3.99195,0.82324 -9.50613,1.23487 -16.54252,1.23487zM259.16628,120.84153c0.62132,0 1.10283,-0.38056 1.44456,-1.14166c0.82324,-1.24262 1.51446,-3.65023 2.07365,-7.22279c0.06214,-0.62132 0.22523,-1.99597 0.4893,-4.12397c0.27959,-2.14354 0.45821,-4.14728 0.53589,-6.01123c0.27959,-4.69093 0.41939,-7.58781 0.41939,-8.69064v-3.192c0,-2.48527 -0.10874,-4.62104 -0.32619,-6.40731c-0.20193,-2.82698 -0.61355,-5.07148 -1.23486,-6.7335c-0.62132,-0.82324 -1.10283,-1.23486 -1.44456,-1.23486c-0.68344,0 -1.33582,0.51258 -1.95714,1.53775c-0.62132,1.04071 -1.10283,2.94348 -1.44456,5.70834l-2.19014,16.51923v3.42501c0.21745,2.88912 0.32619,4.78412 0.32619,5.68504l0.2097,2.46973l0.3029,3.3085c0,0.55918 0.06991,1.04071 0.2097,1.44456l1.14167,3.8444c0.06214,0.26406 0.24853,0.46599 0.55918,0.60578c0.31065,0.1398 0.60579,0.2097 0.88538,0.2097z"/><path d="M398.00316,138.82862c-0.41939,0 -1.45233,-0.27183 -3.09881,-0.81547c-0.27959,-0.07766 -0.69898,-0.24853 -1.25816,-0.51258c-0.48153,-0.21745 -0.9242,-0.32619 -1.32806,-0.32619c-0.27959,0 -0.76112,-0.17086 -1.44456,-0.51259c-0.48153,-0.34173 -0.93197,-0.51258 -1.35136,-0.51258l-1.23486,-0.30288c-0.41939,0 -0.69898,-0.03883 -0.83878,-0.11649c-0.20193,0 -0.30288,-0.03106 -0.30288,-0.0932c-2.20567,-0.48153 -4.45016,-1.2737 -6.7335,-2.37653l-6.71021,-2.79592c-0.48153,-0.21745 -0.72227,-0.56696 -0.72227,-1.04846c0,-0.40385 0.10097,-0.81547 0.3029,-1.23486l2.79592,-4.84626c0.68344,-1.3203 1.64649,-2.87358 2.88912,-4.65987c0.48153,-0.48153 0.96303,-1.34359 1.44456,-2.58621c0.41939,-0.96303 0.62909,-1.54552 0.62909,-1.74744c-1.02517,-2.00374 -2.3377,-4.13951 -3.93758,-6.40731c-1.58435,-2.76486 -2.85805,-4.59773 -3.82109,-5.49864c-0.1398,-0.34173 -0.45045,-0.89314 -0.93198,-1.65425c-1.10283,-1.92608 -1.61541,-2.81921 -1.53775,-2.67942l-1.77075,-3.0988c-0.48153,-0.68344 -1.064,-1.71638 -1.74744,-3.0988c-0.41939,-0.69898 -0.86984,-1.56105 -1.35136,-2.58622c-0.62132,-1.04071 -0.96303,-1.66202 -1.02517,-1.86395c-0.55918,-0.62132 -1.49116,-2.27557 -2.79592,-4.96275c-1.24262,-2.74932 -1.86394,-4.40356 -1.86394,-4.96275c0,-0.27959 0.27182,-0.63685 0.81548,-1.07177c0.55918,-0.45045 1.18827,-0.91643 1.88725,-1.39796c2.20567,-1.04071 3.65024,-1.66202 4.33368,-1.86395c0.90091,-0.41939 1.67755,-0.76112 2.32993,-1.02517c0.65238,-0.27959 1.18827,-0.52812 1.60766,-0.74558c1.58435,-0.76112 3.79003,-1.69309 6.61701,-2.79592c0.54365,-0.26406 1.84841,-0.81547 3.91429,-1.65425c0.76112,-0.20193 1.45233,-0.30288 2.07365,-0.30288c0.40385,0 0.74558,0.1398 1.02517,0.41939c0.27959,0.1398 0.69121,0.69121 1.23487,1.65426l3.6347,7.85188c2.06588,4.34921 3.51044,7.27716 4.33367,8.78385c0.1398,0.21745 0.27959,0.48153 0.41939,0.79218c0.1398,0.31065 0.27959,0.52813 0.41939,0.65238c0.40385,0.55918 0.77664,0.83877 1.11837,0.83877c0.21745,0 0.41162,-0.10096 0.58249,-0.30288c0.17086,-0.21745 0.28736,-0.39608 0.3495,-0.53588l7.0364,-18.49967c0.27959,-0.90091 0.86983,-1.59213 1.77075,-2.07364c0.74558,-0.48153 1.66979,-0.65238 2.77263,-0.51258c4.48901,1.44456 7.79751,2.61729 9.92551,3.51821c4.20942,1.72415 7.31599,3.23861 9.31974,4.54338c0.68344,0.35725 1.14167,0.79217 1.37467,1.30476c0.24853,0.51259 0.27182,1.00963 0.0699,1.49116c-0.07766,0.62132 -0.24853,1.14167 -0.51258,1.56106l-0.62908,1.23487l-16.54252,35.88097l-0.83877,2.05034l-10.11191,19.33845c-0.48153,0.82324 -0.91643,1.39019 -1.30476,1.70086c-0.37279,0.31065 -0.79994,0.46599 -1.28145,0.46599z"/><path d="M333.48959,126.52657l-1.35136,-0.20969h-1.65425c-1.02517,-0.1398 -2.81146,-0.27182 -5.35884,-0.39608c-0.55918,0 -1.07954,-0.03106 -1.56105,-0.0932c-0.48153,-0.07766 -0.93197,-0.11649 -1.35136,-0.11649h-2.26003l-1.04846,-0.11649c-2.20567,0 -3.82109,0.03883 -4.84626,0.1165c-1.04071,0.1398 -2.66389,0.2097 -4.86955,0.2097h-2.05034l-1.86395,0.0932l-0.32619,-0.41939v-15.19115c0,-1.64649 -0.06989,-2.85029 -0.20968,-3.61139v-2.49302l0.41939,-4.45016c0.21745,-2.74932 0.32619,-6.71021 0.32619,-11.88266c0.12426,-8.34116 0.63684,-14.36792 1.53776,-18.08028c0.48153,-2.00374 1.2737,-3.27745 2.37653,-3.82109l12.09236,0.0932c1.04071,0.06214 2.52409,0.09319 4.45018,0.09319h4.96277c0.34173,0.07766 0.97857,0.15534 1.91055,0.233c0.93197,0.06214 1.63872,0.22522 2.12024,0.48929c0.41939,0.35725 0.71452,0.83101 0.88538,1.42126c0.17086,0.57472 0.2563,1.4135 0.2563,2.51633l-0.11649,0.83878v1.23487c-0.20193,0.48153 -0.30288,0.96303 -0.30288,1.44456c-0.1398,0.54365 -0.17086,1.09508 -0.0932,1.65426v1.53775c0.06214,0.35725 0.0932,0.84655 0.0932,1.46787l0.1165,0.81548v2.37653l0.0932,3.3085c0.06214,0.69898 0.0932,1.66202 0.0932,2.88912c0.1398,0.96303 0.31842,1.62318 0.53589,1.98045c0,0.48153 -0.03883,1.00188 -0.11649,1.56106c-0.06214,0.54365 -0.0932,1.08731 -0.0932,1.63095c-0.07766,0.82324 -0.11649,2.06588 -0.11649,3.72789c0,1.58435 0.03883,2.75709 0.1165,3.51821c0,1.10283 0.17085,2.23674 0.51258,3.4017c0.68344,0.27959 1.47562,0.41939 2.37653,0.41939c2.26779,0 4.62104,-0.03106 7.0597,-0.0932c2.45419,-0.07766 4.6521,-0.28736 6.59372,-0.62908c0.40385,0.06214 0.79218,0.33396 1.16497,0.81549c0.38833,0.48153 0.58249,0.90091 0.58249,1.25816l-0.72227,17.77739c-0.1398,0.40385 -0.41162,0.67569 -0.81547,0.81548c-1.1805,0.55918 -2.80369,0.90869 -4.86955,1.04848c-2.74932,0.40385 -4.57444,0.60578 -5.47534,0.60578h-1.77075c-1.3669,0 -2.39983,0.03883 -3.09881,0.1165c-1.3669,0.1398 -2.32993,0.2097 -2.88912,0.2097z"/></g><g fill="#b5a849" stroke="none" stroke-width="1" stroke-linecap="square" stroke-linejoin="miter"><path d="M150.45095,193.24795c-2.40889,0 -4.43572,-0.05827 -6.08049,-0.17483c-1.63183,-0.10361 -3.16652,-0.35615 -4.60408,-0.75763c-0.23312,0 -0.40795,-0.12952 -0.52451,-0.38853c-0.11656,-0.25901 -0.20075,-0.44681 -0.25254,-0.56337c-0.06475,-0.28492 -0.09713,-0.6346 -0.09713,-1.04903c-0.33672,-5.80206 -0.64755,-10.30901 -0.93247,-13.52085c-0.29787,-3.79464 -0.4468,-8.53472 -0.4468,-14.22021v-2.15633l0.09713,-3.28307l0.17485,-3.86587l0.07771,-2.15634c0.06475,-0.40149 0.09714,-1.03608 0.09714,-1.9038v-3.28307c0,-1.08788 0.0259,-1.80666 0.07771,-2.15633c0,-0.16836 0.11655,-0.25254 0.34967,-0.25254c0.51805,0 0.97781,-0.11655 1.37929,-0.34967c0.16836,0 0.44034,-0.01296 0.81591,-0.03886c0.37557,-0.0259 0.70583,-0.01295 0.99076,0.03886h14.74475c1.02313,0 1.79372,0.03237 2.31176,0.09713l2.60315,0.07771c0.62165,0 1.08789,0.04533 1.39871,0.13599c0.32378,0.09066 0.56984,0.27845 0.7382,0.56337c0.18131,0.16836 0.29787,0.51157 0.34968,1.02961c0.06475,0.51805 0.09714,1.09437 0.09714,1.72897v1.88437c0,0.5828 0.0259,0.99076 0.07771,1.22388v1.457c0.06475,0.23312 0.09714,0.51804 0.09714,0.85476l-0.09713,2.58374c-0.05181,0.5828 -0.07771,1.41814 -0.07771,2.50602c0,0.6346 0.05829,1.06846 0.17485,1.30158c0.16836,0.28492 0.42091,0.42738 0.75764,0.42738c0.11656,0 0.40796,-0.05827 0.8742,-0.17483c0.16836,0 0.39501,-0.0259 0.67994,-0.07771c0.28492,-0.06475 0.60223,-0.09713 0.9519,-0.09713h0.85477c0.29787,0.11656 0.81591,0.17485 1.55412,0.17485c0.29787,0 0.56984,-0.0259 0.81592,-0.07771c0.25902,-0.06475 0.50509,-0.09713 0.73821,-0.09713c0.51805,0 0.77706,-0.05828 0.77706,-0.17484v-4.81777c0,-0.86772 0.03238,-1.5606 0.09714,-2.07863v-2.40889c0.05181,-0.56984 0.07771,-1.37281 0.07771,-2.40888c0,-0.98428 0.0259,-1.64478 0.07771,-1.9815v-1.30157h0.69935c0.34967,0 0.52452,-0.11656 0.52452,-0.34968h4.13786c1.72249,0 3.01112,0.05829 3.86588,0.17485c1.50232,0.11656 2.71323,0.17485 3.63277,0.17485l5.42001,-0.17484c0.86772,-0.11656 1.9297,-0.17483 3.18595,-0.17483h2.25348c1.13969,0 1.91027,0.11655 2.31176,0.34967c0.40149,0.23312 0.60223,0.80944 0.60223,1.72897v6.79928c0,1.15264 -0.02589,2.07217 -0.0777,2.75857l-0.07771,2.07865c0,0.91952 -0.05828,2.2988 -0.17484,4.13785l-0.09713,1.457l0.09714,1.37929l-0.87419,27.33311c0,0.16836 -0.16837,0.54395 -0.50509,1.12674c-0.34967,0.45328 -0.69287,0.67994 -1.0296,0.67994h-6.04164c-2.24052,0 -4.45514,-0.08418 -6.64387,-0.25254c-1.43756,-0.06475 -3.5939,-0.09713 -6.46902,-0.09713h-1.45699c-0.80296,0 -1.3469,-0.28493 -1.63183,-0.85477c-0.23312,-0.75117 -0.37557,-1.72895 -0.42738,-2.93339l-0.87419,-14.22022h-0.85477c-1.38575,0 -2.38945,-0.03238 -3.0111,-0.09713c-0.5828,-0.1036 -0.87419,-0.15541 -0.87419,-0.15541h-3.53562c-0.22017,0 -0.36264,0.08419 -0.42739,0.25255c-0.05181,0.16836 -0.0777,0.35615 -0.0777,0.56337c0,0.19427 0,16.29886 0,16.41541c0,0.16836 -0.03238,0.33026 -0.09713,0.48567c-0.05181,0.14245 -0.0777,0.26549 -0.0777,0.36911c-0.06475,0.18131 -0.20722,0.27197 -0.42739,0.27197c-0.06475,0 -0.15541,0.03238 -0.27197,0.09714c-0.11656,0.05181 -0.25902,0.1036 -0.42738,0.15541c-2.12396,0 -4.13784,0.08418 -6.04164,0.25255z"/><path d="M108.98679,195.05462c-3.79464,0 -6.9547,-0.16837 -9.48014,-0.50509c-3.27661,-0.46623 -6.23591,-1.30157 -8.87791,-2.50601c-0.34968,-0.16836 -0.85477,-0.44034 -1.51527,-0.81592c-0.6605,-0.37558 -1.2174,-0.73173 -1.67068,-1.06845c-1.9038,-1.61887 -3.45792,-3.43202 -4.66237,-5.43943c-0.97132,-1.03607 -1.85846,-2.47364 -2.66142,-4.31269c-1.55412,-4.01482 -2.33119,-8.81316 -2.33119,-14.39505c0,-6.55321 1.3469,-12.29698 4.04072,-17.23131c2.35708,-4.71418 5.50418,-8.40521 9.44129,-11.07312c3.93711,-2.68086 8.40521,-4.18965 13.4043,-4.52638l1.04904,-0.09713h1.10731c4.48105,0 9.31177,0.91952 14.49218,2.75857c0.45328,0.23312 1.457,0.69935 3.01112,1.39871c1.55412,0.6864 2.99169,1.457 4.31269,2.31177l-1.55412,11.2091l-5.08975,-1.30157c-1.83905,-0.45328 -3.56152,-0.67992 -5.16745,-0.67992c-3.2248,0 -5.64017,1.20444 -7.24609,3.61333c-1.72249,2.52544 -2.58372,6.63739 -2.58372,12.33585c0,1.83905 0.08419,3.12767 0.25255,3.86588c0.23312,3.62629 1.04255,6.30067 2.42832,8.02316c1.321,1.48937 2.90102,2.23405 4.74007,2.23405c1.72249,0 3.64571,-0.54395 5.76968,-1.63183c1.83905,-0.86772 3.85293,-2.04626 6.04166,-3.53563l0.85477,14.14251c-2.24052,2.07216 -5.11565,3.82056 -8.62538,5.24516c-3.32841,1.32101 -6.48845,1.98151 -9.48014,1.98151z"/><path d="M328.0107,194.72436l-1.9815,-0.34967c-1.89085,-0.28492 -3.47087,-0.62813 -4.74007,-1.0296c-0.6864,-0.06475 -1.28863,-0.26549 -1.80666,-0.60222c-0.46623,-0.18131 -0.75763,-0.41443 -0.87419,-0.69935l-1.88437,-10.68459v-0.42738c0,-0.40148 0.03886,-0.69936 0.11656,-0.89362c0.09066,-0.20722 0.27845,-0.3432 0.56338,-0.40795c3.74284,1.43756 7.42093,2.15635 11.03427,2.15635c1.15263,0 2.04625,0.03238 2.68086,0.09714c2.17577,0 3.75579,-0.2914 4.74007,-0.87419c0.51804,-0.33672 0.77706,-0.82239 0.77706,-1.45698c0,-0.91952 -0.2914,-1.67716 -0.87419,-2.2729c-0.56984,-0.6087 -1.39871,-1.14616 -2.4866,-1.6124l-2.75856,-1.0296c-0.80296,-0.16836 -1.72249,-0.48566 -2.75856,-0.9519c0,-0.05181 -0.03238,-0.09066 -0.09713,-0.11656c-0.05181,-0.03886 -0.11009,-0.11656 -0.17484,-0.23312c-0.22017,-0.05181 -0.70583,-0.33672 -1.45698,-0.85476l-0.52451,-0.25254c0.11656,0 0.17485,-0.02589 0.17485,-0.0777c0,-0.06475 -0.08418,-0.12951 -0.25254,-0.19427c-0.16836,-0.11656 -0.49861,-0.29787 -0.99075,-0.54394c-0.49214,-0.25902 -0.90658,-0.56337 -1.2433,-0.91304c-0.51804,-0.28492 -0.77706,-0.62812 -0.77706,-1.0296v-0.42739c-1.43756,0 -2.67438,-1.49583 -3.71045,-4.48752c-0.86772,-3.04349 -1.30158,-5.19983 -1.30158,-6.46902c0,-5.34877 2.29881,-9.45424 6.89642,-12.31641c3.74284,-2.35708 8.88439,-3.94358 15.42466,-4.75949c4.26088,-0.45328 9.55137,-0.67992 15.87147,-0.67992c0.80296,0.28492 1.43108,0.45976 1.88438,0.52453c1.03607,0.05181 1.72897,0.395 2.07864,1.02961c0.16836,0.28492 0.31082,0.86124 0.42738,1.72896c0.16836,0.91952 0.34321,3.58743 0.52453,8.00373c0.11656,0.11656 0.17485,0.2914 0.17485,0.52453c0,0.45328 -0.63461,0.82887 -1.9038,1.12673c-1.37281,0.16836 -2.26643,0.25256 -2.68086,0.25256l-1.9815,0.25255c-2.24052,0.28492 -3.704,0.48566 -4.3904,0.60222c-2.35708,0.40149 -3.99538,1.12026 -4.9149,2.15635c-0.56984,0.6864 -0.85477,1.40519 -0.85477,2.15635c0,0.40149 0.05829,0.71878 0.17485,0.95191c0.11656,0.23312 0.40149,0.49214 0.85477,0.77706c0.51804,0.28492 2.01388,1.0037 4.48753,2.15635c2.642,1.13969 5.28402,2.62905 7.92602,4.4681c2.24052,1.55412 3.85293,3.62629 4.83721,6.21649c0.50509,1.08789 0.75764,2.52544 0.75764,4.31268c0,1.60593 -0.20074,2.98521 -0.60222,4.13786c-1.48937,3.79464 -4.29973,6.89642 -8.43111,9.30531c-1.9556,1.15263 -4.00187,2.05921 -6.13878,2.71971c-2.12396,0.6605 -4.15728,0.99076 -6.09993,0.99076l-12.68551,0.25255z"/><path d="M266.7274,192.64573c-0.11656,0 -0.20074,-0.11008 -0.25254,-0.33024c-0.40148,-0.51804 -0.69287,-1.15264 -0.87418,-1.9038c-0.16836,-0.28492 -0.31083,-0.6605 -0.42739,-1.12673c-0.51804,-1.03607 -0.89362,-2.47364 -1.12673,-4.31269c-0.22017,-2.642 -0.33024,-4.74007 -0.33024,-6.29419c-0.06475,-0.6864 -0.09713,-1.63183 -0.09713,-2.83628v-2.05921c0,-1.73543 -0.02589,-3.08881 -0.0777,-4.06014c-0.06475,-1.03608 -0.09713,-3.07587 -0.09713,-6.11935c0,-8.15914 0.17485,-14.45333 0.52452,-18.88258c0,-0.6864 0.97781,-1.20445 2.93341,-1.55412h4.74008c3.27661,0 5.71787,0.05829 7.3238,0.17485c2.40889,0.18131 4.85015,0.27197 7.3238,0.27197c0.58279,0 1.01666,-0.03238 1.30159,-0.09713h1.28215l0.42739,0.34968c1.9038,-0.40149 3.8594,-0.66051 5.86681,-0.77707c2.00741,-0.11656 4.44867,-0.17483 7.3238,-0.17483c0.11656,0 0.25902,0.08418 0.42739,0.25255h2.75857c0.46623,0 0.82887,0.25902 1.08788,0.77706c0.25901,0.51805 0.47271,1.26919 0.64108,2.25348c0.23312,0.73821 0.40797,1.65773 0.52453,2.75857c0.23312,1.43756 0.43386,2.38299 0.60222,2.83627c0,1.60593 -0.28492,2.40889 -0.85476,2.40889c-0.06475,0 -0.15541,-0.08418 -0.27197,-0.25254l-0.34968,-0.07771c-0.28492,-0.06475 -0.59575,-0.03885 -0.93247,0.07771c-0.34967,0.16836 -0.72526,0.25255 -1.12674,0.25255c-0.34967,0 -0.6346,-0.08419 -0.85477,-0.25254c-0.11656,-0.05181 -0.37558,-0.0777 -0.77706,-0.0777c-0.51804,0 -1.12674,0.08418 -1.82609,0.25255c-0.22017,0.05181 -0.66051,0.136 -1.32101,0.25256c-0.6605,0.11656 -1.4246,0.17485 -2.29233,0.17485c-2.47364,0 -4.2544,0.05828 -5.34229,0.17484c-0.63461,0.05181 -1.23682,0.22665 -1.80666,0.52453v-0.17484c-0.23312,0 -0.43386,0.28493 -0.60222,0.85477c-0.40148,0.98428 -0.6605,2.33766 -0.77706,4.06015c-0.06475,0.51805 -0.09713,1.08788 -0.09713,1.70953c0,0.6346 0.10361,1.06847 0.31083,1.30159c0.20722,0.23312 0.53746,0.34967 0.99075,0.34967c0.34967,0 0.63461,-0.11655 0.85477,-0.34967c0.11656,0 0.25901,0.03238 0.42738,0.09714c0.18131,0.05181 0.33026,0.13599 0.44682,0.25255h7.3238c0.05181,-0.11656 0.136,-0.20074 0.25256,-0.25254c0.11656,-0.06475 0.23311,-0.09713 0.34967,-0.09713c0.56984,0 0.99723,0.08418 1.28215,0.25255c0.34967,0.18131 1.04255,0.35616 2.07864,0.52452c0.56984,0 0.97133,0.16837 1.20445,0.50509c0.28492,0.41443 0.42738,0.79002 0.42738,1.12674l1.80667,5.69198c0.18131,0.91952 -0.67992,1.52175 -2.58372,1.80667c-1.08789,0.23312 -3.18595,0.34968 -6.2942,0.34968h-6.27476c-0.81592,0 -1.4246,0.04533 -1.82609,0.13599c-0.40148,0.07771 -0.6605,0.29141 -0.77706,0.64108c-0.22017,0.28492 -0.33025,0.74469 -0.33025,1.37929v0.34967c0,0.28493 0.0259,0.48567 0.07771,0.60223l-0.07771,1.88438c-0.06475,0.40148 -0.09712,1.0037 -0.09712,1.80667v2.15635c2.5902,0 5.2322,-0.08418 7.92601,-0.25254c2.65496,-0.16836 5.27106,-0.25254 7.84832,-0.25254c0.18131,0 0.32378,0.12952 0.42739,0.38853c0.11656,0.25901 0.17485,0.5569 0.17485,0.89362c0.11656,0.34967 0.17485,0.72525 0.17485,1.12673c0.11656,0.86772 0.2914,1.67068 0.52452,2.40889l0.60223,2.50603v2.66145l-0.69936,0.62165h-0.85476c-0.63461,0 -1.03608,-0.03238 -1.20444,-0.09713c-0.16836,-0.11656 -0.3691,-0.17483 -0.60222,-0.17483c-0.11656,0.06475 -0.29139,0.15542 -0.52451,0.27197c-0.23312,0.10361 -0.43386,0.21369 -0.60222,0.33025v-0.42738l-1.0296,0.09714h-1.30157c-0.22017,0 -0.38853,-0.05827 -0.50509,-0.17483l-0.69936,-0.09713c-2.12396,0 -3.61981,0.20074 -4.48752,0.60223z"/><path d="M212.16574,192.64573c-0.11656,0 -0.20075,-0.11008 -0.25254,-0.33024c-0.40149,-0.51804 -0.69288,-1.15264 -0.87419,-1.9038c-0.16836,-0.28492 -0.31082,-0.6605 -0.42738,-1.12673c-0.51805,-1.03607 -0.89362,-2.47364 -1.12674,-4.31269c-0.22017,-2.642 -0.33025,-4.74007 -0.33025,-6.29419c-0.06475,-0.6864 -0.09712,-1.63183 -0.09712,-2.83628v-2.05921c0,-1.73543 -0.0259,-3.08881 -0.07771,-4.06014c-0.06475,-1.03608 -0.09713,-3.07587 -0.09713,-6.11935c0,-8.15914 0.17485,-14.45333 0.52452,-18.88258c0,-0.6864 0.97781,-1.20445 2.93341,-1.55412h4.74008c3.27661,0 5.71787,0.05829 7.3238,0.17485c2.40889,0.18131 4.85016,0.27197 7.3238,0.27197c0.5828,0 1.01666,-0.03238 1.30159,-0.09713h1.28215l0.42738,0.34968c1.9038,-0.40149 3.8594,-0.66051 5.86681,-0.77707c2.00741,-0.11656 4.44868,-0.17483 7.3238,-0.17483c0.11656,0 0.25902,0.08418 0.42739,0.25255h2.75857c0.46624,0 0.82887,0.25902 1.08789,0.77706c0.25902,0.51805 0.47271,1.26919 0.64108,2.25348c0.23312,0.73821 0.40796,1.65773 0.52452,2.75857c0.23312,1.43756 0.43386,2.38299 0.60223,2.83627c0,1.60593 -0.28492,2.40889 -0.85476,2.40889c-0.06475,0 -0.15542,-0.08418 -0.27197,-0.25254l-0.34967,-0.07771c-0.28492,-0.06475 -0.59575,-0.03885 -0.93248,0.07771c-0.34967,0.16836 -0.72525,0.25255 -1.12673,0.25255c-0.34967,0 -0.6346,-0.08419 -0.85477,-0.25254c-0.11656,-0.05181 -0.37557,-0.0777 -0.77706,-0.0777c-0.51805,0 -1.12673,0.08418 -1.82609,0.25255c-0.22017,0.05181 -0.66051,0.136 -1.32101,0.25256c-0.6605,0.11656 -1.42461,0.17485 -2.29233,0.17485c-2.47364,0 -4.2544,0.05828 -5.34229,0.17484c-0.6346,0.05181 -1.23682,0.22665 -1.80666,0.52453v-0.17484c-0.23312,0 -0.43386,0.28493 -0.60222,0.85477c-0.40149,0.98428 -0.6605,2.33766 -0.77706,4.06015c-0.06475,0.51805 -0.09713,1.08788 -0.09713,1.70953c0,0.6346 0.1036,1.06847 0.31082,1.30159c0.20722,0.23312 0.53746,0.34967 0.99076,0.34967c0.34967,0 0.6346,-0.11655 0.85477,-0.34967c0.11656,0 0.25902,0.03238 0.42738,0.09714c0.18131,0.05181 0.33026,0.13599 0.44682,0.25255h7.3238c0.05181,-0.11656 0.13599,-0.20074 0.25255,-0.25254c0.11656,-0.06475 0.23312,-0.09713 0.34968,-0.09713c0.56984,0 0.99723,0.08418 1.28215,0.25255c0.34967,0.18131 1.04255,0.35616 2.07864,0.52452c0.56984,0 0.97132,0.16837 1.20444,0.50509c0.28492,0.41443 0.42739,0.79002 0.42739,1.12674l1.80667,5.69198c0.18131,0.91952 -0.67992,1.52175 -2.58372,1.80667c-1.08788,0.23312 -3.18595,0.34968 -6.29419,0.34968h-6.27476c-0.81591,0 -1.42461,0.04533 -1.8261,0.13599c-0.40149,0.07771 -0.6605,0.29141 -0.77706,0.64108c-0.22017,0.28492 -0.33024,0.74469 -0.33024,1.37929v0.34967c0,0.28493 0.0259,0.48567 0.07771,0.60223l-0.07771,1.88438c-0.06475,0.40148 -0.09713,1.0037 -0.09713,1.80667v2.15635c2.5902,0 5.23221,-0.08418 7.92602,-0.25254c2.65496,-0.16836 5.27106,-0.25254 7.84831,-0.25254c0.18131,0 0.32378,0.12952 0.42738,0.38853c0.11656,0.25901 0.17485,0.5569 0.17485,0.89362c0.11656,0.34967 0.17485,0.72525 0.17485,1.12673c0.11656,0.86772 0.2914,1.67068 0.52452,2.40889l0.60223,2.50603v2.66145l-0.69935,0.62165h-0.85476c-0.6346,0 -1.03608,-0.03238 -1.20444,-0.09713c-0.16836,-0.11656 -0.36909,-0.17483 -0.60222,-0.17483c-0.11656,0.06475 -0.29139,0.15542 -0.52451,0.27197c-0.23312,0.10361 -0.43386,0.21369 -0.60221,0.33025v-0.42738l-1.0296,0.09714h-1.30157c-0.22017,0 -0.38853,-0.05827 -0.50509,-0.17483l-0.69935,-0.09713c-2.12396,0 -3.61981,0.20074 -4.48752,0.60223z"/><path d="M374.73027,192.64573c-0.11656,0 -0.20074,-0.11008 -0.25254,-0.33024c-0.40148,-0.51804 -0.69288,-1.15264 -0.87419,-1.9038c-0.16836,-0.28492 -0.31083,-0.6605 -0.42739,-1.12673c-0.51804,-1.03607 -0.89362,-2.47364 -1.12674,-4.31269c-0.22017,-2.642 -0.33024,-4.74007 -0.33024,-6.29419c-0.06475,-0.6864 -0.09713,-1.63183 -0.09713,-2.83628v-2.05921c0,-1.73543 -0.0259,-3.08881 -0.07771,-4.06014c-0.06475,-1.03608 -0.09712,-3.07587 -0.09712,-6.11935c0,-8.15914 0.17485,-14.45333 0.52452,-18.88258c0,-0.6864 0.9778,-1.20445 2.93341,-1.55412h4.74009c3.27661,0 5.71787,0.05829 7.3238,0.17485c2.40889,0.18131 4.85015,0.27197 7.3238,0.27197c0.58279,0 1.01666,-0.03238 1.30158,-0.09713h1.28215l0.42738,0.34968c1.9038,-0.40149 3.8594,-0.66051 5.8668,-0.77707c2.00741,-0.11656 4.44868,-0.17483 7.32381,-0.17483c0.11656,0 0.25902,0.08418 0.42738,0.25255h2.75857c0.46623,0 0.82887,0.25902 1.08788,0.77706c0.25901,0.51805 0.47271,1.26919 0.64108,2.25348c0.23312,0.73821 0.40797,1.65773 0.52453,2.75857c0.23312,1.43756 0.43386,2.38299 0.60222,2.83627c0,1.60593 -0.28492,2.40889 -0.85476,2.40889c-0.06475,0 -0.15541,-0.08418 -0.27197,-0.25254l-0.34968,-0.07771c-0.28492,-0.06475 -0.59575,-0.03885 -0.93247,0.07771c-0.34967,0.16836 -0.72526,0.25255 -1.12674,0.25255c-0.34967,0 -0.6346,-0.08419 -0.85476,-0.25254c-0.11656,-0.05181 -0.37558,-0.0777 -0.77706,-0.0777c-0.51804,0 -1.12674,0.08418 -1.8261,0.25255c-0.22017,0.05181 -0.66051,0.136 -1.32101,0.25256c-0.6605,0.11656 -1.4246,0.17485 -2.29233,0.17485c-2.47364,0 -4.25441,0.05828 -5.34229,0.17484c-0.63461,0.05181 -1.23682,0.22665 -1.80666,0.52453v-0.17484c-0.23312,0 -0.43386,0.28493 -0.60222,0.85477c-0.40148,0.98428 -0.6605,2.33766 -0.77706,4.06015c-0.06475,0.51805 -0.09713,1.08788 -0.09713,1.70953c0,0.6346 0.1036,1.06847 0.31082,1.30159c0.20722,0.23312 0.53746,0.34967 0.99076,0.34967c0.34967,0 0.6346,-0.11655 0.85477,-0.34967c0.11656,0 0.25902,0.03238 0.42738,0.09714c0.18131,0.05181 0.33026,0.13599 0.44682,0.25255h7.3238c0.05181,-0.11656 0.13599,-0.20074 0.25255,-0.25254c0.11656,-0.06475 0.23312,-0.09713 0.34968,-0.09713c0.56984,0 0.99723,0.08418 1.28215,0.25255c0.34967,0.18131 1.04255,0.35616 2.07864,0.52452c0.56984,0 0.97133,0.16837 1.20445,0.50509c0.28492,0.41443 0.42738,0.79002 0.42738,1.12674l1.80668,5.69198c0.18131,0.91952 -0.67992,1.52175 -2.58372,1.80667c-1.08788,0.23312 -3.18595,0.34968 -6.2942,0.34968h-6.27476c-0.81592,0 -1.4246,0.04533 -1.82609,0.13599c-0.40148,0.07771 -0.6605,0.29141 -0.77706,0.64108c-0.22017,0.28492 -0.33024,0.74469 -0.33024,1.37929v0.34967c0,0.28493 0.02589,0.48567 0.0777,0.60223l-0.0777,1.88438c-0.06475,0.40148 -0.09713,1.0037 -0.09713,1.80667v2.15635c2.5902,0 5.23221,-0.08418 7.92602,-0.25254c2.65496,-0.16836 5.27106,-0.25254 7.84831,-0.25254c0.18131,0 0.32378,0.12952 0.42739,0.38853c0.11656,0.25901 0.17485,0.5569 0.17485,0.89362c0.11656,0.34967 0.17485,0.72525 0.17485,1.12673c0.11656,0.86772 0.2914,1.67068 0.52452,2.40889l0.60223,2.50603v2.66145l-0.69936,0.62165h-0.85476c-0.63461,0 -1.03608,-0.03238 -1.20444,-0.09713c-0.16836,-0.11656 -0.3691,-0.17483 -0.60222,-0.17483c-0.11656,0.06475 -0.29139,0.15542 -0.52451,0.27197c-0.23312,0.10361 -0.43386,0.21369 -0.60222,0.33025v-0.42738l-1.0296,0.09714h-1.30157c-0.22017,0 -0.38853,-0.05827 -0.50509,-0.17483l-0.69936,-0.09713c-2.12396,0 -3.61981,0.20074 -4.48752,0.60223z"/><path d="M435.06167,172.90839c-1.15263,0 -2.15634,-0.05827 -3.0111,-0.17483c-1.55412,-0.11656 -2.53192,-0.25902 -2.9334,-0.42738c-0.23312,-0.28492 -0.40795,-1.17207 -0.52451,-2.66143c-0.10361,-0.40149 -0.17483,-0.73173 -0.21368,-0.99075c-0.0259,-0.25902 -0.03886,-0.4792 -0.03886,-0.66051l-0.07771,-1.1073c-0.06475,-0.18131 -0.09712,-0.75763 -0.09712,-1.72896c-0.11656,-0.51805 -0.40149,-2.44126 -0.85477,-5.76967c0,-0.34967 -0.04533,-0.71231 -0.13598,-1.08788c-0.0777,-0.37557 -0.11656,-0.62165 -0.11656,-0.7382c-0.11656,-0.45328 -0.17483,-1.02313 -0.17483,-1.70953c0,-0.40149 -0.03238,-0.81591 -0.09713,-1.2433c-0.05181,-0.44034 -0.07771,-0.88714 -0.07771,-1.34042c-0.11656,-1.15264 -0.17483,-1.9297 -0.17483,-2.33118l-0.0777,-1.30157c0,-0.6864 -0.09066,-1.57354 -0.27197,-2.66143c0,-0.46624 -0.05827,-1.10084 -0.17483,-1.9038c-0.45328,-2.00741 -0.67992,-3.64571 -0.67992,-4.9149c0,-1.08788 -0.20074,-2.26644 -0.60222,-3.53563c0,-0.16836 0.03886,-0.29139 0.11656,-0.36909c0.09066,-0.09066 0.22017,-0.16837 0.38853,-0.23312c1.03607,-0.40149 2.33119,-0.60222 3.88531,-0.60222c0.51804,0 1.23682,-0.0259 2.15635,-0.07771c0.91952,-0.06475 1.6642,-0.12304 2.23406,-0.17483c0.29787,0 0.69936,-0.09066 1.20445,-0.27197h14.56989c0.29787,0.23312 0.64755,0.40796 1.04903,0.52452c0.91952,0.28492 1.60593,0.71878 2.05921,1.30158c0.28492,0.28492 0.42738,0.71231 0.42738,1.28215c0,2.35708 -0.3173,4.48753 -0.95189,6.39133l-2.13691,12.56896v0.60223c-0.18131,0.23312 -0.27197,0.60869 -0.27197,1.12673l-0.17484,1.12674v0.60223c0,1.15264 -0.25901,2.87512 -0.77706,5.16745c-0.40148,1.60593 -0.86124,3.70399 -1.37928,6.29419c0,0.11656 -0.11656,0.23312 -0.34968,0.34968c-0.22017,0.11656 -0.50509,0.20075 -0.85476,0.25256c-1.03607,0.28492 -3.21833,0.42738 -6.54673,0.42738z"/><path d="M445.41601,194.97691c-2.02036,0 -3.60037,-0.11656 -4.74007,-0.34967l-1.04903,-0.0777h-4.99261c-2.07216,0 -3.76874,-0.14246 -5.08975,-0.42739c-0.56984,0 -0.85477,-0.11656 -0.85477,-0.34967l-0.25254,-7.49864c-0.06475,-0.63461 -0.09713,-1.37928 -0.09713,-2.23404c0,-0.58279 0.03237,-0.99075 0.09714,-1.22386c0,-0.45328 0.05181,-0.76411 0.15541,-0.93248v-1.65124c0,-0.28492 0.14893,-0.56985 0.44682,-0.85477c0.33672,-0.34967 0.70583,-0.52451 1.10732,-0.52451c0.69936,0 1.24978,-0.0259 1.65126,-0.07771h9.38302c1.9038,0 3.51621,0.11656 4.83721,0.34968c1.60593,0.28492 2.40889,0.77058 2.40889,1.45699c0,2.07216 0.02589,3.53563 0.0777,4.39039c0,0.46623 0.05829,1.84553 0.17485,4.13786v3.20538c-0.05181,0.80296 -0.19426,1.38576 -0.42738,1.74839c-0.23312,0.37558 -0.57632,0.62165 -1.0296,0.7382c-0.23312,0 -0.49214,0.0259 -0.77706,0.07771c-0.28492,0.06475 -0.62812,0.09714 -1.0296,0.09714z"/></g><g><g stroke="#000000" stroke-width="0.5" stroke-linecap="butt" stroke-linejoin="miter"><path d="M30.19983,408.99734c-6.62254,0.1688 -38.18513,-9.00491 -40.65914,-11.64364c-3.59858,-3.83815 4.6733,-16.31897 4.6733,-16.31897c0,0 4.15231,-12.05224 6.27803,-13.00428c4.54519,-2.03563 11.22665,2.30956 16.98568,3.24989c1.41633,0.23126 -1.18339,14.59568 0.24832,14.88334c8.22274,1.65215 15.50287,2.43829 17.14712,6.51469c2.41844,5.99579 0.65433,16.18315 -4.6733,16.31897z" fill="#8a7650"/><path d="M8.97524,316.54933c0,0 5.42221,-8.09395 17.77683,-4.7183c15.02628,4.1056 13.99987,13.81828 13.99987,13.81828c0,0 -16.20004,51.74086 -18.92218,59.40664c-8.64551,-4.23128 -19.27163,-7.21077 -30.42165,-5.71916c1.44246,-7.68968 17.56715,-62.78746 17.56715,-62.78746z" data-paper-data="{&quot;origRot&quot;:0}" fill="#50508a"/></g><g stroke-width="0.5" stroke-linecap="butt" stroke-linejoin="miter"><path d="M66.21786,234.2953l-11.55717,-22.44361l46.49999,-23.94486c0,0 5.36789,6.96221 7.57293,11.24434c2.30528,4.47675 3.98427,11.1993 3.98427,11.1993z" data-paper-data="{&quot;origRot&quot;:0}" fill="#363d34" stroke="url(#color-7)"/><path d="M132.50433,205.24872c-3.31384,0.15972 -17.37066,2.0319 -17.37066,2.0319l-0.15388,-0.04719l-0.085,0.0372l-0.2358,-0.11385l-0.37989,0.08805l-0.05324,-0.00226l-0.05279,0.01057l-0.01863,-0.01363l-1.06792,-0.04476l-0.03304,0.00663l-0.41883,0.09707l-0.05325,-0.00225l-0.05279,0.01057l-0.01864,-0.01362l-0.21339,-0.00892l-0.03304,0.0066l-0.08623,0.02l-0.00838,0.01753l-0.05235,0.01213l-0.04604,0.02372l-0.42227,0.08481l-0.41883,0.09704l-0.05325,-0.00225l-0.05279,0.01058l-0.01595,-0.01165l-4.31677,1.29723l-0.08624,0.02l-0.00841,0.01752l-0.05235,0.01213l-0.04604,0.02372l-0.42224,0.08481l-0.09191,0.0213l-2.19614,1.13088l-0.00941,0.01967l-0.05235,0.01213l-0.04604,0.02372l-0.42225,0.0848l-0.09193,0.02131l-0.10111,0.05206l-0.9471,0.19032l-0.06554,-0.0478l-0.06726,0.02941l-0.9331,-0.45053l-0.13452,-0.10909l-0.02148,-0.00218l-0.03849,-0.04646l-0.04471,-0.03625l-0.29957,-0.37941l-0.30794,-0.37176l-0.02698,-0.0524l-0.03743,-0.0474l0.00124,-0.02289l-0.32554,-0.63219l-0.01933,-0.01228l-0.01684,-0.058l-0.027,-0.05241l-0.12377,-0.46659l-0.02958,-0.1019l-0.89851,-1.74489l-0.05366,-0.20227l-0.10418,-0.18306l-0.21265,-0.68355l-0.00677,-0.08305l-0.04639,-0.05387l0.00443,-0.46181l-0.02211,-0.27177l-0.60433,-1.1736l-0.01936,-0.01229l-0.01684,-0.058l-0.02699,-0.05239l-0.12377,-0.4666l-0.02956,-0.10189l-0.25431,-0.49387l-0.01935,-0.01227l-0.01686,-0.05801l-0.02698,-0.0524l-0.12378,-0.46658l-0.13486,-0.46423l-0.00352,-0.05747l-0.01546,-0.05834l0.01071,-0.01877l-0.01068,-0.17286l0.17522,-1.02124l0.00499,-0.003c-0.13755,-0.15074 -0.25889,-0.32368 -0.3582,-0.51655c-0.35542,-0.69022 -0.33943,-1.4618 -0.02094,-2.03968c-0.00334,-0.32634 0.34521,-0.49659 0.62136,-0.64567c0.02721,-0.01605 0.055,-0.03137 0.08334,-0.04596c1.45202,-0.82719 2.99126,-1.49098 4.45621,-2.29469c0.16196,-0.08886 2.59424,-3.39211 2.70226,-3.583c0.62079,-1.09713 0.39762,-2.84723 1.26711,-3.87371c0.1167,-0.13781 0.41039,-0.82635 0.33351,-1.12616c-0.34711,-1.35375 -0.15548,-2.64847 -0.27415,-3.97328c-0.11364,-1.26875 -0.9111,-2.02516 -0.47819,-3.32192c0.6453,-1.93311 3.47004,-2.32089 4.55352,-0.21681c1.74094,3.38081 1.93666,7.43113 2.30311,11.06334c0.0261,0.25856 1.20124,-1.21067 1.2455,-1.28286c0.47296,-0.7709 1.49004,-1.57854 2.24951,-1.96965c1.70756,-0.8793 3.22094,-2.52119 4.68112,-3.84923c0.48933,-0.44504 1.23494,-0.55886 1.63208,-1.0762c0.47047,-0.61285 1.91665,-2.21955 2.78547,-1.66824c0.55278,0.35079 1.09658,0.7211 1.62955,1.10972c0.67055,0.48891 0.28947,2.4014 -0.14004,2.80899c-1.022,0.96988 -2.14389,1.8582 -3.21799,2.76354c-0.3795,1.05786 -1.4083,2.00655 -2.06745,2.58855c-0.92508,0.81676 -1.91718,1.78618 -2.95487,2.65741c0.36223,0.02841 0.71582,0.07901 0.96612,-0.04715c0.97426,-0.49109 2.01876,-0.88483 2.967,-1.36922c5.41753,-2.76767 6.61529,-5.58253 9.34151,-4.72736c0.81359,-0.14442 1.70583,0.32013 2.15259,1.18773c0.35542,0.69022 0.33946,1.46179 0.02095,2.03968c0.00353,0.34114 -0.37462,0.51685 -0.65789,0.6666c-0.01592,0.00845 -0.03158,0.01675 -0.04681,0.02506c-0.4903,0.26652 -0.98218,0.53005 -1.47536,0.79119c-0.80874,0.60413 -1.59715,1.23518 -2.46851,1.71553c-0.51355,0.28314 -0.94663,0.80568 -1.45833,1.0682c-2.11185,1.08344 -4.2234,2.16759 -6.33209,3.25718c0.60846,0.08652 1.16142,0.05636 1.59508,-0.02483c2.30399,-0.4314 3.88942,-0.80546 6.09793,-0.87657c1.29838,-0.04179 5.31065,-0.97321 5.53225,-0.98634c0.10231,-0.01369 0.19769,-0.01749 0.28391,-0.00934c0.08512,0.00804 0.16722,0.02817 0.24695,0.05803c0.52272,0.19576 0.94243,0.80921 1.42643,1.16209l0.02094,2.03968c0.0067,0.65204 -2.66759,1.89917 -3.77031,2.1377c-1.35877,0.29393 -2.70689,0.1899 -4.0592,0.43517c-1.94869,0.35346 -3.53573,0.86953 -5.47783,0.953c-0.09471,0.20086 -0.08131,0.36081 0.38371,0.51015c1.81161,0.58182 3.96359,0.22647 5.741,0.44742c0.42156,0.05237 4.92745,-0.29694 5.04217,-0.35602c0.06965,-0.03588 0.14087,-0.06629 0.21315,-0.09149c0.18205,-0.08213 0.3987,-0.13042 0.73392,-0.09881c0.08512,0.00804 0.16723,0.02817 0.24696,0.05804c0.57448,0.13864 1.11128,0.55009 1.42641,1.16207c0.35542,0.69022 0.33946,1.46179 0.02095,2.03968c0.01729,1.68388 -3.53994,1.26769 -4.36475,1.30747z" data-paper-data="{&quot;index&quot;:null}" fill="#f4c28c" stroke="#000000"/><path d="M66.21786,234.2953c-16.66425,2.72952 -23.81893,-11.50427 -24.17526,-12.33058c-4.00987,-9.29875 -18.67328,-34.90848 -18.67328,-34.90848c0,0 26.07596,-18.09408 40.39459,18.06952c8.57476,-4.41551 37.39677,-17.21891 37.39677,-17.21891c0,0 2.63888,7.89422 4.84394,12.17633c2.30528,4.47675 6.71326,10.26724 6.71326,10.26724c0,0 -35.05847,22.07081 -46.50003,23.94488z" data-paper-data="{&quot;origRot&quot;:0}" fill="#7a8a77" stroke="url(#color-8)"/></g><g stroke-linejoin="miter"><path d="M22.48603,266.58586c0,0 5.69247,-8.04621 18.10055,-4.31377c15.09127,4.53957 13.80289,14.3362 13.80289,14.3362l-16.87148,48.96451c0,0 -2.9232,9.54395 -18.58436,5.22301c-12.38302,-3.41648 -10.60801,-14.39377 -10.60801,-14.39377z" data-paper-data="{&quot;origRot&quot;:0}" fill="#50508a" stroke="none" stroke-width="0" stroke-linecap="butt"/><path d="M24.82969,258.97528l-17.95961,63.52595" fill="none" stroke="url(#color-9)" stroke-width="0.5" stroke-linecap="round"/><path d="M34.48351,333.84485l22.55086,-65.25797" fill="none" stroke="url(#color-10)" stroke-width="0.5" stroke-linecap="round"/></g><g stroke-width="0.5"><path d="M14.45304,137.41507c-0.01871,-0.80703 0.0212,-2.09207 0.10426,-3.61457c0.94034,-16.72758 14.93603,-29.98209 31.6861,-29.45898c0.39467,0.01615 0.78933,0.03229 1.18493,0.05934c16.8424,1.02965 21.04202,14.46508 22.49645,21.03109c0.22015,1.01003 0.28782,2.03848 0.20938,3.06273c-0.0074,0.1079 -0.01155,0.22104 -0.02439,0.32935c-0.10207,1.03727 -0.35942,2.06016 -0.7463,3.04725c-0.00502,0.00594 -0.01023,0.00912 -0.00976,0.01459c0.00047,0.00547 -0.00476,0.00865 -0.0043,0.01413c-0.94305,2.37904 -0.24228,4.87768 0.4768,7.26747l2.17407,3.79634c1.1999,3.65286 0.10012,8.10761 -1.70645,11.62682l-0.94966,4.28562l-3.83655,5.01371c-1.14377,2.21724 -6.71694,2.75983 -7.94855,2.86393c-19.83746,1.73738 -42.63225,-10.65427 -43.10603,-29.33885z" fill="#f4c28c" stroke="#000000" stroke-linecap="round" stroke-linejoin="round"/><path d="M20.70343,145.0141c-4.44383,-11.20628 28.71623,3.65911 28.50911,11.89211c-0.28948,11.50731 1.77748,21.02774 1.77748,21.02774l-24.67021,0.98522c0,0 1.31786,-16.41858 -5.61643,-33.90508z" fill="#f4c28c" stroke="#000000" stroke-linecap="round" stroke-linejoin="miter"/><path d="M67.33295,116.05614c-17.93397,-2.61235 -16.93262,-2.11672 -28.14991,18.46188c-1.21623,1.91446 -6.60565,1.51631 -7.87574,2.69723c-7.92255,7.36621 -7.6003,20.49575 -7.6003,20.49575c-3.94466,-1.89435 -3.37251,-1.80165 -8.04547,-5.99982c-4.59598,-4.13313 -10.86211,-26.04702 -0.51809,-40.26038c2.21587,-3.265 5.09023,-6.09333 8.47607,-8.27181c6.25365,-4.01062 13.77362,-5.56766 21.11298,-4.34805c0.1368,0.0242 0.27611,0.04542 0.41292,0.06961c12.33496,2.07625 23.1919,16.48426 22.18752,17.15556z" fill="#7f5732" stroke="#010101" stroke-linecap="round" stroke-linejoin="round"/><path d="M70.1068,128.82155c-0.10207,1.03727 -0.35942,2.06018 -0.7463,3.04726c-0.00502,0.00594 -0.01022,0.00912 -0.00976,0.01459" fill="#f4c28c" stroke="#000000" stroke-linecap="round" stroke-linejoin="round"/><path d="M67.39273,160.22663l1.30113,-2.53582l1.59972,-3.1029" fill="#f4c28c" stroke="#000000" stroke-linecap="round" stroke-linejoin="round"/><path d="M68.23628,139.21452c1.98455,-0.95908 5.34098,1.3058 6.30006,3.29033c0.95908,1.98455 -0.8451,2.93906 -2.82963,3.89814" fill="#f4c28c" stroke="#000000" stroke-linecap="round" stroke-linejoin="round"/><path d="M68.70142,133.46832c0.32174,3.05445 -0.46215,5.6627 -1.81115,6.38231c-0.1608,0.08249 -0.3361,0.15632 -0.51638,0.17871c-0.05308,0.01701 -0.11267,0.01401 -0.17224,0.01096c-1.75146,0.09237 -3.47331,-2.72577 -3.84617,-6.26357c-0.37287,-3.5378 0.74179,-6.49965 2.48522,-6.58062c0.16422,0.00046 0.32043,0.01233 0.48311,0.04425c1.5853,0.40751 3.03293,3.0305 3.37758,6.22796z" data-paper-data="{&quot;origRot&quot;:0}" fill="#ffffff" stroke="#000000" stroke-linecap="round" stroke-linejoin="round"/><g><path d="M68.72287,133.54943c0.02165,0.21546 0.03894,0.3878 0.02619,0.60673c-0.01254,0.5671 -0.10255,1.05493 -0.23126,1.50313c-0.32626,0.9033 -0.88928,1.52569 -1.60308,1.68443v0c-0.03441,0.00346 -0.0688,0.00691 -0.10322,0.01038c-0.79126,0.07946 -1.5399,-0.45471 -2.04366,-1.31818v0c-0.24971,-0.41018 -0.43924,-0.91347 -0.52559,-1.42712c-0.0517,-0.1689 -0.07335,-0.38436 -0.095,-0.59982c-0.1991,-1.9822 0.67288,-3.68027 1.94578,-3.80813c1.27291,-0.12786 2.43073,1.36635 2.62982,3.34855z" fill="#07719b" stroke="none" stroke-linecap="butt" stroke-linejoin="miter"/><path d="M68.48749,135.35764c0.00866,0.08619 0.01732,0.17237 -0.00841,0.262c-0.32626,0.9033 -0.88928,1.52569 -1.60308,1.68444v0c-0.03441,0.00346 -0.0688,0.00689 -0.10322,0.01037c-0.79126,0.07946 -1.53991,-0.4547 -2.04366,-1.31818v0c-0.00866,-0.08619 -0.0517,-0.1689 -0.06037,-0.25509c-0.09955,-0.99111 0.68263,-1.85315 1.74913,-1.96027c1.06649,-0.1071 1.97006,0.58562 2.06959,1.57672z" fill="#0a97dd" stroke="none" stroke-linecap="butt" stroke-linejoin="miter"/><path d="M66.96905,132.31945c-0.32122,-0.49187 -0.36807,-1.10313 -0.10474,-1.36528c0.26336,-0.26214 0.73726,-0.0759 1.05845,0.41596c0.32122,0.49187 0.36807,1.10313 0.10474,1.36528c-0.26336,0.26214 -0.73726,0.07591 -1.05845,-0.41596z" fill="#ffffff" stroke="none" stroke-linecap="butt" stroke-linejoin="miter"/><path d="M68.14215,133.30306c-0.01673,-0.16661 0.0159,-0.30629 0.07291,-0.312c0.05702,-0.00572 0.11677,0.12469 0.13351,0.29131c0.01673,0.16661 -0.0159,0.30629 -0.07292,0.312c-0.05702,0.00572 -0.11677,-0.12468 -0.1335,-0.29129z" fill="#ffffff" stroke="none" stroke-linecap="butt" stroke-linejoin="miter"/><path d="M64.58654,134.92247c-0.01195,-0.119 0.05538,-0.22318 0.15038,-0.23273c0.095,-0.00954 0.1817,0.0792 0.19364,0.19817c0.01195,0.119 -0.05538,0.22318 -0.15038,0.23273c-0.095,0.00954 -0.1817,-0.0792 -0.19366,-0.19817z" fill="#ffffff" stroke="none" stroke-linecap="butt" stroke-linejoin="miter"/><path d="M65.98985,130.21124c1.27291,-0.12786 2.46513,1.36287 2.66422,3.34509c0.02165,0.21546 0.04329,0.43091 0.02619,0.60673c0.01753,0.52056 -0.06815,1.05149 -0.23126,1.50313v0c-0.32194,0.94637 -0.94941,1.61878 -1.74067,1.69825c-0.03441,0.00346 -0.06881,0.00691 -0.10322,0.01038v0c-0.7311,-0.01363 -1.40662,-0.51162 -1.90604,-1.33199c-0.21531,-0.41365 -0.40051,-0.87383 -0.52559,-1.42712c-0.05603,-0.21201 -0.07335,-0.38437 -0.095,-0.59982c-0.1991,-1.9822 0.63846,-3.67681 1.91137,-3.80466z" fill="none" stroke="#000000" stroke-linecap="round" stroke-linejoin="round"/></g><path d="M66.57856,133.76478c-0.07889,-0.78534 0.24777,-1.46128 0.7296,-1.50963c0.48182,-0.0484 0.93635,0.54903 1.01523,1.33441c0.07889,0.78534 -0.24777,1.46124 -0.7296,1.50963c-0.48182,0.0484 -0.93635,-0.54903 -1.01523,-1.33441z" fill="#000000" stroke="none" stroke-linecap="butt" stroke-linejoin="miter"/><path d="M65.11252,152.46662c-0.53525,0.23614 -1.54149,3.65151 0.06472,4.30817c1.37601,0.56256 2.82901,-1.22242 4.28432,0.01511c0.37568,0.31948 0.24227,6.66534 -1.49826,8.56064c-2.63839,2.87299 -23.84011,4.61448 -29.46008,1.36319c-0.65115,-0.17339 -4.44298,-29.5703 -1.72183,-30.01232c0.46799,-0.07601 1.13413,-0.77747 1.74992,-0.60377c1.82752,0.51554 -0.50726,11.87009 9.85795,16.36679c3.30937,1.43569 6.86599,0.64702 8.8991,0.04002c2.92924,-0.87456 4.31744,-0.63961 5.83647,-2.32776c2.70259,-3.00355 8.65253,-3.91861 9.06251,-3.67002c0.68943,0.41803 0.84927,3.66931 -0.02414,4.21284c-1.97895,1.21724 -6.21828,1.37987 -7.05065,1.74711z" fill="#666168" stroke="#000000" stroke-linecap="butt" stroke-linejoin="miter"/><path d="M70.9965,152.84154c0,0 -1.11821,0.70755 -1.76625,0.93339c-0.61721,0.2151 -2.03401,0.39099 -2.03401,0.39099" fill="none" stroke="#000000" stroke-linecap="round" stroke-linejoin="miter"/><path d="M34.42829,137.10175l-0.1539,-1.8206l33.69898,-2.84861l0.1539,1.8206z" fill="#645e62" stroke="#000000" stroke-linecap="butt" stroke-linejoin="miter"/><path d="M34.20736,147.81521c0,0 0.31342,1.4848 -3.8258,0.13697c-4.13922,-1.34782 -2.93699,-5.33659 -2.93699,-5.33659c0,0 -3.70123,-10.94226 2.40054,-12.55587c1.88509,-0.49713 9.39977,0.62299 5.92183,8.77294" fill="#f4c28c" stroke="#000000" stroke-linecap="round" stroke-linejoin="round"/><path d="M69.58556,126.05825c0,0 -3.74933,-0.30475 -6.26235,-0.21166c-0.97189,0.03602 -2.66733,0.5424 -2.66733,0.5424c0,0 0.44762,-0.43826 0.37764,-0.73242c-0.05811,-0.24434 -1.1861,-0.33883 -1.1861,-0.33883c0,0 0.948,-0.46294 0.80384,-0.5826c-0.20528,-0.17043 -1.07831,-0.69238 -1.07831,-0.69238c0,0 1.80962,-0.09064 2.6801,0.05371c2.61144,0.43303 7.50262,1.24411 7.50262,1.24411l-0.17015,0.7177z" data-paper-data="{&quot;origRot&quot;:0,&quot;index&quot;:null}" fill="#6c433d" stroke="none" stroke-linecap="butt" stroke-linejoin="miter"/><path d="M72.09763,131.68512c0.31835,3.76611 -0.06377,7.06203 -0.88322,8.58497c-0.29221,0.5431 -1.91622,0.60556 -2.33681,-0.00285c-1.00509,-1.45398 -1.86897,-4.52433 -2.17347,-8.1262c-0.29306,-3.46704 0.00751,-6.53561 0.69641,-8.18927c0.32627,-0.78322 2.21541,-0.91343 2.68146,-0.14933c0.93684,1.53597 1.72719,4.47088 2.0156,7.88271zM70.81648,137.74112c-0.21811,-2.58046 -0.6697,-8.13045 -0.88861,-10.72016c0,0 -0.51095,-1.46953 -1.03459,-1.42525c-0.52363,0.04426 -0.78454,1.53321 -0.78454,1.53321c0.21885,2.58908 0.97076,10.7479 0.97076,10.7479c0,0 0.30809,0.62628 0.8231,0.80018c0.51502,0.1739 0.9139,-0.93585 0.9139,-0.93585z" fill="#645e62" stroke="#000000" stroke-linecap="butt" stroke-linejoin="miter"/></g><g stroke="#000000" stroke-width="0.5" stroke-linecap="butt" stroke-linejoin="miter"><path d="M39.62143,277.56067c-12.45773,0.19429 -22.64442,-5.27031 -22.87718,-20.19495c-0.01396,-0.89521 -1.00847,-66.99434 -0.95111,-67.86833c0.89934,-13.69675 10.43197,-19.84775 22.1425,-20.0304c11.71053,-0.18265 21.43033,5.66816 22.75633,19.33017c0.08461,0.87177 1.15178,66.96977 1.16575,67.86497c0.23277,14.92462 -9.77857,20.70424 -22.23629,20.89851z" fill="#7a8a77"/><path d="M16.74425,257.36572c-0.01396,-0.89521 -0.11236,-9.53495 -0.05499,-10.40895c14.59034,2.45962 38.25474,2.16206 44.90329,-0.41438c0.08461,0.87177 0.25121,9.22453 0.26517,10.11974c0.23277,14.92462 -9.55933,21.46033 -22.31032,21.6592c-12.75099,0.19886 -22.57039,-6.03097 -22.80316,-20.95561z" fill="#50508a"/></g><g stroke-width="0.5" stroke-linecap="butt" stroke-linejoin="miter"><path d="M-24.41583,208.46674l23.62422,-8.89831l18.43608,48.94606c0,0 -7.53355,4.53125 -12.04093,6.22899c-4.71225,1.77492 -11.58332,2.66934 -11.58332,2.66934z" data-paper-data="{&quot;origRot&quot;:0}" fill="#363d34" stroke="url(#color-11)"/><path d="M-3.18832,277.65484c0.2226,-3.31021 -0.01993,-17.48909 -0.01993,-17.48909l0.06458,-0.14743l-0.02717,-0.08871l0.14022,-0.22114l-0.04376,-0.38749l0.00836,-0.05262l-0.00442,-0.05366l0.01568,-0.01694l0.16733,-1.05568l-0.00278,-0.03358l-0.04824,-0.42722l0.00836,-0.05263l-0.00442,-0.05366l0.01568,-0.01695l0.03341,-0.21095l-0.00276,-0.03358l-0.00995,-0.08796l-0.01645,-0.01034l-0.00603,-0.0534l-0.01826,-0.04846l-0.03567,-0.42922l-0.04821,-0.42722l0.00836,-0.05263l-0.00444,-0.05366l0.01341,-0.01451l-0.79198,-4.43735l-0.00995,-0.08797l-0.01643,-0.01037l-0.00603,-0.0534l-0.01826,-0.04846l-0.03567,-0.42919l-0.01059,-0.09375l-0.87071,-2.31166l-0.01846,-0.01161l-0.00603,-0.0534l-0.01826,-0.04846l-0.03566,-0.42921l-0.01059,-0.09377l-0.04008,-0.10643l-0.08009,-0.96271l0.05502,-0.0596l-0.02147,-0.07019l0.55489,-0.87507l0.12384,-0.12107l0.00463,-0.02109l0.05058,-0.03289l0.04116,-0.04024l0.41135,-0.25393l0.40472,-0.26312l0.05516,-0.02077l0.05139,-0.03173l0.0226,0.00387l0.66545,-0.25064l0.01442,-0.01779l0.05955,-0.01006l0.05517,-0.02079l0.47773,-0.06927l0.10463,-0.01766l1.83668,-0.6918l0.2071,-0.03004l0.19383,-0.08242l0.70348,-0.1326l0.08328,0.00283l0.05885,-0.03988l0.45823,0.05753l0.27251,0.0093l1.23533,-0.4653l0.01443,-0.01782l0.05955,-0.01006l0.05514,-0.02078l0.47774,-0.06927l0.10461,-0.01764l0.51985,-0.1958l0.01442,-0.0178l0.05957,-0.01007l0.05516,-0.02077l0.47773,-0.06928l0.47666,-0.08056l0.05749,0.00311l0.05973,-0.00865l0.01741,0.0128l0.17294,0.00928l0.9943,0.29155l0.00241,0.0053c0.16556,-0.11929 0.35132,-0.21993 0.55433,-0.2964c0.72653,-0.27365 1.49114,-0.169 2.02855,0.21386c0.32456,0.03422 0.45357,0.40005 0.5699,0.69152c0.01281,0.02887 0.02483,0.05824 0.03607,0.08807c0.65465,1.53755 1.13693,3.14293 1.76677,4.69062c0.06964,0.17111 3.07112,2.96727 3.24831,3.09654c1.01842,0.74289 2.78258,0.72255 3.70221,1.70436c0.12347,0.13178 0.77364,0.50274 1.08031,0.46086c1.3847,-0.18905 2.64877,0.15026 3.97844,0.18479c1.2734,0.03309 2.11653,-0.67206 3.35488,-0.09283c1.84603,0.86342 1.90625,3.71402 -0.30851,4.54823c-3.55866,1.34042 -7.6046,1.06885 -11.25485,1.01498c-0.25985,-0.00382 1.06443,1.33255 1.13105,1.38482c0.71137,0.55851 1.39663,1.66176 1.69776,2.46118c0.67701,1.79739 2.13388,3.48962 3.28511,5.09288c0.38579,0.53728 0.41307,1.29103 0.88128,1.74506c0.55465,0.53785 1.9843,2.15928 1.3367,2.95891c-0.41206,0.50875 -0.84248,1.00634 -1.28983,1.49106c-0.56281,0.60985 -2.41876,0.01127 -2.77423,-0.46228c-0.84586,-1.1268 -1.5992,-2.34344 -2.37496,-3.51456c-1.00718,-0.49868 -1.8312,-1.6298 -2.33351,-2.35153c-0.70491,-1.01291 -1.55375,-2.10995 -2.29981,-3.24098c-0.0699,0.35656 -0.16084,0.70198 -0.06431,0.96513c0.37574,1.02429 0.6467,2.10715 1.01878,3.10483c2.12601,5.69997 4.78438,7.21363 3.62124,9.82336c0.04985,0.82481 -0.51426,1.65767 -1.4275,2.00165c-0.72653,0.27365 -1.49114,0.16902 -2.02855,-0.21385c-0.33928,-0.03574 -0.47031,-0.43159 -0.58648,-0.73021c-0.00656,-0.01679 -0.01301,-0.0333 -0.01951,-0.04939c-0.20834,-0.51771 -0.41353,-1.03664 -0.6162,-1.55659c-0.50707,-0.87287 -1.04323,-1.72865 -1.42013,-2.64949c-0.22218,-0.54272 -0.69142,-1.03304 -0.89333,-1.57154c-0.83328,-2.22248 -1.6673,-4.44474 -2.50705,-6.66478c-0.15595,0.59446 -0.18961,1.14723 -0.15884,1.58734c0.16346,2.33833 0.35264,3.95626 0.16918,6.15829c-0.10786,1.29457 0.35577,5.38735 0.34331,5.60899c0.00183,0.10321 -0.00537,0.19839 -0.02339,0.2831c-0.01778,0.08363 -0.04722,0.16287 -0.08606,0.23864c-0.2546,0.49673 -0.91226,0.84307 -1.31849,1.28326l-2.02855,-0.21386c-0.64848,-0.06836 -1.57966,-2.86838 -1.68973,-3.99121c-0.13565,-1.38356 0.12279,-2.71076 0.03473,-4.08231c-0.12692,-1.97642 -0.45697,-3.61229 -0.31645,-5.5511c-0.18863,-0.11719 -0.34906,-0.12228 -0.55091,0.32247c-0.78638,1.73264 -0.68098,3.91121 -1.10494,5.6514c-0.10052,0.41274 -0.27193,4.92889 -0.22644,5.04965c0.02763,0.07332 0.04964,0.14756 0.06636,0.22226c0.06064,0.19029 0.08368,0.41106 0.01371,0.74042c-0.01778,0.08363 -0.04722,0.16288 -0.08607,0.23865c-0.20382,0.55471 -0.67429,1.04061 -1.31846,1.28325c-0.72653,0.27365 -1.49114,0.16902 -2.02855,-0.21385c-1.67468,-0.17655 -0.852,-3.66228 -0.79662,-4.48619z" data-paper-data="{&quot;index&quot;:null}" fill="#f4c28c" stroke="#000000"/><path d="M-24.41583,208.46674c-0.79418,-16.86763 14.16823,-22.33721 15.03005,-22.5961c9.69834,-2.91343 36.82502,-14.53309 36.82502,-14.53309c0,0 14.97392,27.98452 -22.5969,38.04748c3.39967,9.02582 12.80211,39.12947 12.80211,39.12947c0,0 -8.1454,1.71313 -12.65276,3.4109c-4.71225,1.77492 -10.97142,5.48745 -10.97142,5.48745c0,0 -17.89081,-37.36491 -18.43609,-48.9461z" data-paper-data="{&quot;origRot&quot;:0}" fill="#7a8a77" stroke="url(#color-12)"/></g><g stroke="#000000" stroke-width="0.5" stroke-linecap="butt" stroke-linejoin="miter"><path d="M50.29639,380.78079c-6.29288,-2.07032 -32.92543,-21.33328 -34.36681,-24.65081c-2.09656,-4.82551 9.89386,-13.79348 9.89386,-13.79348c0,0 7.967,-9.95112 10.28915,-10.13205c4.96517,-0.38684 9.79402,5.95388 14.90043,8.77795c1.25583,0.69453 -6.02752,13.34553 -4.7762,14.09834c7.18672,4.32366 13.77735,7.51458 13.95345,11.90655c0.25898,6.45996 -4.83145,15.45897 -9.89386,13.79348z" fill="#8a7650"/><path d="M61.43031,286.58335c0,0 7.83036,-5.79636 18.32767,1.54108c12.76731,8.92416 8.53134,17.72448 8.53134,17.72448c0,0 -32.67164,43.26803 -37.81537,49.57012c-6.71664,-6.8946 -15.71967,-13.27718 -26.72107,-15.62592c3.94677,-6.75535 37.67747,-53.20975 37.67747,-53.20975z" data-paper-data="{&quot;origRot&quot;:0}" fill="#50508a"/></g><g stroke-linejoin="miter"><path d="M30.84943,277.02289c0,0 -5.39305,-8.2499 2.63587,-18.41984c9.76515,-12.36916 18.40385,-7.57262 18.40385,-7.57262l39.3455,33.67642c0,0 7.80322,6.22427 -1.96788,19.20379c-7.72585,10.26271 -17.28395,4.57991 -17.28395,4.57991z" data-paper-data="{&quot;origRot&quot;:0}" fill="#50508a" stroke="none" stroke-width="0" stroke-linecap="butt"/><path d="M24.63158,272.04776l52.48954,40.03676" fill="none" stroke="url(#color-13)" stroke-width="0.5" stroke-linecap="round"/><path d="M97.81403,290.56748l-52.41418,-44.94326" fill="none" stroke="url(#color-14)" stroke-width="0.5" stroke-linecap="round"/></g></g><path d="M26.13832,56.78149c-2.60219,0 -4.72235,-0.52122 -6.36047,-1.56366c-1.63029,-1.04245 -2.82949,-2.3984 -3.59761,-4.06788c-0.76811,-1.66948 -1.15217,-3.42517 -1.15217,-5.26708c0,-1.983 0.39973,-3.93072 1.1992,-5.84317c0.79947,-1.91246 1.93989,-3.63287 3.42126,-5.16127c1.48137,-1.53624 3.23706,-2.75503 5.26708,-3.65639c2.03786,-0.9092 4.29127,-1.3638 6.76021,-1.3638c2.53949,0 4.61654,0.46243 6.23115,1.38731c1.61461,0.92488 2.81381,2.1084 3.59761,3.55058c0.78379,1.44218 1.17569,2.94314 1.17569,4.50289c0,1.29326 -0.23514,2.56692 -0.70541,3.82099c-0.47028,1.24623 -1.12474,2.39056 -1.9634,3.43301c-0.83082,1.04245 -1.79489,1.87718 -2.89219,2.50422c-1.08947,0.62703 -2.26124,0.94055 -3.5153,0.94055c-1.15217,0 -1.99867,-0.27824 -2.53949,-0.83473c-0.53298,-0.55649 -0.79947,-1.30501 -0.79947,-2.24556c0,-0.20378 0.00784,-0.38406 0.02351,-0.54082c0.01567,-0.15676 0.04311,-0.32135 0.0823,-0.49379c-1.18353,1.59894 -2.35922,2.80598 -3.52706,3.62112c-1.16001,0.81514 -2.26124,1.22272 -3.30368,1.22272c-0.87001,0 -1.60286,-0.28609 -2.19853,-0.85825c-0.58784,-0.57217 -0.88176,-1.43434 -0.88176,-2.58651c0,-1.24623 0.33703,-2.61003 1.01109,-4.09139c0.6819,-1.48137 1.59502,-2.88043 2.73936,-4.1972c1.15217,-1.32461 2.40624,-2.41016 3.7622,-3.25665c1.35596,-0.85434 2.71192,-1.2815 4.06788,-1.2815c1.07379,0 1.97516,0.28609 2.70408,0.85826c0.73677,0.57217 1.10515,1.32853 1.10515,2.26908c0,0.4546 -0.09013,0.81123 -0.2704,1.06988c-0.17244,0.25865 -0.41541,0.44284 -0.72893,0.55258c-0.31352,0.1019 -0.67798,0.15284 -1.09339,0.15284c0.07054,-0.21162 0.12149,-0.44676 0.15284,-0.70541c0.03919,-0.25865 0.05879,-0.49379 0.05879,-0.70541c0,-0.65839 -0.14892,-1.21488 -0.44676,-1.66948c-0.29001,-0.4546 -0.80339,-0.6819 -1.54015,-0.6819c-0.9719,0 -1.97124,0.41933 -2.998,1.25799c-1.02677,0.83082 -1.96732,1.87326 -2.82165,3.12733c-0.8465,1.25407 -1.53231,2.54341 -2.05745,3.86802c-0.5173,1.31677 -0.77595,2.48071 -0.77595,3.4918c0,0.58784 0.1019,1.01501 0.30568,1.2815c0.21162,0.25865 0.48987,0.38798 0.83474,0.38798c0.66623,0 1.39907,-0.32135 2.19854,-0.96406c0.79947,-0.64271 1.60678,-1.45785 2.42192,-2.44543c0.81514,-0.99542 1.57934,-2.00651 2.2926,-3.03328c0.71325,-1.02677 1.33244,-1.90461 1.85759,-2.63354c0.27432,0.03135 0.6192,0.13716 1.03461,0.31744c0.42325,0.17244 0.63487,0.41149 0.63487,0.71717c0,0.31352 -0.19986,0.80339 -0.5996,1.46961c-0.39973,0.65839 -0.79947,1.37947 -1.1992,2.16327c-0.39973,0.78379 -0.5996,1.54016 -0.5996,2.26908c0,0.34487 0.1019,0.71717 0.30568,1.11691c0.21162,0.39973 0.70149,0.5996 1.46961,0.5996c1.11299,0 2.17894,-0.44284 3.19787,-1.32852c1.02677,-0.88568 1.86935,-2.01434 2.52773,-3.38598c0.66623,-1.37947 0.99934,-2.79814 0.99934,-4.25599c0,-1.32461 -0.32135,-2.61003 -0.96406,-3.85626c-0.64271,-1.25407 -1.64204,-2.28868 -2.998,-3.10382c-1.35596,-0.82298 -3.14692,-1.23447 -5.37289,-1.23447c-2.22597,0 -4.24423,0.42717 -6.05479,1.2815c-1.81056,0.85434 -3.36639,1.99475 -4.66748,3.42126c-1.3011,1.4265 -2.30043,3.00192 -2.998,4.72627c-0.69757,1.7165 -1.04636,3.46044 -1.04636,5.23182c0,1.56758 0.31352,3.06463 0.94055,4.49113c0.62703,1.4265 1.64204,2.59827 3.04504,3.51531c1.41083,0.92488 3.26449,1.38731 5.56101,1.38731c1.84191,0 3.72694,-0.35663 5.65506,-1.06987c1.93597,-0.71325 3.77396,-1.83407 5.51398,-3.36247l0.30568,0.41149c-1.31677,1.49704 -2.96665,2.75895 -4.94964,3.78572c-1.983,1.02677 -4.26383,1.54016 -6.84251,1.54016zM60.78314,52.45495c-0.9719,0 -1.80664,-0.33311 -2.50421,-0.99933c-0.69757,-0.65839 -1.24623,-1.48921 -1.64596,-2.49246c-0.39973,-1.01109 -0.69757,-2.0457 -0.89352,-3.10382c-0.18811,-1.06596 -0.28217,-1.99867 -0.28217,-2.79814c0.38406,0 0.94055,-0.09406 1.66948,-0.28217c0.72893,-0.19595 1.47745,-0.49379 2.24557,-0.89352c0.76811,-0.39973 1.41867,-0.92096 1.95164,-1.56366c0.54082,-0.64271 0.81123,-1.39907 0.81123,-2.26907c0,-0.72893 -0.26257,-1.3011 -0.78771,-1.7165c-0.5173,-0.42325 -1.12474,-0.63487 -1.82231,-0.63487c-1.07379,0 -2.08096,0.37622 -3.02151,1.12866c-0.94055,0.7446 -1.78705,1.7165 -2.53949,2.91571c-0.7446,1.1992 -1.41083,2.47679 -1.99867,3.83274c-0.58784,1.35596 -1.09339,2.6453 -1.51663,3.86802c-0.41541,1.21488 -0.76028,2.22205 -1.03461,3.02152c-0.21162,0.62703 -0.50946,1.0542 -0.89352,1.2815c-0.38406,0.2273 -0.78379,0.34095 -1.1992,0.34095c-0.58784,0 -1.01501,-0.24689 -1.2815,-0.74068c-0.25865,-0.48595 -0.41541,-1.10123 -0.47028,-1.84583c-0.04703,-0.7446 -0.07054,-1.52055 -0.07054,-2.32786c0,-1.80272 0.29393,-3.88761 0.88177,-6.25466c0.59568,-2.36705 1.38731,-4.82816 2.37489,-7.38332c0.99542,-2.55516 2.08097,-5.03195 3.25666,-7.43035c1.18353,-2.3984 2.36705,-4.56951 3.55058,-6.51331c1.18353,-1.95164 2.27691,-3.49963 3.28017,-4.64396c1.01109,-1.15217 1.83015,-1.72826 2.45719,-1.72826c0.48595,0 0.87785,0.33311 1.17569,0.99934c0.29784,0.65839 0.44676,1.45393 0.44676,2.38665c0,1.18353 -0.26257,2.51597 -0.78771,3.99734c-0.5173,1.47353 -1.25407,2.95881 -2.21029,4.45586c-0.95622,1.49704 -2.0888,2.90787 -3.39774,4.23248c-1.3011,1.31677 -2.71584,2.44543 -4.24423,3.38598c-1.15217,2.81381 -2.01434,5.55317 -2.58651,8.21806c-0.57217,2.65706 -0.85825,4.89086 -0.85825,6.70142c0.55649,-1.39515 1.22272,-2.92355 1.99867,-4.58518c0.78379,-1.66948 1.68124,-3.26841 2.69233,-4.79681c1.01109,-1.53624 2.10449,-2.7903 3.28017,-3.7622c1.18353,-0.9719 2.42192,-1.45785 3.71517,-1.45785c1.28542,0 2.37881,0.45068 3.28017,1.35205c0.90136,0.90136 1.35205,1.99475 1.35205,3.28017c0,1.11299 -0.28609,2.06137 -0.85825,2.84517c-0.57217,0.78379 -1.26582,1.41083 -2.08096,1.8811c-0.81514,0.47028 -1.6342,0.81906 -2.45718,1.04637c-0.81514,0.2273 -1.48529,0.34095 -2.01042,0.34095c0.03919,0.27432 0.145,0.77595 0.31744,1.50488c0.17244,0.72893 0.42325,1.49704 0.75244,2.30435c0.33703,0.79947 0.74852,1.48529 1.23448,2.05746c0.48595,0.57217 1.07771,0.85826 1.77529,0.85826c1.00325,0 1.95556,-0.38014 2.85693,-1.14041c0.9092,-0.76811 1.77137,-1.78705 2.58651,-3.05679c0.81514,-1.26974 1.5715,-2.70408 2.26908,-4.30302l0.52906,0.5173c-0.49379,1.70866 -1.24623,3.31936 -2.25732,4.83208c-1.00325,1.51272 -2.12408,2.74719 -3.36247,3.70342c-1.23056,0.95622 -2.45327,1.43434 -3.66815,1.43434zM53.16468,30.59891c1.59894,-1.29326 2.99801,-2.75503 4.19721,-4.38531c1.1992,-1.63812 2.128,-3.21355 2.78638,-4.72627c0.66623,-1.51272 0.99934,-2.70408 0.99934,-3.57409c0,-0.17244 -0.01175,-0.29392 -0.03527,-0.36446c-0.01567,-0.07054 -0.05487,-0.10581 -0.11757,-0.10581c-0.35271,0 -0.95622,0.61136 -1.81056,1.83407c-0.8465,1.21488 -1.81056,2.82165 -2.89219,4.82032c-1.07379,1.99867 -2.11624,4.16586 -3.12733,6.50156zM77.58254,51.82008c-1.18353,0 -2.11624,-0.31352 -2.79814,-0.94055c-0.67406,-0.6192 -1.01109,-1.43434 -1.01109,-2.44543c0,-1.04245 0.24298,-2.13583 0.72893,-3.28017c0.48595,-1.15217 0.96406,-2.29259 1.43434,-3.42125c0.47028,-1.12866 0.70541,-2.14759 0.70541,-3.05679c0,-1.11299 -0.32135,-1.93597 -0.96406,-2.46895c-0.64271,-0.54082 -1.29718,-1.03853 -1.9634,-1.49312c-0.79947,2.05354 -1.6342,4.00126 -2.50421,5.84317c-0.87001,1.84191 -1.58326,3.23315 -2.13975,4.1737l-0.47028,-0.88176c0.49379,-0.9092 1.12866,-2.23381 1.90461,-3.97383c0.78379,-1.74002 1.55975,-3.72302 2.32786,-5.94898c-0.35271,-0.34487 -0.52906,-0.76028 -0.52906,-1.24623c0,-1.04245 0.29393,-1.89285 0.88177,-2.55124c0.59568,-0.66623 1.03461,-0.99933 1.31677,-0.99933c0.38406,0 0.5996,0.16852 0.64663,0.50555c0.05487,0.32919 0.0823,0.58 0.0823,0.75244c0,0.17244 -0.09798,0.51338 -0.29392,1.02285c-0.18811,0.50163 -0.28217,0.80339 -0.28217,0.90528c0,0.48595 0.27041,0.9288 0.81123,1.32853c0.54082,0.39973 1.15609,0.85434 1.84583,1.3638c0.69757,0.50163 1.31677,1.10907 1.85759,1.82232c0.54082,0.71325 0.81123,1.62637 0.81123,2.73936c0,1.04245 -0.21946,2.10449 -0.65839,3.18612c-0.43109,1.07379 -0.86609,2.09665 -1.30501,3.06855c-0.43109,0.9719 -0.64662,1.82623 -0.64662,2.563c0,0.6192 0.15676,1.03461 0.47028,1.24623c0.31352,0.21162 0.67798,0.31744 1.09339,0.31744c0.83082,0 1.68907,-0.25865 2.57476,-0.77595c0.89352,-0.52514 1.75569,-1.18744 2.58651,-1.98691c0.83866,-0.80731 1.58718,-1.6538 2.24557,-2.53949c0.65839,-0.88568 1.14433,-1.70866 1.45785,-2.46895l0.6819,0.5173c-0.65839,1.45785 -1.56366,2.89219 -2.71584,4.30302c-1.14433,1.41083 -2.42192,2.56692 -3.83274,3.46828c-1.41083,0.90136 -2.86084,1.35205 -4.35005,1.35205zM90.45722,51.82008c-1.35596,0 -2.36313,-0.42717 -3.02151,-1.2815c-0.65839,-0.8465 -0.98758,-1.87718 -0.98758,-3.09206c0,-0.79947 0.145,-1.80664 0.43501,-3.02151c0.29784,-1.22272 0.68974,-2.50421 1.17569,-3.8445c0.48595,-1.34028 1.05028,-2.59827 1.69299,-3.77396c0.65054,-1.18353 1.34028,-2.14759 2.06921,-2.89219c0.72893,-0.75244 1.44218,-1.12866 2.13975,-1.12866c0.31352,0 0.58,0.09798 0.79947,0.29393c0.2273,0.18811 0.34095,0.47028 0.34095,0.8465c0,0.42325 -0.2704,1.10515 -0.81122,2.0457c-0.53298,0.93271 -1.16785,2.01043 -1.90461,3.23315c-0.72893,1.21488 -1.3638,2.49246 -1.90461,3.83274c-0.53298,1.34028 -0.79947,2.61787 -0.79947,3.83274c0,1.25407 0.2077,2.0888 0.62312,2.50422c0.41541,0.41541 1.05812,0.62312 1.92813,0.62312c1.18353,0 2.44543,-0.59176 3.78572,-1.77529c1.34028,-1.18353 2.75895,-3.25274 4.25599,-6.20763l0.47028,0.52906c-1.01109,2.98625 -2.46503,5.27884 -4.3618,6.87778c-1.89677,1.59894 -3.87193,2.3984 -5.92547,2.3984zM96.72363,27.9301c-0.55649,0 -1.0542,-0.13716 -1.49312,-0.41149c-0.43109,-0.28217 -0.64662,-0.71717 -0.64662,-1.30501c0,-0.72893 0.42325,-1.3638 1.26974,-1.90461c0.85434,-0.54082 1.70083,-0.81122 2.53949,-0.81122c0.5173,0 0.93271,0.12149 1.24623,0.36447c0.31352,0.24298 0.47028,0.66231 0.47028,1.25799c0,0.65839 -0.35663,1.29326 -1.06987,1.90461c-0.71325,0.60352 -1.48529,0.90528 -2.3161,0.90528zM104.13419,54.27727c-1.81056,0 -3.15868,-0.59176 -4.04437,-1.77529c-0.88568,-1.18353 -1.32852,-2.78246 -1.32852,-4.79681c0,-1.74002 0.29393,-3.78964 0.88177,-6.14885c0.58784,-2.36705 1.36772,-4.84776 2.33962,-7.4421c0.97974,-2.59435 2.06921,-5.126 3.26841,-7.59495c1.1992,-2.46895 2.40624,-4.70275 3.62112,-6.70142c1.22272,-1.99867 2.37097,-3.59761 3.44477,-4.79681c1.08163,-1.1992 1.97124,-1.7988 2.66882,-1.7988c0.58784,0 1.01109,0.36447 1.26974,1.09339c0.26649,0.72893 0.39973,1.46177 0.39973,2.19854c0,0.9719 -0.21162,2.15543 -0.63487,3.55058c-0.41541,1.38731 -1.00717,2.8726 -1.77529,4.45586c-0.76028,1.57542 -1.64596,3.13125 -2.65706,4.66749c-1.01109,1.52839 -2.10057,2.92747 -3.26841,4.19721c-1.16001,1.26974 -2.34746,2.26908 -3.56233,2.99801c-0.21162,0.38406 -0.5173,1.17569 -0.91704,2.37489c-0.39973,1.1992 -0.76419,2.57476 -1.09339,4.12667c-0.32919,1.54407 -0.49379,3.04504 -0.49379,4.50289c0,1.4265 0.21554,2.59827 0.64663,3.51531c0.43892,0.92488 1.17961,1.38731 2.22205,1.38731c1.01109,0 2.05354,-0.40757 3.12733,-1.22272c1.08163,-0.81514 1.95164,-1.86543 2.61003,-3.15084c-1.28542,-0.66623 -2.24165,-1.6342 -2.86868,-2.90395c-0.62703,-1.26974 -0.94055,-2.54733 -0.94055,-3.83274c0,-1.66948 0.43501,-3.00584 1.30502,-4.00909c0.87001,-1.01109 1.89677,-1.51663 3.0803,-1.51663c1.00325,0 1.79881,0.40757 2.38665,1.22272c0.59568,0.81514 0.89352,2.00651 0.89352,3.57409c0,1.15217 -0.15676,2.3357 -0.47028,3.55058c-0.31352,1.21488 -0.76419,2.3984 -1.35204,3.55058c0.21162,0.03135 0.42717,0.06662 0.64663,0.10582c0.2273,0.03135 0.46243,0.04703 0.70541,0.04703c1.25407,0 2.29651,-0.30176 3.12733,-0.90528c0.83866,-0.61136 1.54408,-1.35988 2.11626,-2.24556c0.58,-0.89352 1.05812,-1.74002 1.43434,-2.53949l0.63487,0.6819c-0.97974,2.3984 -2.13976,3.9895 -3.48006,4.77329c-1.33244,0.78379 -2.66098,1.17569 -3.98558,1.17569c-0.27432,0 -0.55257,-0.01567 -0.83473,-0.04703c-0.27432,-0.03919 -0.55257,-0.07838 -0.83473,-0.11757c-0.94055,1.59894 -2.09665,2.96273 -3.46828,4.09139c-1.37164,1.1365 -2.97841,1.70475 -4.82032,1.70475zM111.37643,46.87044c0.38406,-0.79947 0.67798,-1.64204 0.88177,-2.52773c0.21162,-0.88568 0.31744,-1.7988 0.31744,-2.73935c0,-1.22272 -0.1646,-2.17894 -0.49379,-2.86868c-0.32919,-0.69757 -0.73677,-1.04636 -1.22272,-1.04636c-0.52514,0 -0.98758,0.35663 -1.38731,1.06988c-0.39973,0.71325 -0.5996,1.60678 -0.5996,2.68057c0,0.94055 0.19203,1.93205 0.57609,2.97449c0.38406,1.04245 1.02677,1.86151 1.92813,2.45719zM105.3334,34.34936c0.9719,-0.76811 1.91638,-1.74002 2.83341,-2.91571c0.92488,-1.18353 1.78705,-2.44543 2.58651,-3.78572c0.79947,-1.34028 1.51272,-2.65314 2.13975,-3.93855c0.62703,-1.28542 1.11299,-2.44935 1.45785,-3.49179c0.35271,-1.05028 0.52906,-1.83407 0.52906,-2.35138c0,-0.17244 -0.01959,-0.28609 -0.05878,-0.34095c-0.03135,-0.05487 -0.08229,-0.08229 -0.15284,-0.08229c-0.28217,0 -0.81514,0.49771 -1.59894,1.49313c-0.77595,0.98758 -1.64204,2.30827 -2.59827,3.96207c-0.95622,1.6538 -1.90461,3.48004 -2.84517,5.47871c-0.94055,1.99867 -1.70474,3.9895 -2.29259,5.9725zM124.15825,52.03171c-1.49704,0 -2.56692,-0.51338 -3.20963,-1.54015c-0.64271,-1.02677 -0.96406,-2.30435 -0.96406,-3.83274c0,-1.66948 0.31352,-3.65247 0.94055,-5.94898c0.62703,-2.29651 1.45393,-4.71059 2.48071,-7.24224c1.02677,-2.53949 2.14759,-5.01627 3.36247,-7.43035c1.21488,-2.42192 2.42976,-4.62437 3.64463,-6.60737c1.22272,-1.983 2.34746,-3.56625 3.37423,-4.74978c1.02677,-1.18353 1.83407,-1.77529 2.42192,-1.77529c0.38406,0 0.69757,0.21946 0.94055,0.65839c0.24298,0.43109 0.43501,0.95231 0.57609,1.56367c0.14108,0.61136 0.21162,1.16001 0.21162,1.64596c0,0.93271 -0.23514,2.15935 -0.70541,3.67991c-0.47028,1.51272 -1.13258,3.19787 -1.98691,5.05546c-0.85434,1.85759 -1.86543,3.73477 -3.03328,5.63155c-1.16001,1.89677 -2.42584,3.71517 -3.79747,5.45519c-1.37164,1.74002 -2.82557,3.23315 -4.3618,4.47938c-0.20378,0.94055 -0.36838,1.85367 -0.49379,2.73936c-0.11757,0.88568 -0.17635,1.72827 -0.17635,2.52773c0,1.3638 0.18811,2.37489 0.56433,3.03328c0.38406,0.65839 0.96014,0.98758 1.72827,0.98758c0.94055,0 1.86935,-0.41541 2.78638,-1.24623c0.92488,-0.83866 1.79489,-1.89285 2.61003,-3.1626c0.81514,-1.26974 1.52055,-2.58259 2.11624,-3.93855l0.77595,0.42325c-1.38731,2.95489 -2.90003,5.29452 -4.53816,7.01886c-1.63029,1.7165 -3.38598,2.57476 -5.26708,2.57476zM124.52271,39.299c1.22272,-1.21488 2.40624,-2.61395 3.55058,-4.1972c1.14433,-1.58326 2.21029,-3.22531 3.19787,-4.92613c0.99542,-1.70083 1.87718,-3.35071 2.6453,-4.94964c0.76811,-1.60678 1.35988,-3.04503 1.77529,-4.31477c0.41541,-1.26974 0.62312,-2.24948 0.62312,-2.93922c0,-0.35271 -0.04311,-0.58 -0.12932,-0.6819c-0.08621,-0.1019 -0.1646,-0.15284 -0.23514,-0.15284c-0.27432,0 -0.75244,0.44284 -1.43434,1.32853c-0.6819,0.88568 -1.47353,2.07705 -2.37489,3.57409c-0.90136,1.49704 -1.82231,3.20179 -2.76286,5.11425c-0.94055,1.91246 -1.83799,3.91113 -2.69232,5.99601c-0.8465,2.08488 -1.56758,4.1345 -2.16327,6.14885zM135.7403,52.13752c-1.49704,0 -2.55908,-0.46243 -3.18611,-1.38731c-0.6192,-0.91704 -0.92879,-2.03786 -0.92879,-3.36247c0,-1.07379 0.17244,-2.18286 0.5173,-3.32719c0.34487,-1.15217 0.80339,-2.23381 1.37556,-3.2449c0.58,-1.01109 1.22664,-1.82623 1.93989,-2.44543c0.71325,-0.62703 1.43434,-0.94055 2.16327,-0.94055c0.17244,0 0.35271,0.02743 0.54082,0.0823c0.19595,0.04703 0.38014,0.10582 0.55258,0.17636c-0.31352,0.27432 -0.68974,0.78771 -1.12866,1.54016c-0.43109,0.7446 -0.83866,1.59502 -1.22272,2.55125c-0.37622,0.95622 -0.69757,1.90461 -0.96406,2.84517c-0.25865,0.94055 -0.38797,1.74002 -0.38797,2.3984c0,1.04245 0.17244,1.79881 0.5173,2.26908c0.35271,0.47028 0.80731,0.70541 1.3638,0.70541c0.72893,0 1.59502,-0.39189 2.59827,-1.17569c1.01109,-0.78379 2.00651,-1.78313 2.98625,-2.998c-0.97974,-0.79947 -1.74002,-1.84975 -2.28084,-3.15084c-0.53298,-1.30893 -0.79947,-2.64138 -0.79947,-3.99734c0,-1.14433 0.19987,-2.22205 0.5996,-3.23314c0.39973,-1.01109 0.97974,-1.8184 1.74002,-2.42192c0.76811,-0.61136 1.69299,-0.91704 2.77462,-0.91704c1.41867,0 2.37097,0.38406 2.85693,1.15217c0.49379,0.76028 0.74069,1.7165 0.74069,2.86868c0,1.35596 -0.33311,2.86084 -0.99933,4.51464c-0.65839,1.64596 -1.49312,3.23706 -2.50421,4.77329c0.62703,0.34487 1.28934,0.5173 1.98692,0.5173c0.55649,0 1.18353,-0.11365 1.8811,-0.34095c0.69757,-0.2273 1.38339,-0.6192 2.05746,-1.17569c0.6819,-0.55649 1.23056,-1.3011 1.64596,-2.23381l0.62312,0.5173c-0.69757,1.63029 -1.68123,2.78638 -2.95097,3.46828c-1.26974,0.67406 -2.47679,1.01109 -3.62112,1.01109c-0.4546,0 -0.8896,-0.04311 -1.30501,-0.12932c-0.41541,-0.08621 -0.81514,-0.21554 -1.1992,-0.38797c-1.18353,1.56758 -2.4807,2.8726 -3.89152,3.91505c-1.40299,1.04245 -2.76678,1.56367 -4.09139,1.56367zM143.40578,44.47203c0.87001,-1.28542 1.5911,-2.63354 2.16327,-4.04437c0.58,-1.41083 0.87001,-2.74327 0.87001,-3.99734c0,-1.00325 -0.14892,-1.74002 -0.44676,-2.21029c-0.29784,-0.47028 -0.67014,-0.70541 -1.1169,-0.70541c-0.69757,0 -1.41083,0.50555 -2.13975,1.51664c-0.72893,1.00325 -1.09339,2.27299 -1.09339,3.80923c0,1.00325 0.145,2.01826 0.43501,3.04504c0.29784,1.02677 0.74069,1.88894 1.32853,2.58651zM158.63687,20.41745c-0.24298,-0.17244 -0.47028,-0.38014 -0.6819,-0.62311c-0.20378,-0.24298 -0.30568,-0.52122 -0.30568,-0.83473c0,-0.4546 0.24298,-1.03853 0.72893,-1.75177c0.48595,-0.71325 0.9915,-1.45001 1.51664,-2.21029c0.52514,-0.76811 0.87393,-1.46569 1.04637,-2.09272c0.34487,0 0.64663,0.14892 0.90528,0.44676c0.26649,0.29784 0.39973,0.63879 0.39973,1.02285c0,0.44676 -0.21162,1.01893 -0.63487,1.7165c-0.41541,0.69757 -0.9092,1.43042 -1.48137,2.19854c-0.57217,0.76028 -1.06987,1.46961 -1.49312,2.128zM162.13899,53.1251c-1.63812,0 -2.9353,-0.35663 -3.89152,-1.06987c-0.95622,-0.71325 -1.6342,-1.5911 -2.03394,-2.63354c-0.39973,-1.04245 -0.5996,-2.08488 -0.5996,-3.12733c0,-1.04245 0.14108,-1.84191 0.42325,-2.3984c0.27432,-0.55649 0.61136,-0.9719 1.01109,-1.24623c0.39973,-0.28217 0.77987,-0.49379 1.14042,-0.63487c0.36838,-0.14108 0.62312,-0.27824 0.7642,-0.41149c1.04245,-1.15217 1.99867,-2.35138 2.86868,-3.59761c0.87001,-1.25407 1.63421,-2.57867 2.2926,-3.97383v-0.62311c0,-1.28542 0.21554,-2.19853 0.64663,-2.73935c0.43892,-0.54082 0.90528,-0.81122 1.39907,-0.81122c0.27432,0 0.48204,0.07054 0.62312,0.21162c0.14108,0.14108 0.21162,0.29784 0.21162,0.47028c0,0.17244 -0.05487,0.45068 -0.1646,0.83474c-0.1019,0.38406 -0.15284,0.87001 -0.15284,1.45785c0,1.15217 0.22338,2.3984 0.67015,3.73869c0.4546,1.33244 0.9092,2.73936 1.3638,4.22072c0.4546,1.48137 0.6819,3.02152 0.6819,4.62046c0,0.44676 -0.02743,0.8896 -0.08229,1.32853c-0.05487,0.43109 -0.13324,0.83866 -0.23514,1.22272c1.21488,-0.21162 2.35922,-0.76028 3.43301,-1.64596c1.08163,-0.88568 2.128,-2.30043 3.13909,-4.24423l0.47028,0.5173c-0.65839,1.91246 -1.64988,3.36639 -2.97449,4.36181c-1.32461,0.98758 -2.76678,1.60286 -4.32653,1.84583c-0.55649,1.49704 -1.43434,2.59043 -2.63354,3.28017c-1.1992,0.69757 -2.54733,1.04637 -4.04437,1.04637zM162.24481,51.30278c0.41541,0 0.96798,-0.14108 1.65772,-0.42325c0.69757,-0.27432 1.23839,-0.98366 1.62245,-2.12799c-1.45785,-0.28217 -2.75111,-0.85825 -3.87977,-1.72826c-1.12866,-0.87001 -1.97124,-1.74002 -2.52773,-2.61003c-0.76811,0.03919 -1.15217,0.65054 -1.15217,1.83407c0,1.24623 0.3723,2.40232 1.11691,3.46828c0.75244,1.05812 1.80664,1.58718 3.16261,1.58718zM165.78363,47.9168c0.07054,-0.35271 0.12149,-0.71717 0.15284,-1.09339c0.03919,-0.38406 0.05879,-0.83866 0.05879,-1.3638c0,-1.63029 -0.19986,-3.25274 -0.5996,-4.86735c-0.39973,-1.62245 -0.73677,-3.14692 -1.01109,-4.57342c-0.79947,1.32461 -1.64596,2.58651 -2.53949,3.78572c-0.88568,1.1992 -1.72826,2.19854 -2.52773,2.99801c0.52514,1.11299 1.33244,2.15543 2.42192,3.12733c1.09731,0.9719 2.44543,1.63421 4.04437,1.98692z" fill="#b5a849" stroke="none" stroke-width="1" stroke-linecap="square" stroke-linejoin="miter"/></g></g></svg>