<svg version="1.1" xmlns="http://www.w3.org/2000/svg" xmlns:xlink="http://www.w3.org/1999/xlink" width="289.17401" height="289.17401" viewBox="0,0,289.17401,289.17401"><g transform="translate(-95.41299,-35.41299)"><g data-paper-data="{&quot;isPaintingLayer&quot;:true}" fill-rule="nonzero" stroke="none" stroke-linejoin="miter" stroke-miterlimit="10" stroke-dasharray="" stroke-dashoffset="0" style="mix-blend-mode: normal"><path d="M233.34363,175.05942h-9.25v-6.67187h9.25v-1.92187c0,-2.32292 0.36979,-4.36979 1.10938,-6.14062c0.73958,-1.78125 1.79167,-3.28125 3.15625,-4.5c1.36458,-1.21875 3.02083,-2.13542 4.96875,-2.75c1.95833,-0.61458 4.14063,-0.92187 6.54688,-0.92187c0.76042,0 1.49479,0.02604 2.20313,0.07813c0.70833,0.05208 1.39583,0.125 2.0625,0.21875c0.67708,0.08333 1.35417,0.18229 2.03125,0.29688c0.6875,0.10417 1.40104,0.21875 2.14063,0.34375l-0.59375,7.09375c-0.82292,-0.16667 -1.75521,-0.3125 -2.79687,-0.4375c-1.04167,-0.13542 -2.26562,-0.20312 -3.67187,-0.20312c-1.52083,0 -2.8125,0.17188 -3.875,0.51563c-1.0625,0.34375 -1.91146,0.85417 -2.54687,1.53125c-0.5625,0.5625 -0.97917,1.25521 -1.25,2.07813c-0.27083,0.82292 -0.40625,1.75521 -0.40625,2.79688v1.92188h12.70313v6.67188h-12.70312v28.54688h-9.07812z" fill="#ff0000" stroke-width="1" stroke-linecap="square"/><path d="M95.413,180c0,-79.8532 64.7338,-144.587 144.58701,-144.587c79.8532,0 144.587,64.7338 144.587,144.58701c0,79.8532 -64.7338,144.587 -144.587,144.587c-79.8532,0 -144.587,-64.7338 -144.587,-144.587z" fill="none" stroke-width="0" stroke-linecap="butt"/></g></g></svg>