<svg version="1.1" xmlns="http://www.w3.org/2000/svg" xmlns:xlink="http://www.w3.org/1999/xlink" width="289.17401" height="289.17401" viewBox="0,0,289.17401,289.17401"><g transform="translate(-95.41301,-35.41301)"><g data-paper-data="{&quot;isPaintingLayer&quot;:true}" fill-rule="nonzero" stroke="none" stroke-linejoin="miter" stroke-miterlimit="10" stroke-dasharray="" stroke-dashoffset="0" style="mix-blend-mode: normal"><path d="M255.85927,187.62192c0,2.64583 -0.36458,5 -1.09375,7.0625c-0.71875,2.0625 -1.76042,3.80208 -3.125,5.21875c-1.39583,1.42708 -3.08854,2.51042 -5.07812,3.25c-1.97917,0.73958 -4.23958,1.10938 -6.78125,1.10938c-2.38542,0 -4.53646,-0.36979 -6.45312,-1.10937c-1.91667,-0.73958 -3.5625,-1.8125 -4.9375,-3.21875c-1.36458,-1.41667 -2.42187,-3.16146 -3.17187,-5.23437c-0.75,-2.07292 -1.125,-4.43229 -1.125,-7.07812l0.04688,-31.40625h9.14063l0.03125,31.40625c0.02083,1.58333 0.17708,2.97396 0.46875,4.17188c0.29167,1.1875 0.73438,2.17188 1.32813,2.95313c0.54167,0.71875 1.20313,1.26042 1.98438,1.625c0.78125,0.35417 1.67708,0.53125 2.6875,0.53125c1.11458,0 2.09896,-0.1875 2.95313,-0.5625c0.85417,-0.38542 1.5625,-0.95833 2.125,-1.71875c0.61458,-0.78125 1.07292,-1.75521 1.375,-2.92187c0.30208,-1.17708 0.46354,-2.53646 0.48438,-4.07812l0.03125,-31.40625h9.07813z" fill="#ff0000" stroke-width="1" stroke-linecap="square"/><path d="M95.41302,180.00001c0,-79.8532 64.7338,-144.587 144.58701,-144.587c79.8532,0 144.587,64.7338 144.587,144.58701c0,79.8532 -64.7338,144.587 -144.587,144.587c-79.8532,0 -144.587,-64.7338 -144.587,-144.587z" fill="none" stroke-width="0" stroke-linecap="butt"/></g></g></svg>