<svg version="1.1" xmlns="http://www.w3.org/2000/svg" xmlns:xlink="http://www.w3.org/1999/xlink" width="289.17401" height="289.17401" viewBox="0,0,289.17401,289.17401"><g transform="translate(-95.41299,-35.41299)"><g data-paper-data="{&quot;isPaintingLayer&quot;:true}" fill-rule="nonzero" stroke="none" stroke-linejoin="miter" stroke-miterlimit="10" stroke-dasharray="" stroke-dashoffset="0" style="mix-blend-mode: normal"><path d="M223.24987,203.60631v-6.1875l15.32813,-16.46875c1.19792,-1.30208 2.20833,-2.48437 3.03125,-3.54687c0.82292,-1.0625 1.49479,-2.03646 2.01563,-2.92187c0.5,-0.875 0.86458,-1.6875 1.09375,-2.4375c0.22917,-0.76042 0.34375,-1.5 0.34375,-2.21875c0,-1.0625 -0.15104,-2.00521 -0.45312,-2.82812c-0.30208,-0.83333 -0.72396,-1.54167 -1.26562,-2.125c-0.57292,-0.5625 -1.24479,-0.99479 -2.01562,-1.29687c-0.77083,-0.30208 -1.61979,-0.45312 -2.54687,-0.45312c-1.21875,0 -2.29167,0.16667 -3.21875,0.5c-0.91667,0.33333 -1.67708,0.82813 -2.28125,1.48438c-0.63542,0.66667 -1.11458,1.5 -1.4375,2.5c-0.32292,1 -0.48437,2.14063 -0.48437,3.42188h-9.07812c0,-2.10417 0.40104,-4.09375 1.20313,-5.96875c0.80208,-1.88542 1.94271,-3.53125 3.42188,-4.9375c1.44792,-1.40625 3.20833,-2.51562 5.28125,-3.32812c2.07292,-0.82292 4.36979,-1.23437 6.89063,-1.23437c2.40625,0 4.53646,0.33854 6.39063,1.01563c1.85417,0.67708 3.41146,1.61979 4.67188,2.82813c1.23958,1.21875 2.18229,2.68229 2.82813,4.39063c0.65625,1.69792 0.98438,3.57813 0.98438,5.64063c0,1.5625 -0.24479,3.05729 -0.73437,4.48438c-0.48958,1.41667 -1.18229,2.81771 -2.07812,4.20313c-0.90625,1.38542 -1.98958,2.80208 -3.25,4.25c-1.26042,1.4375 -2.66146,2.94792 -4.20312,4.53125l-8.90625,9.4375h20.79688v7.26563z" fill="#ff0000" stroke-width="1" stroke-linecap="square"/><path d="M95.413,180c0,-79.8532 64.7338,-144.587 144.58701,-144.587c79.8532,0 144.587,64.7338 144.587,144.58701c0,79.8532 -64.7338,144.587 -144.587,144.587c-79.8532,0 -144.587,-64.7338 -144.587,-144.587z" fill="none" stroke-width="0" stroke-linecap="butt"/></g></g></svg>