<svg version="1.1" xmlns="http://www.w3.org/2000/svg" xmlns:xlink="http://www.w3.org/1999/xlink" width="289.17401" height="289.17401" viewBox="0,0,289.17401,289.17401"><g transform="translate(-95.41299,-35.41299)"><g data-paper-data="{&quot;isPaintingLayer&quot;:true}" fill-rule="nonzero" stroke="none" stroke-linejoin="miter" stroke-miterlimit="10" stroke-dasharray="" stroke-dashoffset="0" style="mix-blend-mode: normal"><path d="M224.59363,168.38756h8.20313l0.54688,4.89063c0.45833,-0.65625 0.95833,-1.25521 1.5,-1.79687c0.54167,-0.54167 1.11458,-1.03125 1.71875,-1.46875c1.04167,-0.72917 2.18229,-1.28646 3.42188,-1.67187c1.23958,-0.39583 2.55208,-0.59375 3.9375,-0.59375c1.78125,0 3.40625,0.26042 4.875,0.78125c1.47917,0.52083 2.76042,1.34375 3.84375,2.46875c1.0625,1.14583 1.89063,2.61458 2.48438,4.40625c0.60417,1.79167 0.90625,3.96875 0.90625,6.53125v21.67188h-9.04687v-21.54687c0,-1.38542 -0.16146,-2.52604 -0.48437,-3.42187c-0.3125,-0.90625 -0.76042,-1.61979 -1.34375,-2.14062c-0.58333,-0.52083 -1.28646,-0.88542 -2.10937,-1.09375c-0.82292,-0.20833 -1.75521,-0.3125 -2.79687,-0.3125c-0.875,0 -1.67708,0.09896 -2.40625,0.29688c-0.71875,0.19792 -1.35937,0.48958 -1.92187,0.875c-0.45833,0.28125 -0.875,0.61979 -1.25,1.01563c-0.36458,0.38542 -0.69792,0.81771 -1,1.29688v25.03125h-9.07812z" fill="#ff0000" stroke-width="1" stroke-linecap="square"/><path d="M95.413,180c0,-79.8532 64.7338,-144.587 144.58701,-144.587c79.8532,0 144.587,64.7338 144.587,144.58701c0,79.8532 -64.7338,144.587 -144.587,144.587c-79.8532,0 -144.587,-64.7338 -144.587,-144.587z" fill="none" stroke-width="0" stroke-linecap="butt"/></g></g></svg>