<svg version="1.1" xmlns="http://www.w3.org/2000/svg" xmlns:xlink="http://www.w3.org/1999/xlink" width="356.25182" height="356.25182" viewBox="0,0,356.25182,356.25182"><g transform="translate(-61.87413,-1.87412)"><g data-paper-data="{&quot;isPaintingLayer&quot;:true}" fill="none" fill-rule="nonzero" stroke-linecap="butt" stroke-linejoin="miter" stroke-miterlimit="10" stroke-dasharray="" stroke-dashoffset="0" style="mix-blend-mode: normal"><path d="M190.3572,180.00005c0,-27.41699 22.22586,-49.64286 49.64286,-49.64286c27.41699,0 49.64286,22.22586 49.64286,49.64286c0,27.41699 -22.22586,49.64286 -49.64286,49.64286c-27.41699,0 -49.64286,-22.22586 -49.64286,-49.64286z" stroke="none" stroke-width="0"/><path d="M165.66642,180.00004c0,-41.05332 33.28029,-74.33362 74.33362,-74.33362c41.05332,0 74.33362,33.28029 74.33362,74.33362c0,41.05332 -33.28029,74.33362 -74.33362,74.33362c-41.05332,0 -74.33362,-33.28029 -74.33362,-74.33362z" stroke="#f7e963" stroke-width="50"/><path d="M61.87413,180.00004c0,-98.37621 79.74967,-178.12591 178.12591,-178.12591c98.37621,0 178.12591,79.74967 178.12591,178.12591c0,98.37621 -79.74967,178.12591 -178.12591,178.12591c-98.37621,0 -178.12591,-79.74967 -178.12591,-178.12591z" stroke="none" stroke-width="0"/><path d="M118.76767,180.00002c0,-66.95477 54.27757,-121.23236 121.23236,-121.23236c66.95477,0 121.23236,54.27757 121.23236,121.23236c0,66.95477 -54.27757,121.23236 -121.23236,121.23236c-66.95477,0 -121.23236,-54.27757 -121.23236,-121.23236z" stroke="#f7e963" stroke-width="50"/><path d="M112.61701,180.00003c0,-70.35169 57.03131,-127.38301 127.38301,-127.38301c70.35169,0 127.38301,57.03131 127.38301,127.38301c0,70.35169 -57.03131,127.38301 -127.38301,127.38301c-70.35169,0 -127.38301,-57.03131 -127.38301,-127.38301z" stroke="#f7e963" stroke-width="50"/></g></g></svg>