<svg version="1.1" xmlns="http://www.w3.org/2000/svg" xmlns:xlink="http://www.w3.org/1999/xlink" width="289.17401" height="289.17401" viewBox="0,0,289.17401,289.17401"><g transform="translate(-95.41299,-35.41299)"><g data-paper-data="{&quot;isPaintingLayer&quot;:true}" fill-rule="nonzero" stroke="none" stroke-linejoin="miter" stroke-miterlimit="10" stroke-dasharray="" stroke-dashoffset="0" style="mix-blend-mode: normal"><path d="M248.60925,163.34067h-0.51562c-2.38542,0 -4.5,0.31771 -6.34375,0.95313c-1.83333,0.625 -3.38542,1.51563 -4.65625,2.67188c-1.30208,1.14583 -2.32812,2.52083 -3.07812,4.125c-0.75,1.60417 -1.22396,3.39583 -1.42187,5.375c0.5,-0.54167 1.07292,-1.07812 1.71875,-1.60937c0.65625,-0.53125 1.39583,-1.01562 2.21875,-1.45312c0.80208,-0.41667 1.68229,-0.75521 2.64063,-1.01562c0.95833,-0.26042 1.98958,-0.39062 3.09375,-0.39062c2.25,0 4.21354,0.43229 5.89063,1.29688c1.6875,0.85417 3.09896,2.01042 4.23438,3.46875c1.125,1.46875 1.96354,3.17708 2.51563,5.125c0.55208,1.9375 0.82813,3.97917 0.82813,6.125c0,2.30208 -0.36979,4.44271 -1.10937,6.42188c-0.73958,1.96875 -1.79167,3.68229 -3.15625,5.14063c-1.36458,1.44792 -3.02604,2.59375 -4.98437,3.4375c-1.94792,0.83333 -4.13542,1.25 -6.5625,1.25c-2.54167,0 -4.83333,-0.47396 -6.875,-1.42187c-2.04167,-0.94792 -3.76562,-2.25521 -5.17187,-3.92187c-1.42708,-1.66667 -2.52604,-3.64583 -3.29687,-5.9375c-0.77083,-2.29167 -1.15625,-4.79167 -1.15625,-7.5v-3.48437c0,-3.75 0.51042,-7.22396 1.53125,-10.42187c1.02083,-3.20833 2.53646,-5.98437 4.54688,-8.32812c2.02083,-2.32292 4.52604,-4.14062 7.51563,-5.45312c3,-1.3125 6.46354,-1.96875 10.39063,-1.96875h1.20313zM237.18737,179.63754c-0.76042,0.25 -1.45312,0.60417 -2.07812,1.0625c-0.55208,0.40625 -1.05208,0.88021 -1.5,1.42188c-0.4375,0.54167 -0.80729,1.14063 -1.10937,1.79688v2.67188c0,1.72917 0.17708,3.24479 0.53125,4.54688c0.36458,1.30208 0.86979,2.375 1.51563,3.21875c0.65625,0.875 1.42708,1.53125 2.3125,1.96875c0.88542,0.42708 1.84896,0.64063 2.89063,0.64063c1.0625,0 2.02604,-0.21875 2.89063,-0.65625c0.875,-0.44792 1.61458,-1.0625 2.21875,-1.84375c0.61458,-0.78125 1.08333,-1.70833 1.40625,-2.78125c0.32292,-1.08333 0.48438,-2.26042 0.48438,-3.53125c0,-1.28125 -0.16146,-2.46354 -0.48437,-3.54687c-0.32292,-1.09375 -0.79167,-2.04167 -1.40625,-2.84375c-0.60417,-0.78125 -1.34896,-1.39062 -2.23437,-1.82812c-0.875,-0.44792 -1.875,-0.67187 -3,-0.67187c-0.86458,0 -1.67708,0.125 -2.4375,0.375z" fill="#ff0000" stroke-width="1" stroke-linecap="square"/><path d="M95.413,180c0,-79.8532 64.7338,-144.587 144.58701,-144.587c79.8532,0 144.587,64.7338 144.587,144.58701c0,79.8532 -64.7338,144.587 -144.587,144.587c-79.8532,0 -144.587,-64.7338 -144.587,-144.587z" fill="none" stroke-width="0" stroke-linecap="butt"/></g></g></svg>