<svg version="1.1" xmlns="http://www.w3.org/2000/svg" xmlns:xlink="http://www.w3.org/1999/xlink" width="289.17401" height="289.17401" viewBox="0,0,289.17401,289.17401"><g transform="translate(-95.41299,-35.41299)"><g data-paper-data="{&quot;isPaintingLayer&quot;:true}" fill-rule="nonzero" stroke="none" stroke-linejoin="miter" stroke-miterlimit="10" stroke-dasharray="" stroke-dashoffset="0" style="mix-blend-mode: normal"><path d="M224.65612,178.41881c0.66667,-2.21875 1.61979,-4.11979 2.85938,-5.70312c1.23958,-1.58333 2.73438,-2.80729 4.48438,-3.67187c1.76042,-0.86458 3.75,-1.29687 5.96875,-1.29687c1.1875,0 2.27604,0.11458 3.26563,0.34375c0.98958,0.21875 1.88542,0.55729 2.6875,1.01563c0.60417,0.32292 1.16667,0.70833 1.6875,1.15625c0.52083,0.44792 1,0.94271 1.4375,1.48438l0.35938,-3.35937h8.23438v34.07813c0,2.38542 -0.40625,4.51042 -1.21875,6.375c-0.8125,1.875 -1.94792,3.44792 -3.40625,4.71875c-1.47917,1.28125 -3.24479,2.25 -5.29687,2.90625c-2.04167,0.66667 -4.30208,1 -6.78125,1c-1.0625,0 -2.20312,-0.10937 -3.42187,-0.32812c-1.20833,-0.20833 -2.41146,-0.54167 -3.60937,-1c-1.1875,-0.45833 -2.3125,-1.04167 -3.375,-1.75c-1.0625,-0.69792 -1.97396,-1.53646 -2.73437,-2.51562l4.0625,-5.5c0.58333,0.67708 1.21354,1.27083 1.89063,1.78125c0.67708,0.51042 1.38021,0.92708 2.10938,1.25c0.71875,0.32292 1.46354,0.5625 2.23438,0.71875c0.77083,0.16667 1.56771,0.25 2.39063,0.25c1.32292,0 2.5,-0.1875 3.53125,-0.5625c1.03125,-0.36458 1.89583,-0.90104 2.59375,-1.60937c0.625,-0.65625 1.10417,-1.46354 1.4375,-2.42187c0.34375,-0.94792 0.51563,-2.02083 0.51563,-3.21875v-2.01562c-0.4375,0.47917 -0.89583,0.91667 -1.375,1.3125c-0.47917,0.38542 -0.98958,0.72917 -1.53125,1.03125c-0.80208,0.4375 -1.6875,0.77604 -2.65625,1.01563c-0.95833,0.23958 -1.98958,0.35938 -3.09375,0.35938c-2.19792,0 -4.17187,-0.44792 -5.92187,-1.34375c-1.73958,-0.90625 -3.22917,-2.15104 -4.46875,-3.73437c-1.23958,-1.58333 -2.19271,-3.46354 -2.85937,-5.64062c-0.65625,-2.1875 -0.98437,-4.5625 -0.98437,-7.125v-0.6875c0,-2.66667 0.32813,-5.10417 0.98438,-7.3125zM233.203,190.54381c0.29167,1.27083 0.73958,2.36979 1.34375,3.29688c0.60417,0.95833 1.375,1.70833 2.3125,2.25c0.9375,0.54167 2.04167,0.8125 3.3125,0.8125c0.78125,0 1.48958,-0.07292 2.125,-0.21875c0.64583,-0.15625 1.22917,-0.375 1.75,-0.65625c0.54167,-0.3125 1.02083,-0.68229 1.4375,-1.10937c0.41667,-0.4375 0.77604,-0.92708 1.07813,-1.46875v-14.90625c-0.33333,-0.60417 -0.72917,-1.13542 -1.1875,-1.59375c-0.44792,-0.45833 -0.96354,-0.82812 -1.54687,-1.10937c-0.5,-0.23958 -1.05208,-0.42187 -1.65625,-0.54687c-0.59375,-0.13542 -1.23437,-0.20312 -1.92187,-0.20312c-1.28125,0 -2.39062,0.28125 -3.32812,0.84375c-0.92708,0.55208 -1.69792,1.30208 -2.3125,2.25c-0.625,0.97917 -1.08854,2.11458 -1.39062,3.40625c-0.30208,1.29167 -0.45312,2.67188 -0.45312,4.14063v0.6875c0,1.47917 0.14583,2.85417 0.4375,4.125z" fill="#ff0000" stroke-width="1" stroke-linecap="square"/><path d="M95.413,180c0,-79.8532 64.7338,-144.587 144.58701,-144.587c79.8532,0 144.587,64.7338 144.587,144.58701c0,79.8532 -64.7338,144.587 -144.587,144.587c-79.8532,0 -144.587,-64.7338 -144.587,-144.587z" fill="none" stroke-width="0" stroke-linecap="butt"/></g></g></svg>