<svg version="1.1" xmlns="http://www.w3.org/2000/svg" xmlns:xlink="http://www.w3.org/1999/xlink" width="289.17401" height="289.17401" viewBox="0,0,289.17401,289.17401"><g transform="translate(-95.413,-35.413)"><g data-paper-data="{&quot;isPaintingLayer&quot;:true}" fill-rule="nonzero" stroke="none" stroke-linecap="butt" stroke-linejoin="miter" stroke-miterlimit="10" stroke-dasharray="" stroke-dashoffset="0" style="mix-blend-mode: normal"><path d="M216.7489,184.64644c0,-4.61876 3.74424,-8.363 8.363,-8.363c0.02314,0 0.04627,0.00008 0.06937,0.00027c1.23475,-1.58324 3.06403,-2.68015 5.1523,-2.95521c1.14602,-4.52973 5.24906,-7.88166 10.13497,-7.88166c3.37781,0 6.38145,1.60204 8.29252,4.08775c0.85819,-0.32269 1.78795,-0.49919 2.75893,-0.49919c4.33009,0 7.84031,3.51022 7.84031,7.84031c0,0.54148 -0.0549,1.07015 -0.15942,1.58075c2.42033,1.33461 4.05994,3.91102 4.05994,6.87037c0,2.87037 -1.54249,5.3805 -3.84378,6.74666c-0.70513,0.55564 -1.64266,0.90237 -3.04925,1.03701c-0.31054,0.0374 -0.62666,0.05664 -0.9473,0.05664c-9.63908,0.27297 -19.29017,0.28756 -28.92881,0c-0.56594,-0.01689 -1.09712,-0.07152 -1.59415,-0.1604c-4.51968,-0.11374 -8.14861,-3.81323 -8.14861,-8.3603z" fill="#ff0000" stroke-width="0.5"/><path d="M95.41301,180.00001c0,-79.8532 64.7338,-144.587 144.58701,-144.587c79.8532,0 144.587,64.7338 144.587,144.58701c0,79.8532 -64.7338,144.587 -144.587,144.587c-79.8532,0 -144.587,-64.7338 -144.587,-144.587z" fill="none" stroke-width="0"/></g></g></svg>