<svg version="1.1" xmlns="http://www.w3.org/2000/svg" xmlns:xlink="http://www.w3.org/1999/xlink" width="289.17401" height="289.17401" viewBox="0,0,289.17401,289.17401"><g transform="translate(-95.41301,-35.41301)"><g data-paper-data="{&quot;isPaintingLayer&quot;:true}" fill-rule="nonzero" stroke="none" stroke-linejoin="miter" stroke-miterlimit="10" stroke-dasharray="" stroke-dashoffset="0" style="mix-blend-mode: normal"><path d="M220.84362,156.21567h8.35938l3.17188,26.5l0.21875,1.84375l0.29688,-1.95312l3.73438,-26.39062h6.54688l3.96875,26.59375l0.29688,1.95313l0.23438,-1.98437l3.21875,-26.5625h8.39063l-6.57812,47.39063h-8.26562l-4.125,-25.57812l-0.35937,-2.40625l-0.35937,2.40625l-3.96875,25.57813h-8.26562z" fill="#ff0000" stroke-width="1" stroke-linecap="square"/><path d="M95.41302,180.00001c0,-79.8532 64.7338,-144.587 144.58701,-144.587c79.8532,0 144.587,64.7338 144.587,144.58701c0,79.8532 -64.7338,144.587 -144.587,144.587c-79.8532,0 -144.587,-64.7338 -144.587,-144.587z" fill="none" stroke-width="0" stroke-linecap="butt"/></g></g></svg>