<svg version="1.1" xmlns="http://www.w3.org/2000/svg" xmlns:xlink="http://www.w3.org/1999/xlink" width="289.17401" height="289.17401" viewBox="0,0,289.17401,289.17401"><g transform="translate(-95.41301,-35.41301)"><g data-paper-data="{&quot;isPaintingLayer&quot;:true}" fill-rule="nonzero" stroke="none" stroke-linejoin="miter" stroke-miterlimit="10" stroke-dasharray="" stroke-dashoffset="0" style="mix-blend-mode: normal"><path d="M233.40614,185.90317v17.70313h-9.14062v-47.39062h15.875c2.625,0 5,0.3125 7.125,0.9375c2.13542,0.61458 3.96354,1.51563 5.48438,2.70313c1.48958,1.19792 2.64063,2.6875 3.45313,4.46875c0.8125,1.78125 1.21875,3.84375 1.21875,6.1875c0,1.6875 -0.20312,3.20833 -0.60937,4.5625c-0.39583,1.35417 -0.95833,2.5625 -1.6875,3.625c-0.76042,1.09375 -1.66667,2.04167 -2.71875,2.84375c-1.05208,0.80208 -2.22917,1.49479 -3.53125,2.07813l10.1875,19.5625v0.42188h-9.79687l-8.92187,-17.70312zM240.17178,178.48131c1.41667,0 2.66146,-0.19792 3.73438,-0.59375c1.07292,-0.40625 1.94792,-0.98958 2.625,-1.75c0.5625,-0.60417 0.98958,-1.32812 1.28125,-2.17187c0.29167,-0.85417 0.4375,-1.80208 0.4375,-2.84375c0,-1.26042 -0.19271,-2.36979 -0.57812,-3.32812c-0.375,-0.96875 -0.94271,-1.76562 -1.70312,-2.39062c-0.66667,-0.57292 -1.48958,-1.01042 -2.46875,-1.3125c-0.97917,-0.30208 -2.09896,-0.45312 -3.35937,-0.45312h-6.73437v14.84375z" fill="#ff0000" stroke-width="1" stroke-linecap="square"/><path d="M95.41302,180.00001c0,-79.8532 64.7338,-144.587 144.58701,-144.587c79.8532,0 144.587,64.7338 144.587,144.58701c0,79.8532 -64.7338,144.587 -144.587,144.587c-79.8532,0 -144.587,-64.7338 -144.587,-144.587z" fill="none" stroke-width="0" stroke-linecap="butt"/></g></g></svg>