<svg version="1.1" xmlns="http://www.w3.org/2000/svg" xmlns:xlink="http://www.w3.org/1999/xlink" width="289.17401" height="289.17401" viewBox="0,0,289.17401,289.17401"><g transform="translate(-95.41299,-35.41299)"><g data-paper-data="{&quot;isPaintingLayer&quot;:true}" fill-rule="nonzero" stroke="none" stroke-linejoin="miter" stroke-miterlimit="10" stroke-dasharray="" stroke-dashoffset="0" style="mix-blend-mode: normal"><path d="M242.71862,196.63755c0.80208,-0.26042 1.50521,-0.63021 2.10938,-1.10937c0.61458,-0.46875 1.08854,-1.04167 1.42188,-1.71875c0.33333,-0.67708 0.47917,-1.42708 0.4375,-2.25h8.53125c0.04167,1.82292 -0.33333,3.51563 -1.125,5.07813c-0.79167,1.5625 -1.86979,2.91146 -3.23437,4.04688c-1.375,1.125 -2.96875,2.01042 -4.78125,2.65625c-1.80208,0.63542 -3.71354,0.95313 -5.73437,0.95313c-2.73958,0 -5.14062,-0.45833 -7.20312,-1.375c-2.05208,-0.92708 -3.76562,-2.19271 -5.14062,-3.79687c-1.38542,-1.61458 -2.43229,-3.5 -3.14062,-5.65625c-0.69792,-2.15625 -1.04687,-4.47396 -1.04687,-6.95312v-0.96875c0,-2.47917 0.34375,-4.79687 1.03125,-6.95312c0.69792,-2.15625 1.73958,-4.03646 3.125,-5.64062c1.39583,-1.60417 3.11458,-2.86979 5.15625,-3.79687c2.05208,-0.9375 4.4375,-1.40625 7.15625,-1.40625c2.16667,0 4.17188,0.32813 6.01563,0.98438c1.84375,0.64583 3.4375,1.55208 4.78125,2.71875c1.32292,1.19792 2.35417,2.63542 3.09375,4.3125c0.73958,1.67708 1.08854,3.55729 1.04688,5.64063h-8.53125c0.04167,-0.86458 -0.08854,-1.6875 -0.39062,-2.46875c-0.30208,-0.78125 -0.74479,-1.45312 -1.32812,-2.01562c-0.59375,-0.5625 -1.30208,-1.01042 -2.125,-1.34375c-0.82292,-0.34375 -1.72396,-0.51562 -2.70312,-0.51562c-1.42708,0 -2.60937,0.29688 -3.54687,0.89063c-0.92708,0.58333 -1.66146,1.35938 -2.20312,2.32813c-0.5625,0.97917 -0.95833,2.09896 -1.1875,3.35938c-0.22917,1.26042 -0.34375,2.5625 -0.34375,3.90625v0.96875c0,1.375 0.10417,2.69792 0.3125,3.96875c0.21875,1.26042 0.61458,2.36979 1.1875,3.32813c0.54167,0.97917 1.28125,1.76042 2.21875,2.34375c0.94792,0.58333 2.14583,0.875 3.59375,0.875c0.89583,0 1.74479,-0.13021 2.54688,-0.39062z" fill="#ff0000" stroke-width="1" stroke-linecap="square"/><path d="M95.413,180c0,-79.8532 64.7338,-144.587 144.58701,-144.587c79.8532,0 144.587,64.7338 144.587,144.58701c0,79.8532 -64.7338,144.587 -144.587,144.587c-79.8532,0 -144.587,-64.7338 -144.587,-144.587z" fill="none" stroke-width="0" stroke-linecap="butt"/></g></g></svg>