<svg version="1.1" xmlns="http://www.w3.org/2000/svg" xmlns:xlink="http://www.w3.org/1999/xlink" width="289.17401" height="289.17401" viewBox="0,0,289.17401,289.17401"><g transform="translate(-95.41301,-35.41301)"><g data-paper-data="{&quot;isPaintingLayer&quot;:true}" fill-rule="nonzero" stroke="none" stroke-linejoin="miter" stroke-miterlimit="10" stroke-dasharray="" stroke-dashoffset="0" style="mix-blend-mode: normal"><path d="M255.60927,195.21567c-0.875,1.90625 -2.04687,3.53125 -3.51562,4.875c-1.47917,1.34375 -3.23958,2.38021 -5.28125,3.10938c-2.03125,0.72917 -4.28646,1.09375 -6.76562,1.09375c-1.94792,0 -3.75521,-0.25521 -5.42187,-0.76562c-1.65625,-0.51042 -3.14583,-1.24479 -4.46875,-2.20312c-1.21875,-0.88542 -2.30208,-1.95833 -3.25,-3.21875c-0.9375,-1.26042 -1.72917,-2.65104 -2.375,-4.17187c-0.63542,-1.51042 -1.11979,-3.17708 -1.45312,-5c-0.33333,-1.82292 -0.5,-3.75521 -0.5,-5.79687v-6.375c0,-1.91667 0.15104,-3.73437 0.45313,-5.45312c0.30208,-1.72917 0.75521,-3.33333 1.35938,-4.8125c0.69792,-1.80208 1.60938,-3.40625 2.73438,-4.8125c1.125,-1.40625 2.40625,-2.59896 3.84375,-3.57812c1.28125,-0.82292 2.6875,-1.45833 4.21875,-1.90625c1.53125,-0.44792 3.17188,-0.67187 4.92188,-0.67187c2.60417,0 4.92188,0.36979 6.95313,1.10938c2.03125,0.73958 3.76042,1.79167 5.1875,3.15625c1.4375,1.375 2.56771,3.05208 3.39063,5.03125c0.82292,1.96875 1.34375,4.1875 1.5625,6.65625h-9.10937c-0.09375,-1.40625 -0.30729,-2.64062 -0.64062,-3.70312c-0.33333,-1.0625 -0.81771,-1.95312 -1.45312,-2.67187c-0.64583,-0.69792 -1.45312,-1.22396 -2.42187,-1.57812c-0.96875,-0.36458 -2.125,-0.54687 -3.46875,-0.54687c-0.70833,0 -1.375,0.07813 -2,0.23438c-0.61458,0.15625 -1.18229,0.38542 -1.70312,0.6875c-0.89583,0.52083 -1.65104,1.26563 -2.26562,2.23438c-0.61458,0.95833 -1.10937,2.07813 -1.48437,3.35938c-0.28125,1 -0.48958,2.10417 -0.625,3.3125c-0.125,1.19792 -0.1875,2.48958 -0.1875,3.875v6.45313c0,1.88542 0.10417,3.57292 0.3125,5.0625c0.20833,1.47917 0.52604,2.77604 0.95313,3.89063c0.3125,0.76042 0.67708,1.43229 1.09375,2.01563c0.42708,0.58333 0.91146,1.06771 1.45313,1.45313c0.58333,0.4375 1.23958,0.76042 1.96875,0.96875c0.72917,0.20833 1.53646,0.3125 2.42188,0.3125c1.19792,0 2.27083,-0.15104 3.21875,-0.45312c0.95833,-0.3125 1.77604,-0.79167 2.45313,-1.4375c0.66667,-0.65625 1.19271,-1.48958 1.57813,-2.5c0.39583,-1.02083 0.63542,-2.25 0.71875,-3.6875h9.15625c-0.15625,2.38542 -0.67708,4.53646 -1.5625,6.45313z" fill="#ff0000" stroke-width="1" stroke-linecap="square"/><path d="M95.41302,180.00001c0,-79.8532 64.7338,-144.587 144.58701,-144.587c79.8532,0 144.587,64.7338 144.587,144.58701c0,79.8532 -64.7338,144.587 -144.587,144.587c-79.8532,0 -144.587,-64.7338 -144.587,-144.587z" fill="none" stroke-width="0" stroke-linecap="butt"/></g></g></svg>