<svg version="1.1" xmlns="http://www.w3.org/2000/svg" xmlns:xlink="http://www.w3.org/1999/xlink" width="289.17401" height="289.17401" viewBox="0,0,289.17401,289.17401"><g transform="translate(-95.41299,-35.41299)"><g data-paper-data="{&quot;isPaintingLayer&quot;:true}" fill-rule="nonzero" stroke="none" stroke-linejoin="miter" stroke-miterlimit="10" stroke-dasharray="" stroke-dashoffset="0" style="mix-blend-mode: normal"><path d="M224.453,178.55942c0.73958,-2.17708 1.82813,-4.06771 3.26563,-5.67187c1.40625,-1.61458 3.13542,-2.875 5.1875,-3.78125c2.05208,-0.90625 4.40104,-1.35937 7.04688,-1.35937c2.64583,0 5,0.45313 7.0625,1.35938c2.0625,0.90625 3.80729,2.16667 5.23438,3.78125c1.41667,1.60417 2.48958,3.49479 3.21875,5.67188c0.73958,2.17708 1.10938,4.54688 1.10938,7.10938v0.6875c0,2.58333 -0.36979,4.96875 -1.10937,7.15625c-0.72917,2.17708 -1.80208,4.06771 -3.21875,5.67188c-1.40625,1.60417 -3.14062,2.85938 -5.20312,3.76563c-2.0625,0.89583 -4.40625,1.34375 -7.03125,1.34375c-2.64583,0 -5.00521,-0.44792 -7.07812,-1.34375c-2.07292,-0.90625 -3.8125,-2.16146 -5.21875,-3.76562c-1.4375,-1.60417 -2.52604,-3.49479 -3.26562,-5.67187c-0.72917,-2.1875 -1.09375,-4.57292 -1.09375,-7.15625v-0.6875c0,-2.5625 0.36458,-4.93229 1.09375,-7.10937zM232.828,190.51256c0.28125,1.29167 0.72396,2.41146 1.32813,3.35938c0.60417,0.97917 1.39063,1.75 2.35938,2.3125c0.96875,0.5625 2.13542,0.84375 3.5,0.84375c1.32292,0 2.45833,-0.28125 3.40625,-0.84375c0.95833,-0.5625 1.74479,-1.33333 2.35938,-2.3125c0.58333,-0.94792 1.01563,-2.06771 1.29688,-3.35937c0.28125,-1.29167 0.42188,-2.67708 0.42188,-4.15625v-0.6875c0,-1.42708 -0.14062,-2.78125 -0.42187,-4.0625c-0.28125,-1.28125 -0.71354,-2.41146 -1.29687,-3.39062c-0.61458,-0.96875 -1.40104,-1.73437 -2.35937,-2.29687c-0.94792,-0.57292 -2.10417,-0.85937 -3.46875,-0.85937c-1.34375,0 -2.49479,0.28646 -3.45312,0.85938c-0.95833,0.5625 -1.73958,1.32813 -2.34375,2.29688c-0.60417,0.97917 -1.04687,2.10938 -1.32812,3.39063c-0.28125,1.28125 -0.42187,2.63542 -0.42187,4.0625v0.6875c0,1.47917 0.14063,2.86458 0.42188,4.15625z" fill="#ff0000" stroke-width="1" stroke-linecap="square"/><path d="M95.413,180c0,-79.8532 64.7338,-144.587 144.58701,-144.587c79.8532,0 144.587,64.7338 144.587,144.58701c0,79.8532 -64.7338,144.587 -144.587,144.587c-79.8532,0 -144.587,-64.7338 -144.587,-144.587z" fill="none" stroke-width="0" stroke-linecap="butt"/></g></g></svg>