<svg version="1.1" xmlns="http://www.w3.org/2000/svg" xmlns:xlink="http://www.w3.org/1999/xlink" width="289.17401" height="289.17401" viewBox="0,0,289.17401,289.17401"><g transform="translate(-95.41301,-35.41301)"><g data-paper-data="{&quot;isPaintingLayer&quot;:true}" fill-rule="nonzero" stroke="none" stroke-linejoin="miter" stroke-miterlimit="10" stroke-dasharray="" stroke-dashoffset="0" style="mix-blend-mode: normal"><path d="M255.76553,156.21567l0.03125,32.84375c-0.02083,2.26042 -0.44792,4.31771 -1.28125,6.17188c-0.83333,1.85417 -1.97917,3.45313 -3.4375,4.79688c-1.44792,1.34375 -3.15625,2.38542 -5.125,3.125c-1.95833,0.73958 -4.06771,1.10938 -6.32812,1.10938c-2.38542,0 -4.55729,-0.30208 -6.51562,-0.90625c-1.94792,-0.61458 -3.61458,-1.53125 -5,-2.75c-1.41667,-1.1875 -2.51562,-2.69271 -3.29687,-4.51562c-0.78125,-1.82292 -1.18229,-3.96354 -1.20312,-6.42187h9.1875c0,1.13542 0.10417,2.125 0.3125,2.96875c0.21875,0.84375 0.54688,1.5625 0.98438,2.15625c0.5625,0.70833 1.29688,1.23958 2.20313,1.59375c0.91667,0.34375 2.02604,0.51563 3.32813,0.51563c1.04167,0 1.99479,-0.19792 2.85938,-0.59375c0.875,-0.40625 1.61458,-0.95833 2.21875,-1.65625c0.60417,-0.6875 1.07292,-1.51562 1.40625,-2.48437c0.34375,-0.96875 0.51563,-2.00521 0.51563,-3.10937v-32.84375z" fill="#ff0000" stroke-width="1" stroke-linecap="square"/><path d="M95.41302,180.00001c0,-79.8532 64.7338,-144.587 144.58701,-144.587c79.8532,0 144.587,64.7338 144.587,144.58701c0,79.8532 -64.7338,144.587 -144.587,144.587c-79.8532,0 -144.587,-64.7338 -144.587,-144.587z" fill="none" stroke-width="0" stroke-linecap="butt"/></g></g></svg>