<svg version="1.1" xmlns="http://www.w3.org/2000/svg" xmlns:xlink="http://www.w3.org/1999/xlink" width="289.17401" height="289.17401" viewBox="0,0,289.17401,289.17401"><g transform="translate(-95.41299,-35.41299)"><g data-paper-data="{&quot;isPaintingLayer&quot;:true}" fill-rule="nonzero" stroke="none" stroke-linejoin="miter" stroke-miterlimit="10" stroke-dasharray="" stroke-dashoffset="0" style="mix-blend-mode: normal"><path d="M253.65613,168.02817c1.16667,0.17708 2.10938,0.375 2.82813,0.59375l-1.32812,9.01563c-1.19792,-0.28125 -2.42187,-0.48958 -3.67187,-0.625c-1.23958,-0.14583 -2.42708,-0.21875 -3.5625,-0.21875c-1.16667,0 -2.22396,0.10417 -3.17187,0.3125c-0.9375,0.19792 -1.77604,0.50521 -2.51562,0.92188c-0.89583,0.47917 -1.66146,1.08854 -2.29687,1.82813c-0.625,0.72917 -1.14062,1.59375 -1.54687,2.59375v21.15625h-9.04687v-35.21875h8.42188l0.35938,4.98438l0.0625,0.78125c1.4375,-2 3.15104,-3.56771 5.14063,-4.70312c2,-1.13542 4.18229,-1.70312 6.54688,-1.70312c1.36458,0 2.625,0.09375 3.78125,0.28125z" fill="#ff0000" stroke-width="1" stroke-linecap="square"/><path d="M95.413,180c0,-79.8532 64.7338,-144.587 144.58701,-144.587c79.8532,0 144.587,64.7338 144.587,144.58701c0,79.8532 -64.7338,144.587 -144.587,144.587c-79.8532,0 -144.587,-64.7338 -144.587,-144.587z" fill="none" stroke-width="0" stroke-linecap="butt"/></g></g></svg>