<svg version="1.1" xmlns="http://www.w3.org/2000/svg" xmlns:xlink="http://www.w3.org/1999/xlink" width="606" height="403"><g transform="translate(50,27)"><g data-paper-data="{&quot;isPaintingLayer&quot;:true}" fill="none" fill-rule="nonzero" stroke="none" stroke-width="none" stroke-linecap="butt" stroke-linejoin="miter" stroke-miterlimit="none" stroke-dasharray="" stroke-dashoffset="0" font-family="none" font-weight="none" font-size="none" text-anchor="none" style="mix-blend-mode: normal"><path d="M-50,376v-403h606v403z" data-paper-data="{&quot;origPos&quot;:null}" fill="#ccc4a6" stroke-width="0" stroke-miterlimit="10"/><path d="" id="path1059" fill="#000000" stroke-width="4.26975" stroke-miterlimit="4"/><path d="" id="path1061" fill="#000000" stroke-width="4.26975" stroke-miterlimit="4"/><path d="" id="path1077" fill="#000000" stroke-width="4.26975" stroke-miterlimit="4"/><path d="" id="path1079" fill="#000000" stroke-width="4.26975" stroke-miterlimit="4"/><path d="" id="path1081" fill="#000000" stroke-width="4.26975" stroke-miterlimit="4"/><path d="" id="path1083" fill="#000000" stroke-width="4.26975" stroke-miterlimit="4"/><path d="" id="path1085" fill="#000000" stroke-width="4.26975" stroke-miterlimit="4"/><path d="" id="path1087" fill="#000000" stroke-width="4.26975" stroke-miterlimit="4"/><path d="" id="path1089" fill="#000000" stroke-width="4.26975" stroke-miterlimit="4"/><path d="" id="path1091" fill="#000000" stroke-width="4.26975" stroke-miterlimit="4"/><path d="" id="path1093" fill="#000000" stroke-width="4.26975" stroke-miterlimit="4"/><path d="" id="path1095" fill="#000000" stroke-width="4.26975" stroke-miterlimit="4"/><path d="" id="path1097" fill="#000000" stroke-width="4.26975" stroke-miterlimit="4"/><path d="" id="path1099" fill="#000000" stroke-width="4.26975" stroke-miterlimit="4"/><path d="" id="path1101" fill="#000000" stroke-width="4.26975" stroke-miterlimit="4"/><path d="" id="path1219" fill="#000000" stroke-width="4.26975" stroke-miterlimit="4"/><path d="M24,328v-299h420v299z" data-paper-data="{&quot;origPos&quot;:null}" fill="#f5eed8" stroke-width="0" stroke-miterlimit="10"/><path d="" id="path1221" fill="#000000" stroke-width="4.26975" stroke-miterlimit="4"/><g><g data-paper-data="{&quot;origPos&quot;:null}"><path d="M268.96264,137.81699c-2.44233,-0.32935 -10.58049,-0.63489 -18.08481,-0.67911c-12.9822,-0.07645 -13.72827,-0.15931 -15.37743,-1.70859c-1.62102,-1.52286 -1.95953,-1.56715 -5.22844,-0.68388c-1.92236,0.51945 -9.81403,1.24728 -17.53708,1.61741l-14.0419,0.67294l-2.78936,-2.72376l-2.78936,-2.72377l-2.04135,1.9256c-1.12273,1.05908 -3.37354,2.28778 -5.00177,2.73051c-3.15116,0.85678 -40.03868,1.16468 -42.15684,0.35186c-0.6612,-0.25372 -1.81262,-1.66916 -2.55866,-3.14542c-2.61119,-5.1668 -8.2904,-34.36204 -8.46002,-43.49076c-0.12294,-6.61833 0.58893,-8.09246 5.06712,-10.49288c4.71791,-2.52889 54.12192,-1.81953 60.55772,0.86953c1.3237,0.55307 3.55028,2.21798 4.94793,3.69976l2.54121,2.69414h12.92148c10.44755,0 16.04892,0.43957 29.25621,2.29578c13.94838,1.96038 18.32233,-6.1795 21.79821,-6.86886c2.23879,-0.444 14.93303,7.16787 29.91175,6.70081l27.23408,-0.8492l2.74007,2.21704l2.74007,2.217l0.19895,16.29518l0.19895,16.29518l-4.77463,5.91366c-2.62605,3.25251 -5.37993,6.16674 -6.11978,6.4761c-1.87789,0.78514 -47.73048,1.12479 -53.15235,0.39372zM157.57723,124.82263c0,-1.03043 -0.51396,-2.07071 -1.14207,-2.31174c-1.59925,-0.61369 -2.0744,0.10398 -1.52309,2.3005c0.62348,2.48408 2.66519,2.49269 2.66519,0.01126zM179.78028,123.0393c0,-0.38303 -0.33304,-0.90227 -0.74012,-1.15386c-0.40704,-0.25156 -0.7401,0.06183 -0.7401,0.69645c0,0.63463 0.33304,1.15386 0.7401,1.15386c0.40704,0 0.74012,-0.31341 0.74012,-0.69645zM150.90494,110.13819c-0.00633,-0.459 -0.33416,-0.33491 -0.72876,0.27566c-0.55549,0.85958 -0.71996,0.63287 -0.72876,-1.00431c-0.00847,-1.57793 0.27036,-2.00638 1.09881,-1.68844c0.83003,0.31853 1.11017,-0.11731 1.11017,-1.72737c0,-3.62077 -1.34743,-3.23501 -2.52259,0.7222c-1.25165,4.21488 -0.91304,6.49389 0.75872,5.10644c0.56303,-0.46729 1.01863,-1.22516 1.01237,-1.68412zM171.18728,106.2897c0.58361,-1.52084 -0.77582,-4.01698 -2.18775,-4.01698c-1.53577,0 -2.07627,1.8033 -1.09185,3.64268c0.97439,1.82065 2.65113,2.01198 3.27956,0.37427z" data-paper-data="{&quot;origPos&quot;:null}" id="path1075" fill="#ffffff" stroke-width="4.26975" stroke-miterlimit="4"/><text transform="translate(137.90049,124.16093) scale(4.00454,3.73114)" font-size="12.5168" xml:space="preserve" data-paper-data="{&quot;origPos&quot;:null}" id="text3094" fill="#f7bb33" fill-rule="nonzero" stroke="none" stroke-width="0.31292" stroke-linecap="butt" stroke-linejoin="miter" stroke-miterlimit="10" stroke-dasharray="" stroke-dashoffset="0" font-family="&quot;Cheese and Mouse&quot;" font-weight="normal" text-anchor="start" style="mix-blend-mode: normal"><tspan x="0" dy="0">What </tspan></text></g><g data-paper-data="{&quot;origPos&quot;:null}"><path d="M303.52405,278.12286c-5.91516,-2.75439 -14.36827,-13.64443 -14.4049,-18.55759c-0.00623,-0.83596 -0.34603,-2.01948 -0.75515,-2.63009c-0.63251,-0.94405 -0.97401,-0.83521 -2.28214,0.72743c-1.37772,1.64574 -1.49025,2.4571 -1.0778,7.77106c0.82685,10.65314 -1.35258,12.22288 -16.96649,12.22044c-15.36408,-0.00254 -16.52722,-1.01618 -15.64041,-13.63201l0.47762,-6.79444l-3.4516,-4.03179c-5.57331,-6.51017 -6.54911,-9.32124 -6.54911,-18.86642c0,-9.30098 0.87342,-11.53727 5.21448,-13.35109c3.40921,-1.42447 42.65969,-1.51249 45.48254,-0.10201c2.47643,1.23739 4.43804,5.35396 4.43946,9.31643c0.00127,3.60641 -0.53425,3.53421 6.66206,0.89805c5.68457,-2.08235 14.74563,-2.06921 20.81215,0.03026c3.75079,1.29802 5.00017,1.43306 7.21897,0.78004c1.4757,-0.43435 10.28339,-1.18334 19.57261,-1.66439l16.88944,-0.87469l2.62743,2.50001l2.62743,2.50001l-0.47613,18.38182c-0.67447,26.03822 -0.54414,25.8335 -16.72489,26.27783c-12.91593,0.35473 -17.08797,-0.47833 -21.76913,-4.34659c-1.95538,-1.61581 -3.67424,-2.9379 -3.81971,-2.9379c-0.14548,0 -2.33263,1.33672 -4.86028,2.97043c-8.35423,5.39959 -16.43536,6.58684 -23.24644,3.41519zM304.58806,248.00167c-1.18769,-0.73402 -1.7283,-0.34468 -1.04856,0.75518c0.27242,0.44077 0.84092,0.58781 1.26329,0.32678c0.49725,-0.30734 0.42154,-0.68874 -0.21472,-1.08199zM309.48331,244.35343c-0.25159,-0.40704 -0.79049,-0.7401 -1.19751,-0.7401c-0.40707,0 -0.53425,0.33307 -0.28267,0.7401c0.25159,0.40704 0.79043,0.7401 1.1975,0.7401c0.40707,0 0.53427,-0.33308 0.28271,-0.7401z" data-paper-data="{&quot;origPos&quot;:null}" id="path1331" fill="#ffffff" stroke-width="4.26975" stroke-miterlimit="4"/><text transform="translate(224.61766,263.17165) scale(3.73114,3.73114)" font-size="12.5168" xml:space="preserve" data-paper-data="{&quot;origPos&quot;:null}" id="text3094" fill="#f7bb33" fill-rule="nonzero" stroke="none" stroke-width="0.31292" stroke-linecap="butt" stroke-linejoin="miter" stroke-miterlimit="10" stroke-dasharray="" stroke-dashoffset="0" font-family="&quot;Cheese and Mouse&quot;" font-weight="normal" text-anchor="start" style="mix-blend-mode: normal"><tspan x="0" dy="0"> You </tspan></text></g><g data-paper-data="{&quot;origPos&quot;:null}"><path d="M147.80989,276.94393c-15.15475,-0.35334 -17.28471,-0.55556 -19.41362,-1.84329c-2.30282,-1.39294 -2.5218,-1.39966 -5.92083,-0.18138c-2.48375,0.89026 -5.83214,1.264 -11.30064,1.26143l-7.77106,-0.00381l-2.1308,-2.67053c-1.92933,-2.41805 -2.09481,-3.06525 -1.75039,-6.84592c0.38692,-4.24712 7.42735,-26.76307 10.67019,-34.12441c3.03926,-6.89913 2.53162,-6.68609 15.92941,-6.68609h11.75748l2.30036,3.70051c1.2652,2.03526 2.52561,3.7005 2.80086,3.7005c0.27528,0 1.28314,-0.83313 2.23976,-1.85138c0.95663,-1.01826 2.92966,-2.18204 4.38461,-2.58623c4.05951,-1.1277 20.49663,-0.89882 25.19233,0.35077c3.59025,0.95543 4.29674,0.948 6.29088,-0.0662c2.7788,-1.41324 12.86947,-2.46132 23.95135,-2.48784c8.29021,-0.01985 8.40707,0.00381 10.54646,2.14331c2.08593,2.08593 2.16338,2.41385 2.16338,9.15822c0,4.08216 -0.42867,8.20989 -1.02946,9.9127c-0.75604,2.14287 -0.93838,5.46014 -0.68653,12.48979c0.37979,10.6002 -0.47806,13.79442 -4.20481,15.65656c-2.46407,1.2312 -24.65064,1.27579 -29.20136,0.05866c-2.83533,-0.75835 -3.70341,-0.70441 -5.95654,0.37006c-1.7677,0.84294 -4.1548,1.20556 -7.23806,1.09954c-2.53031,-0.08701 -12.26059,-0.33677 -21.62287,-0.55509zM159.26903,267.11075l-0.01249,-3.14546l-1.52578,2.38214c-1.56958,2.45057 -1.38895,3.90875 0.48419,3.90875c0.76324,0 1.06293,-0.89439 1.054,-3.14542zM159.11684,261.70307c1.81658,-1.27236 2.16675,-2.54841 0.69941,-2.54841c-1.46194,0 -4.31163,2.23808 -3.8339,3.01106c0.59414,0.96136 1.23686,0.86652 3.13449,-0.46267zM192.21608,256.93433c0.25159,-0.40704 0.10473,-0.74012 -0.32636,-0.74012c-0.43109,0 -0.78375,0.33304 -0.78375,0.74012c0,0.40704 0.14686,0.7401 0.32637,0.7401c0.1795,0 0.53221,-0.33308 0.78375,-0.7401zM126.71699,249.53332c0,-0.40704 -0.33304,-0.74012 -0.74007,-0.74012c-0.40707,0 -0.7401,0.33308 -0.7401,0.74012c0,0.40704 0.33304,0.7401 0.7401,0.7401c0.40707,0 0.74007,-0.33304 0.74007,-0.7401z" data-paper-data="{&quot;origPos&quot;:null}" id="path1273" fill="#ffffff" stroke-width="4.26975" stroke-miterlimit="4"/><text transform="translate(77.89356,265.0445) scale(3.73114,3.73114)" font-size="12.5168" xml:space="preserve" data-paper-data="{&quot;origPos&quot;:null}" id="text3094" fill="#f7bb33" fill-rule="nonzero" stroke="none" stroke-width="0.31292" stroke-linecap="butt" stroke-linejoin="miter" stroke-miterlimit="10" stroke-dasharray="" stroke-dashoffset="0" font-family="&quot;Cheese and Mouse&quot;" font-weight="normal" text-anchor="start" style="mix-blend-mode: normal"><tspan x="0" dy="0"> are </tspan></text></g><g data-paper-data="{&quot;origPos&quot;:null}"><path d="M166.24842,204.88724l-2.34964,-2.0353l-0.21275,-13.07666c-0.117,-7.19213 -0.4611,-13.32432 -0.7647,-13.62708c-0.30356,-0.30274 -1.34727,-0.18809 -2.31936,0.25483c-1.66137,0.75696 5.87328,1.26377 5.55715,8.44639c-0.3699,8.40401 0.59157,14.48812 -2.58668,17.91751c-1.59906,1.72542 -12.78574,1.93351 -17.27124,1.91904c-3.26799,-0.01056 -6.07746,-0.49162 -8.01702,-1.37265c-3.7702,-1.71259 -10.54459,-9.14845 -13.66028,-14.9941c-2.32215,-4.3568 -2.38083,-4.6922 -2.09933,-11.99702c0.25428,-6.59729 0.55259,-7.99471 2.44308,-11.44425c2.70398,-4.93387 10.75197,-12.59318 15.95844,-15.18766c3.70076,-1.84415 4.62333,-1.97593 13.83501,-1.97593c11.15876,0 13.13709,0.53843 17.94803,4.88483l3.10852,2.80835l49.33551,0.79556c36.85564,0.5943 49.75241,1.02964 50.98374,1.72113c2.51429,1.41193 3.15931,3.26228 3.19636,9.16919l0.03399,5.4144l2.05888,-4.44062c2.29905,-4.95868 6.08824,-8.6925 11.15743,-10.99431c2.80891,-1.27546 5.24449,-1.57813 14.67012,-1.82289c13.22408,-0.34342 31.75719,0.91756 35.31128,2.40256c1.36637,0.5709 2.84416,1.71039 3.28399,2.53222c1.00479,1.87747 1.013,9.22628 0.02851,25.48843c-0.78089,12.89887 -1.46026,16.59281 -3.59734,19.56086l-1.18229,1.642l-29.13327,0.02324c-28.40939,0.02268 -29.20322,-0.01605 -31.94822,-1.55883l-2.81496,-1.58208l-2.01127,1.58208c-1.89744,1.49252 -2.8238,1.58208 -16.36723,1.58208c-10.51747,0 -15.0082,-0.27252 -16.79537,-1.01924c-2.04642,-0.85503 -2.72813,-0.85928 -4.23182,-0.02627c-1.32488,0.73399 -5.61297,0.99987 -16.43941,1.01923c-13.69307,0.02451 -14.78254,-0.07395 -16.72765,-1.51204c-1.79654,-1.32824 -2.47452,-1.43395 -4.96569,-0.77433c-4.12836,1.09315 -17.12111,2.31264 -24.63949,2.31264c-5.94653,0 -6.60057,-0.1517 -8.7751,-2.0353zM176.4251,198.28306c-1.4247,-0.61474 -3.25072,-1.66999 -4.05779,-2.34498c-1.40227,-1.17277 -1.41873,-1.16475 -0.37031,0.18129c1.08322,1.39078 4.84138,3.37373 6.27838,3.31277c0.40704,-0.01727 -0.42557,-0.53433 -1.85027,-1.14907zM178.00967,189.62459c0.75672,0.68482 1.37581,1.91509 1.37581,2.73396c0,0.81887 0.20652,1.28231 0.45894,1.02991c0.8317,-0.83171 -0.44885,-4.17088 -1.89665,-4.94574c-1.16169,-0.62172 -1.90109,-0.30659 -4.06182,1.73124c-1.45286,1.37023 -2.64161,2.86928 -2.64161,3.33123c0,0.46195 1.21266,-0.50239 2.69478,-2.1429c2.55766,-2.83103 2.76474,-2.91943 4.07056,-1.73766zM178.64538,170.34032c0,-1.38534 -2.02838,-3.38331 -3.4348,-3.38331c-0.72661,0 -1.02711,0.57396 -0.87189,1.66524c0.14932,1.04965 0.71258,1.6277 1.52372,1.56375c0.7078,-0.05582 1.10427,0.19398 0.88106,0.55509c-0.22316,0.3611 0.11347,0.65652 0.74806,0.65652c0.63463,0 1.15385,-0.47577 1.15385,-1.05729zM231.19269,168.43718c0,-0.40702 -0.33304,-0.7401 -0.7401,-0.7401c-0.40704,0 -0.74007,0.33304 -0.74007,0.7401c0,0.40702 0.33304,0.74012 0.74007,0.74012c0.40704,0 0.7401,-0.33304 0.7401,-0.74012zM160.88294,164.08719c0,-1.59136 -1.33787,-2.80828 -2.96039,-2.69272c-1.98671,0.14144 -0.11305,4.0823 1.94086,4.0823c0.56072,0 1.01953,-0.6253 1.01953,-1.38958z" data-paper-data="{&quot;origPos&quot;:null}" id="path1213" fill="#ffffff" stroke-width="4.26975" stroke-miterlimit="4"/><text transform="translate(125.39664,191.53555) scale(3.73114,3.73114)" font-size="12.5168" xml:space="preserve" data-paper-data="{&quot;origPos&quot;:null}" id="text3094" fill="#f7bb33" fill-rule="nonzero" stroke="none" stroke-width="0.31292" stroke-linecap="butt" stroke-linejoin="miter" stroke-miterlimit="10" stroke-dasharray="" stroke-dashoffset="0" font-family="&quot;Cheese and Mouse&quot;" font-weight="normal" text-anchor="start" style="mix-blend-mode: normal"><tspan x="0" dy="0">Cheese </tspan></text></g></g></g></g></svg>