<svg version="1.1" xmlns="http://www.w3.org/2000/svg" xmlns:xlink="http://www.w3.org/1999/xlink" width="714" height="559"><g transform="translate(153,26)"><g data-paper-data="{&quot;isPaintingLayer&quot;:true}" fill="none" fill-rule="nonzero" stroke="none" stroke-width="none" stroke-linecap="butt" stroke-linejoin="miter" stroke-miterlimit="10" stroke-dasharray="" stroke-dashoffset="0" font-family="none" font-weight="none" font-size="none" text-anchor="none" style="mix-blend-mode: normal"><path d="M-153,533v-559h714v559z" data-paper-data="{&quot;origPos&quot;:null,&quot;index&quot;:null}" fill="#ccc4a6" stroke-width="0"/><path d="M39,326v-284h394v284z" data-paper-data="{&quot;origPos&quot;:null,&quot;index&quot;:null}" fill="#f5eed8" stroke-width="0"/><g data-paper-data="{&quot;origPos&quot;:null}" fill="#f7bb33" stroke-width="1" font-family="Sans Serif" font-weight="normal" font-size="40" text-anchor="start"><text transform="translate(163.48012,129.57361) scale(1.35442,1.35442)" font-size="40" xml:space="preserve" data-paper-data="{&quot;origPos&quot;:null}" fill="#f7bb33" fill-rule="nonzero" stroke="none" stroke-width="1" stroke-linecap="butt" stroke-linejoin="miter" stroke-miterlimit="10" stroke-dasharray="" stroke-dashoffset="0" font-family="Sans Serif" font-weight="normal" text-anchor="start" style="mix-blend-mode: normal"><tspan x="0" dy="0">What </tspan></text><text transform="translate(47,209.48439) scale(2.64574,2.64574)" font-size="40" xml:space="preserve" data-paper-data="{&quot;origPos&quot;:null}" fill="#f7bb33" fill-rule="nonzero" stroke="none" stroke-width="1" stroke-linecap="butt" stroke-linejoin="miter" stroke-miterlimit="10" stroke-dasharray="" stroke-dashoffset="0" font-family="Sans Serif" font-weight="normal" text-anchor="start" style="mix-blend-mode: normal"><tspan x="0" dy="0">Cheese</tspan></text><text transform="translate(128.2652,273.14213) scale(1.35442,1.35442)" font-size="40" xml:space="preserve" data-paper-data="{&quot;origPos&quot;:null}" fill="#f7bb33" fill-rule="nonzero" stroke="none" stroke-width="1" stroke-linecap="butt" stroke-linejoin="miter" stroke-miterlimit="10" stroke-dasharray="" stroke-dashoffset="0" font-family="Sans Serif" font-weight="normal" text-anchor="start" style="mix-blend-mode: normal"><tspan x="0" dy="0">Are You?</tspan></text></g><path d="M433.98488,297.07058c-4.44211,-0.28155 -19.59215,-4.02971 -19.59215,-4.02971c0,0 6.01839,-11.98845 10.57996,-15.82495c6.51669,-5.48086 11.8833,-12.00626 19.85466,-9.01219c7.97136,2.99406 12.00626,11.8833 9.01219,19.85466c-2.99406,7.97136 -11.35662,9.55081 -19.85467,9.01219z" data-paper-data="{&quot;origPos&quot;:null,&quot;origRot&quot;:0}" fill="#8d9aae" stroke-width="0"/><path d="M414.54787,344.12204c-8.07699,-11.08165 -29.01688,-54.36423 -29.01688,-54.36423c0,0 40.25877,-9.33604 58.33039,-6.07763c25.81722,4.65499 51.846,4.52825 60.44186,29.3135c8.59586,24.78526 -4.52825,51.846 -29.3135,60.44186c-24.78526,8.59586 -44.99002,-8.11354 -60.44186,-29.3135z" data-paper-data="{&quot;origPos&quot;:null,&quot;origRot&quot;:0}" fill="#bbd5fa" stroke-width="0"/><path d="M444.59872,303.2456c-4.04444,-1.85852 -16.83668,-10.79894 -16.83668,-10.79894c0,0 9.92334,-9.02614 15.55862,-10.96786c8.0506,-2.77396 15.40314,-6.93587 21.7668,-1.27806c6.36366,5.65781 6.93587,15.40314 1.27806,21.7668c-5.65781,6.36366 -14.02952,4.83354 -21.76681,1.27806z" data-paper-data="{&quot;origPos&quot;:null,&quot;origRot&quot;:0}" fill="#8d9aae" stroke-width="0"/><path d="M415,293.5c0,-1.38071 1.11929,-2.5 2.5,-2.5c1.38071,0 2.5,1.11929 2.5,2.5c0,1.38071 -1.11929,2.5 -2.5,2.5c-1.38071,0 -2.5,-1.11929 -2.5,-2.5z" fill="#bbd5fa" stroke-width="0"/><path d="M414.33333,291.16667c0,-2.48528 2.01472,-4.5 4.5,-4.5c2.48528,0 4.5,2.01472 4.5,4.5c0,2.48528 -2.01472,4.5 -4.5,4.5c-2.48528,0 -4.5,-2.01472 -4.5,-4.5z" data-paper-data="{&quot;origPos&quot;:null}" fill="#8d9aae" stroke-width="0"/></g></g></svg>